OpenSans-SemiBold.ufo
<glyph name="dollar" format="2">
	<unicode hex="0024"/>
	<advance width="1178"/>
	<outline>
		<contour>
			<point x="502.286" y="-119" type="line"/>
			<point x="650.571" y="-119" type="line"/>
			<point x="650.571" y="40.7143" type="line"/>
			<point x="937.857" y="68"/>
			<point x="1085.29" y="221.429"/>
			<point x="1085.29" y="445.286" type="curve" smooth="yes"/>
			<point x="1085.29" y="680.143"/>
			<point x="919.857" y="760.429"/>
			<point x="650.571" y="845.857" type="curve"/>
			<point x="650.571" y="1203.14" type="line"/>
			<point x="753.571" y="1195.43"/>
			<point x="865.571" y="1171.43"/>
			<point x="970.571" y="1126.14" type="curve"/>
			<point x="1039.71" y="1335.29" type="line"/>
			<point x="928.714" y="1382"/>
			<point x="800.286" y="1417.86"/>
			<point x="650.571" y="1424.14" type="curve"/>
			<point x="650.571" y="1555.43" type="line"/>
			<point x="502.286" y="1555.43" type="line"/>
			<point x="502.286" y="1422.71" type="line"/>
			<point x="248.429" y="1406.43"/>
			<point x="75.2857" y="1286.57"/>
			<point x="75.2857" y="1048" type="curve" smooth="yes"/>
			<point x="75.2857" y="797.714"/>
			<point x="260.571" y="705.143"/>
			<point x="502.286" y="629.429" type="curve"/>
			<point x="502.286" y="263.429" type="line"/>
			<point x="370.429" y="271.143"/>
			<point x="219.571" y="304.143"/>
			<point x="100.571" y="355.429" type="curve"/>
			<point x="100.571" y="115" type="line"/>
			<point x="207.286" y="71.7143"/>
			<point x="326.714" y="41.5714"/>
			<point x="502.286" y="37.8571" type="curve"/>
		</contour>
		<contour>
			<point x="650.571" y="266.286" type="curve"/>
			<point x="650.571" y="589.857" type="line"/>
			<point x="774" y="546.571"/>
			<point x="830.714" y="507.857"/>
			<point x="830.714" y="422.286" type="curve" smooth="yes"/>
			<point x="830.714" y="327.286"/>
			<point x="763.429" y="277.714"/>
		</contour>
		<contour>
			<point x="502.286" y="890.286" type="line"/>
			<point x="394" y="928.429"/>
			<point x="326.714" y="968.143"/>
			<point x="326.714" y="1059.14" type="curve" smooth="yes"/>
			<point x="326.714" y="1147.14"/>
			<point x="396.857" y="1194.86"/>
			<point x="502.286" y="1201.71" type="curve"/>
		</contour>
	</outline>
</glyph>
<glyph name="parenright" format="2">
	<unicode hex="0029"/>
	<advance width="674"/>
	<outline>
		<contour>
			<point x="598" y="580.857" type="curve" smooth="yes"/>
			<point x="598" y="921"/>
			<point x="513.714" y="1248.71"/>
			<point x="312.429" y="1491.29" type="curve"/>
			<point x="60.4286" y="1491.29" type="line"/>
			<point x="251.714" y="1239"/>
			<point x="335.857" y="909.286"/>
			<point x="335.857" y="581.429" type="curve" smooth="yes"/>
			<point x="335.857" y="256"/>
			<point x="252.857" y="-76.2857"/>
			<point x="61.8571" y="-324" type="curve"/>
			<point x="312.429" y="-324" type="line"/>
			<point x="513.714" y="-89.1429"/>
			<point x="598" y="241.429"/>
		</contour>
	</outline>
</glyph>
<glyph name="asterisk" format="2">
	<unicode hex="002A"/>
	<advance width="1108"/>
	<outline>
		<contour>
			<point x="669.429" y="1554.86" type="line"/>
			<point x="436.429" y="1554.86" type="line"/>
			<point x="468" y="1182.86" type="line"/>
			<point x="105.714" y="1295.57" type="line"/>
			<point x="68.4286" y="1072" type="line"/>
			<point x="407.714" y="1020.71" type="line"/>
			<point x="187.429" y="726.714" type="line"/>
			<point x="395.429" y="620.143" type="line"/>
			<point x="550.429" y="919.714" type="line"/>
			<point x="720.571" y="618.143" type="line"/>
			<point x="919.714" y="726.714" type="line"/>
			<point x="698.714" y="1020.71" type="line"/>
			<point x="1037.57" y="1069.14" type="line"/>
			<point x="1006.57" y="1295.57" type="line"/>
			<point x="638.571" y="1182.86" type="line"/>
		</contour>
	</outline>
</glyph>
<glyph name="hyphen" format="2">
	<unicode hex="002D"/>
	<advance width="653"/>
	<outline>
		<contour>
			<point x="54.1429" y="432.143" type="line"/>
			<point x="599.429" y="432.143" type="line"/>
			<point x="599.429" y="669.857" type="line"/>
			<point x="54.1429" y="669.857" type="line"/>
		</contour>
	</outline>
</glyph>
<glyph name="one" format="2">
	<unicode hex="0031"/>
	<advance width="1191"/>
	<outline>
		<contour>
			<point x="860" y="0" type="line"/>
			<point x="860" y="1462" type="line"/>
			<point x="592.286" y="1462" type="line"/>
			<point x="119.714" y="1086.71" type="line"/>
			<point x="275.571" y="894.429" type="line"/>
			<point x="466.143" y="1045.71" type="line"/>
			<point x="500.714" y="1074.71"/>
			<point x="528.857" y="1100.43"/>
			<point x="563.286" y="1138" type="curve"/>
			<point x="558.429" y="1048"/>
			<point x="558.429" y="907.143"/>
			<point x="558.429" y="845.857" type="curve" smooth="yes"/>
			<point x="558.429" y="0" type="line"/>
		</contour>
	</outline>
</glyph>
<glyph name="two" format="2">
	<unicode hex="0032"/>
	<advance width="1191"/>
	<outline>
		<contour>
			<point x="1088.86" y="0" type="line"/>
			<point x="1088.86" y="247.429" type="line"/>
			<point x="462.143" y="247.429" type="line"/>
			<point x="462.143" y="255.143" type="line"/>
			<point x="660.286" y="452.571" type="line"/>
			<point x="915.429" y="692.286"/>
			<point x="1049.43" y="837.286"/>
			<point x="1049.43" y="1089" type="curve" smooth="yes"/>
			<point x="1049.43" y="1317.57"/>
			<point x="868.429" y="1483"/>
			<point x="589.714" y="1483" type="curve" smooth="yes"/>
			<point x="348.429" y="1483"/>
			<point x="208.286" y="1388.29"/>
			<point x="79" y="1275.29" type="curve"/>
			<point x="242.857" y="1082.14" type="line"/>
			<point x="358.714" y="1181.14"/>
			<point x="458.429" y="1231.29"/>
			<point x="557.571" y="1231.29" type="curve" smooth="yes"/>
			<point x="671.571" y="1231.29"/>
			<point x="753.714" y="1169.71"/>
			<point x="753.714" y="1049.71" type="curve" smooth="yes"/>
			<point x="753.714" y="909.143"/>
			<point x="678.714" y="820.286"/>
			<point x="464.286" y="595.571" type="curve"/>
			<point x="78.1429" y="199.143" type="line"/>
			<point x="78.1429" y="0" type="line"/>
		</contour>
	</outline>
</glyph>
<glyph name="six" format="2">
	<unicode hex="0036"/>
	<advance width="1191"/>
	<outline>
		<contour>
			<point x="89.7143" y="618.857" type="curve" smooth="yes"/>
			<point x="89.7143" y="216.286"/>
			<point x="295.286" y="-20"/>
			<point x="618.429" y="-20" type="curve" smooth="yes"/>
			<point x="926" y="-20"/>
			<point x="1112.43" y="173.143"/>
			<point x="1112.43" y="488.857" type="curve" smooth="yes"/>
			<point x="1112.43" y="781.286"/>
			<point x="957.286" y="953.286"/>
			<point x="697.286" y="953.286" type="curve" smooth="yes"/>
			<point x="518.429" y="953.286"/>
			<point x="420.143" y="864.714"/>
			<point x="368.571" y="763.286" type="curve"/>
			<point x="358.571" y="763.286" type="line"/>
			<point x="370.857" y="1086.86"/>
			<point x="500.857" y="1250.29"/>
			<point x="805.571" y="1250.29" type="curve" smooth="yes"/>
			<point x="899.714" y="1250.29"/>
			<point x="964.429" y="1240.14"/>
			<point x="1017.71" y="1227.86" type="curve"/>
			<point x="1017.71" y="1464.29" type="line"/>
			<point x="962.714" y="1475.57"/>
			<point x="876.143" y="1484.14"/>
			<point x="812" y="1484.14" type="curve" smooth="yes"/>
			<point x="248.857" y="1484.14"/>
			<point x="89.7143" y="1097.14"/>
		</contour>
		<contour>
			<point x="612" y="218.143" type="curve" smooth="yes"/>
			<point x="443.143" y="218.143"/>
			<point x="389.286" y="396.286"/>
			<point x="389.286" y="516.571" type="curve" smooth="yes"/>
			<point x="389.286" y="611.714"/>
			<point x="473.429" y="720.857"/>
			<point x="618" y="720.857" type="curve" smooth="yes"/>
			<point x="758.429" y="720.857"/>
			<point x="822.857" y="630"/>
			<point x="822.857" y="483.143" type="curve" smooth="yes"/>
			<point x="822.857" y="308.571"/>
			<point x="742.857" y="218.143"/>
		</contour>
	</outline>
</glyph>
<glyph name="colon" format="2">
	<unicode hex="003A"/>
	<advance width="552"/>
	<outline>
		<contour>
			<point x="111.143" y="132" type="curve" smooth="yes"/>
			<point x="111.143" y="25.5714"/>
			<point x="182.571" y="-22.4286"/>
			<point x="277.857" y="-22.4286" type="curve" smooth="yes"/>
			<point x="371.143" y="-22.4286"/>
			<point x="440.286" y="25.5714"/>
			<point x="440.286" y="132" type="curve" smooth="yes"/>
			<point x="440.286" y="242.143"/>
			<point x="371.143" y="287.429"/>
			<point x="277.857" y="287.429" type="curve" smooth="yes"/>
			<point x="182.571" y="287.429"/>
			<point x="111.143" y="242.143"/>
		</contour>
		<contour>
			<point x="111.143" y="976" type="curve" smooth="yes"/>
			<point x="111.143" y="868.143"/>
			<point x="182.571" y="820.857"/>
			<point x="277.857" y="820.857" type="curve" smooth="yes"/>
			<point x="371.143" y="820.857"/>
			<point x="440.286" y="868.143"/>
			<point x="440.286" y="976" type="curve" smooth="yes"/>
			<point x="440.286" y="1085.43"/>
			<point x="371.143" y="1130.71"/>
			<point x="277.857" y="1130.71" type="curve" smooth="yes"/>
			<point x="182.571" y="1130.71"/>
			<point x="111.143" y="1085.43"/>
		</contour>
	</outline>
</glyph>
<glyph name="greater" format="2">
	<unicode hex="003E"/>
	<advance width="1191"/>
	<outline>
		<contour>
			<point x="98.5714" y="433.857" type="line"/>
			<point x="98.5714" y="208" type="line"/>
			<point x="1089.43" y="654.429" type="line"/>
			<point x="1089.43" y="787.857" type="line"/>
			<point x="98.5714" y="1275" type="line"/>
			<point x="98.5714" y="1047.71" type="line"/>
			<point x="789.571" y="729.571" type="line"/>
		</contour>
	</outline>
</glyph>
<glyph name="question" format="2">
	<unicode hex="003F"/>
	<advance width="980"/>
	<outline>
		<contour>
			<point x="295" y="470.286" type="line"/>
			<point x="528.857" y="470.286" type="line"/>
			<point x="528.857" y="513.857" type="line" smooth="yes"/>
			<point x="528.857" y="612.714"/>
			<point x="567.571" y="658"/>
			<point x="684.571" y="734.143" type="curve" smooth="yes"/>
			<point x="852" y="844"/>
			<point x="931" y="952.143"/>
			<point x="931" y="1122.86" type="curve" smooth="yes"/>
			<point x="931" y="1345.86"/>
			<point x="763.286" y="1483"/>
			<point x="481.429" y="1483" type="curve" smooth="yes"/>
			<point x="306.143" y="1483"/>
			<point x="163.429" y="1437.57"/>
			<point x="22.2857" y="1362.14" type="curve"/>
			<point x="127.286" y="1152.71" type="line"/>
			<point x="250.571" y="1216.71"/>
			<point x="360.714" y="1249.14"/>
			<point x="461.429" y="1249.14" type="curve" smooth="yes"/>
			<point x="573.571" y="1249.14"/>
			<point x="652.429" y="1197.57"/>
			<point x="652.429" y="1099.29" type="curve" smooth="yes"/>
			<point x="652.429" y="1006.57"/>
			<point x="613.143" y="950.429"/>
			<point x="474.714" y="859.286" type="curve" smooth="yes"/>
			<point x="332.286" y="766.143"/>
			<point x="295" y="684.714"/>
			<point x="295" y="538.857" type="curve" smooth="yes"/>
		</contour>
		<contour>
			<point x="257.714" y="132" type="curve" smooth="yes"/>
			<point x="257.714" y="25.5714"/>
			<point x="328" y="-22.4286"/>
			<point x="423.286" y="-22.4286" type="curve" smooth="yes"/>
			<point x="517.286" y="-22.4286"/>
			<point x="586.857" y="25.5714"/>
			<point x="586.857" y="132" type="curve" smooth="yes"/>
			<point x="586.857" y="242.143"/>
			<point x="517.286" y="287.429"/>
			<point x="423.286" y="287.429" type="curve" smooth="yes"/>
			<point x="328" y="287.429"/>
			<point x="257.714" y="242.143"/>
		</contour>
	</outline>
</glyph>
<glyph name="F" format="2">
	<unicode hex="0046"/>
	<advance width="1077"/>
	<outline>
		<contour>
			<point x="466.143" y="0" type="line"/>
			<point x="466.143" y="584.714" type="line"/>
			<point x="978.714" y="584.714" type="line"/>
			<point x="978.714" y="825.714" type="line"/>
			<point x="466.143" y="825.714" type="line"/>
			<point x="466.143" y="1221" type="line"/>
			<point x="1016" y="1221" type="line"/>
			<point x="1016" y="1462" type="line"/>
			<point x="173.143" y="1462" type="line"/>
			<point x="173.143" y="0" type="line"/>
		</contour>
	</outline>
	<anchor name="bottom" x="539" y="0"/>
	<anchor name="top" x="594.571" y="1462"/>
	<anchor name="topright" x="1035.57" y="1462"/>
</glyph>
<glyph name="I" format="2">
	<unicode hex="0049"/>
	<advance width="645"/>
	<outline>
		<contour>
			<point x="173.143" y="0" type="line"/>
			<point x="471.857" y="0" type="line"/>
			<point x="471.857" y="1462" type="line"/>
			<point x="173.143" y="1462" type="line"/>
		</contour>
	</outline>
	<anchor name="bottom" x="322.286" y="0"/>
	<anchor name="top" x="322.286" y="1462"/>
	<anchor name="topright" x="587.714" y="1462"/>
</glyph>
<glyph name="J" format="2">
	<unicode hex="004A"/>
	<advance width="650"/>
	<outline>
		<contour>
			<point x="19.5714" y="-429.571" type="curve" smooth="yes"/>
			<point x="304.286" y="-429.571"/>
			<point x="479.286" y="-269"/>
			<point x="479.286" y="103.286" type="curve" smooth="yes"/>
			<point x="479.286" y="1462" type="line"/>
			<point x="180.571" y="1462" type="line"/>
			<point x="180.571" y="80.7143" type="line" smooth="yes"/>
			<point x="180.571" y="-97.4286"/>
			<point x="134.429" y="-195.143"/>
			<point x="-22.5714" y="-195.143" type="curve" smooth="yes"/>
			<point x="-80.5714" y="-195.143"/>
			<point x="-131.857" y="-182.429"/>
			<point x="-173.143" y="-171.857" type="curve"/>
			<point x="-173.143" y="-407.714" type="line"/>
			<point x="-128.143" y="-419"/>
			<point x="-66.4286" y="-429.571"/>
		</contour>
	</outline>
	<anchor name="bottom" x="19.5714" y="-394.571"/>
	<anchor name="top" x="326.857" y="1462"/>
	<anchor name="topright" x="609.143" y="1462"/>
</glyph>
<glyph name="K" format="2">
	<unicode hex="004B"/>
	<advance width="1332"/>
	<outline>
		<contour>
			<point x="1331.57" y="0" type="line"/>
			<point x="830" y="820.429" type="line"/>
			<point x="1333.57" y="1462" type="line"/>
			<point x="1003" y="1462" type="line"/>
			<point x="587.714" y="944.286" type="line"/>
			<point x="547.857" y="892.286"/>
			<point x="504.286" y="835.857"/>
			<point x="471.857" y="780.429" type="curve"/>
			<point x="471.857" y="1462" type="line"/>
			<point x="173.143" y="1462" type="line"/>
			<point x="173.143" y="0" type="line"/>
			<point x="471.857" y="0" type="line"/>
			<point x="471.857" y="520.714" type="line"/>
			<point x="616.857" y="632.143" type="line"/>
			<point x="993" y="0" type="line"/>
		</contour>
	</outline>
	<anchor name="bottom" x="689.571" y="0"/>
	<anchor name="top" x="695.286" y="1462"/>
	<anchor name="topright" x="1290.57" y="1462"/>
</glyph>
<glyph name="L" format="2">
	<unicode hex="004C"/>
	<advance width="1147"/>
	<outline>
		<contour>
			<point x="173.143" y="0" type="line"/>
			<point x="1081.43" y="0" type="line"/>
			<point x="1081.43" y="242.429" type="line"/>
			<point x="470.429" y="242.429" type="line"/>
			<point x="470.429" y="1462" type="line"/>
			<point x="173.143" y="1462" type="line"/>
		</contour>
	</outline>
	<anchor name="bottom" x="617.857" y="0"/>
	<anchor name="center" x="573.714" y="731"/>
	<anchor name="top" x="316.571" y="1462"/>
	<anchor name="topright" x="793" y="1462"/>
</glyph>
<glyph name="N" format="2">
	<unicode hex="004E"/>
	<advance width="1629"/>
	<outline>
		<contour>
			<point x="1454.86" y="0" type="line"/>
			<point x="1454.86" y="1462" type="line"/>
			<point x="1188" y="1462" type="line"/>
			<point x="1188" y="695.571" type="line" smooth="yes"/>
			<point x="1188" y="596.571"/>
			<point x="1193.71" y="451.286"/>
			<point x="1198.57" y="354.286" type="curve"/>
			<point x="1193.14" y="354.286" type="line"/>
			<point x="553.429" y="1462" type="line"/>
			<point x="173.143" y="1462" type="line"/>
			<point x="173.143" y="0" type="line"/>
			<point x="438.286" y="0" type="line"/>
			<point x="438.286" y="764.429" type="line" smooth="yes"/>
			<point x="438.286" y="873.429"/>
			<point x="431.143" y="1018"/>
			<point x="424.143" y="1118.86" type="curve"/>
			<point x="431.714" y="1118.86" type="line"/>
			<point x="1073.71" y="0" type="line"/>
		</contour>
	</outline>
	<anchor name="bottom" x="814.286" y="0"/>
	<anchor name="top" x="814.286" y="1462"/>
	<anchor name="topright" x="1587.57" y="1462"/>
</glyph>
<glyph name="Z" format="2">
	<unicode hex="005A"/>
	<advance width="1232"/>
	<outline>
		<contour>
			<point x="1172" y="0" type="line"/>
			<point x="1172" y="242.429" type="line"/>
			<point x="436.429" y="242.429" type="line"/>
			<point x="1153.43" y="1277.86" type="line"/>
			<point x="1153.43" y="1462" type="line"/>
			<point x="91.7143" y="1462" type="line"/>
			<point x="91.7143" y="1219.57" type="line"/>
			<point x="781.714" y="1219.57" type="line"/>
			<point x="64.7143" y="184.857" type="line"/>
			<point x="64.7143" y="0" type="line"/>
		</contour>
	</outline>
	<anchor name="bottom" x="631.286" y="0"/>
	<anchor name="top" x="629.857" y="1462"/>
	<anchor name="topright" x="1190.86" y="1462"/>
</glyph>
<glyph name="asciicircum" format="2">
	<unicode hex="005E"/>
	<advance width="1101"/>
	<outline>
		<contour>
			<point x="15.4286" y="521.143" type="line"/>
			<point x="236.857" y="521.143" type="line"/>
			<point x="540.857" y="1172.14" type="line"/>
			<point x="866.143" y="521.143" type="line"/>
			<point x="1093.71" y="521.143" type="line"/>
			<point x="602.857" y="1469.43" type="line"/>
			<point x="468" y="1469.43" type="line"/>
		</contour>
	</outline>
</glyph>
<glyph name="b" format="2">
	<unicode hex="0062"/>
	<advance width="1282"/>
	<outline>
		<contour>
			<point x="443.143" y="1556" type="line"/>
			<point x="148.429" y="1556" type="line"/>
			<point x="148.429" y="0" type="line"/>
			<point x="379.143" y="0" type="line"/>
			<point x="426" y="140.143" type="line"/>
			<point x="444.286" y="140.143" type="line"/>
			<point x="499.714" y="55.8571"/>
			<point x="585" y="-20"/>
			<point x="754.714" y="-20" type="curve" smooth="yes"/>
			<point x="1024.71" y="-20"/>
			<point x="1184.43" y="196.571"/>
			<point x="1184.43" y="562.143" type="curve" smooth="yes"/>
			<point x="1184.43" y="936.857"/>
			<point x="1023.29" y="1139"/>
			<point x="772.714" y="1139" type="curve" smooth="yes"/>
			<point x="604.286" y="1139"/>
			<point x="497.429" y="1053.29"/>
			<point x="443.143" y="942.429" type="curve"/>
			<point x="431.714" y="942.429" type="line"/>
			<point x="438" y="1007.57"/>
			<point x="443.143" y="1091.43"/>
			<point x="443.143" y="1167.14" type="curve" smooth="yes"/>
		</contour>
		<contour>
			<point x="670.571" y="905.143" type="curve" smooth="yes"/>
			<point x="814.571" y="905.143"/>
			<point x="884.429" y="790.286"/>
			<point x="884.429" y="565" type="curve" smooth="yes"/>
			<point x="884.429" y="341.286"/>
			<point x="806.857" y="219.571"/>
			<point x="664" y="219.571" type="curve" smooth="yes"/>
			<point x="506.714" y="219.571"/>
			<point x="443.143" y="328.143"/>
			<point x="443.143" y="544.429" type="curve" smooth="yes"/>
			<point x="443.143" y="589.714" type="line" smooth="yes"/>
			<point x="443.143" y="796.571"/>
			<point x="515" y="905.143"/>
		</contour>
	</outline>
	<anchor name="bottom" x="658" y="0"/>
	<anchor name="top" x="650.857" y="1556"/>
	<anchor name="topright" x="1164.86" y="1556"/>
</glyph>
<glyph name="c" format="2">
	<unicode hex="0063"/>
	<advance width="1065"/>
	<outline>
		<contour>
			<point x="641.571" y="-20" type="curve" smooth="yes"/>
			<point x="785.286" y="-20"/>
			<point x="894" y="14"/>
			<point x="980.571" y="66.5714" type="curve"/>
			<point x="980.571" y="303.286" type="line"/>
			<point x="885.571" y="248.857"/>
			<point x="774.143" y="216.714"/>
			<point x="665.143" y="216.714" type="curve" smooth="yes"/>
			<point x="491.286" y="216.714"/>
			<point x="395.286" y="335.286"/>
			<point x="395.286" y="555" type="curve" smooth="yes"/>
			<point x="395.286" y="778"/>
			<point x="504.429" y="904.571"/>
			<point x="673.714" y="904.571" type="curve" smooth="yes"/>
			<point x="757.429" y="904.571"/>
			<point x="835.143" y="881.571"/>
			<point x="925.714" y="841.714" type="curve"/>
			<point x="1010.71" y="1063" type="line"/>
			<point x="912.571" y="1110"/>
			<point x="801.286" y="1138.43"/>
			<point x="673.714" y="1138.43" type="curve" smooth="yes"/>
			<point x="334.857" y="1138.43"/>
			<point x="96" y="941.857"/>
			<point x="96" y="553.571" type="curve" smooth="yes"/>
			<point x="96" y="174.857"/>
			<point x="297" y="-20"/>
		</contour>
	</outline>
	<anchor name="bottom" x="633.857" y="0"/>
	<anchor name="top" x="607.714" y="1118.14"/>
	<anchor name="topright" x="1016.71" y="1118.14"/>
</glyph>
<glyph name="g" format="2">
	<unicode hex="0067"/>
	<advance width="1180"/>
	<outline>
		<contour>
			<point x="503.714" y="-492" type="curve" smooth="yes"/>
			<point x="899.524" y="-492"/>
			<point x="1130.29" y="-340.143"/>
			<point x="1130.29" y="-80.7143" type="curve" smooth="yes"/>
			<point x="1130.29" y="124.429"/>
			<point x="1003" y="227.714"/>
			<point x="754.714" y="227.714" type="curve" smooth="yes"/>
			<point x="566.429" y="227.714" type="line" smooth="yes"/>
			<point x="481.714" y="227.714"/>
			<point x="395" y="248.429"/>
			<point x="395" y="301.429" type="curve" smooth="yes"/>
			<point x="395" y="336.095"/>
			<point x="412.619" y="360.334"/>
			<point x="445.857" y="388.714" type="curve"/>
			<point x="472.334" y="383.191"/>
			<point x="505.857" y="380.429"/>
			<point x="546.143" y="380.429" type="curve" smooth="yes"/>
			<point x="854.714" y="380.429"/>
			<point x="1015.86" y="519.714"/>
			<point x="1015.86" y="754.857" type="curve" smooth="yes"/>
			<point x="1015.86" y="817.238"/>
			<point x="999.666" y="874.809"/>
			<point x="964.143" y="927" type="curve"/>
			<point x="1143.14" y="969.714" type="line"/>
			<point x="1143.14" y="1117.86" type="line"/>
			<point x="765.857" y="1117.86" type="line"/>
			<point x="720.429" y="1127.86"/>
			<point x="614.095" y="1138.14"/>
			<point x="562" y="1138.14" type="curve" smooth="yes"/>
			<point x="277.143" y="1138.14"/>
			<point x="111.143" y="995.048"/>
			<point x="111.143" y="759.714" type="curve" smooth="yes"/>
			<point x="111.143" y="601.238"/>
			<point x="184.048" y="489.143"/>
			<point x="305.571" y="439.143" type="curve"/>
			<point x="191.381" y="370.381"/>
			<point x="157.571" y="318.191"/>
			<point x="157.571" y="248" type="curve" smooth="yes"/>
			<point x="157.571" y="183.429"/>
			<point x="211.905" y="115.809"/>
			<point x="280.857" y="86.5714" type="curve"/>
			<point x="114.571" y="54.4764"/>
			<point x="25.7143" y="-43.905"/>
			<point x="25.7143" y="-184.857" type="curve" smooth="yes"/>
			<point x="25.7143" y="-381.524"/>
			<point x="199.048" y="-492"/>
		</contour>
		<contour>
			<point x="519.857" y="-302.571" type="curve" smooth="yes"/>
			<point x="367.571" y="-302.571"/>
			<point x="278" y="-247.857"/>
			<point x="278" y="-154.429" type="curve" smooth="yes"/>
			<point x="278" y="-57.7621"/>
			<point x="367" y="-8.42857"/>
			<point x="482.714" y="-8.42857" type="curve" smooth="yes"/>
			<point x="641.286" y="-8.42857" type="line" smooth="yes"/>
			<point x="764.571" y="-8.42857"/>
			<point x="871.714" y="-30.4286"/>
			<point x="871.714" y="-125.571" type="curve" smooth="yes"/>
			<point x="871.714" y="-249.571"/>
			<point x="705.143" y="-302.571"/>
		</contour>
		<contour>
			<point x="564.571" y="552.857" type="curve" smooth="yes"/>
			<point x="447.809" y="552.857"/>
			<point x="390.429" y="624.286"/>
			<point x="390.429" y="758" type="curve" smooth="yes"/>
			<point x="390.429" y="894.286"/>
			<point x="452.952" y="968.571"/>
			<point x="564" y="968.571" type="curve" smooth="yes"/>
			<point x="674.571" y="968.571"/>
			<point x="736.143" y="898.381"/>
			<point x="736.143" y="758" type="curve" smooth="yes"/>
			<point x="736.143" y="622.666"/>
			<point x="673.905" y="552.857"/>
		</contour>
	</outline>
	<anchor name="bottom" x="578.143" y="-492"/>
	<anchor name="top" x="563.857" y="1118.14"/>
	<anchor name="topright" x="1173.57" y="1119.86"/>
</glyph>
<glyph name="h" format="2">
	<unicode hex="0068"/>
	<advance width="1315"/>
	<outline>
		<contour>
			<point x="443.714" y="1556" type="line"/>
			<point x="149" y="1556" type="line"/>
			<point x="149" y="0" type="line"/>
			<point x="443.714" y="0" type="line"/>
			<point x="443.714" y="532.286" type="line" smooth="yes"/>
			<point x="443.714" y="775.857"/>
			<point x="521.286" y="904.571"/>
			<point x="690.143" y="904.571" type="curve" smooth="yes"/>
			<point x="812.429" y="904.571"/>
			<point x="876.571" y="818.857"/>
			<point x="876.571" y="643.429" type="curve" smooth="yes"/>
			<point x="876.571" y="0" type="line"/>
			<point x="1172.43" y="0" type="line"/>
			<point x="1172.43" y="729" type="line" smooth="yes"/>
			<point x="1172.43" y="1014.86"/>
			<point x="1006.71" y="1138.43"/>
			<point x="780.857" y="1138.43" type="curve" smooth="yes"/>
			<point x="618.714" y="1138.43"/>
			<point x="510.286" y="1073.71"/>
			<point x="445.143" y="953.286" type="curve"/>
			<point x="430.857" y="953.286" type="line"/>
			<point x="436" y="1013"/>
			<point x="443.714" y="1106.14"/>
			<point x="443.714" y="1243.86" type="curve" smooth="yes"/>
		</contour>
	</outline>
	<anchor name="bottom" x="665.143" y="0"/>
	<anchor name="center" x="658" y="559.571"/>
	<anchor name="top" x="300.286" y="1556"/>
	<anchor name="topright" x="1205.86" y="1556"/>
</glyph>
<glyph name="i" format="2">
	<unicode hex="0069"/>
	<advance width="597"/>
	<outline>
		<contour>
			<point x="445.143" y="1118.14" type="line"/>
			<point x="150.429" y="1118.14" type="line"/>
			<point x="150.429" y="0" type="line"/>
			<point x="445.143" y="0" type="line"/>
		</contour>
		<contour>
			<point x="298.857" y="1557" type="curve" smooth="yes"/>
			<point x="205" y="1557"/>
			<point x="136.429" y="1523.14"/>
			<point x="136.429" y="1414.43" type="curve" smooth="yes"/>
			<point x="136.429" y="1308"/>
			<point x="205" y="1273.57"/>
			<point x="298.857" y="1273.57" type="curve" smooth="yes"/>
			<point x="392.857" y="1273.57"/>
			<point x="463.857" y="1308"/>
			<point x="463.857" y="1414.43" type="curve" smooth="yes"/>
			<point x="463.857" y="1523.14"/>
			<point x="392.857" y="1557"/>
		</contour>
	</outline>
	<anchor name="bottom" x="303.714" y="0"/>
	<anchor name="top" x="299.429" y="1557"/>
	<anchor name="topright" x="555.857" y="1557"/>
</glyph>
<glyph name="j" format="2">
	<unicode hex="006A"/>
	<advance width="595"/>
	<outline>
		<contour>
			<point x="82.2857" y="-492" type="curve" smooth="yes"/>
			<point x="338.286" y="-492"/>
			<point x="443.714" y="-329.857"/>
			<point x="443.714" y="-136" type="curve" smooth="yes"/>
			<point x="443.714" y="1118.14" type="line"/>
			<point x="149" y="1118.14" type="line"/>
			<point x="149" y="-75.1429" type="line" smooth="yes"/>
			<point x="149" y="-209.286"/>
			<point x="94.5714" y="-254.286"/>
			<point x="18" y="-254.286" type="curve" smooth="yes"/>
			<point x="-25.8571" y="-254.286"/>
			<point x="-61" y="-248.857"/>
			<point x="-103.429" y="-235.143" type="curve"/>
			<point x="-103.429" y="-468.143" type="line"/>
			<point x="-56.4286" y="-481.571"/>
			<point x="22.4286" y="-492"/>
		</contour>
		<contour>
			<point x="135" y="1414.43" type="curve" smooth="yes"/>
			<point x="135" y="1308"/>
			<point x="203.571" y="1273.57"/>
			<point x="297.429" y="1273.57" type="curve" smooth="yes"/>
			<point x="391.429" y="1273.57"/>
			<point x="462.429" y="1308"/>
			<point x="462.429" y="1414.43" type="curve" smooth="yes"/>
			<point x="462.429" y="1523.14"/>
			<point x="391.429" y="1557"/>
			<point x="297.429" y="1557" type="curve" smooth="yes"/>
			<point x="203.571" y="1557"/>
			<point x="135" y="1523.14"/>
		</contour>
	</outline>
	<anchor name="bottom" x="82.2857" y="-492"/>
	<anchor name="top" x="298" y="1557"/>
	<anchor name="topright" x="555.857" y="1557"/>
</glyph>
<glyph name="k" format="2">
	<unicode hex="006B"/>
	<advance width="1230"/>
	<outline>
		<contour>
			<point x="445.143" y="1556" type="line"/>
			<point x="149" y="1556" type="line"/>
			<point x="149" y="0" type="line"/>
			<point x="445.143" y="0" type="line"/>
			<point x="445.143" y="321.286" type="line"/>
			<point x="594.143" y="455.714" type="line"/>
			<point x="895.571" y="0" type="line"/>
			<point x="1232.86" y="0" type="line"/>
			<point x="802.571" y="641" type="line"/>
			<point x="1203.29" y="1118.14" type="line"/>
			<point x="871.857" y="1118.14" type="line"/>
			<point x="554.143" y="737.571" type="line" smooth="yes"/>
			<point x="514.857" y="690"/>
			<point x="469.571" y="622.571"/>
			<point x="433.714" y="573.857" type="curve"/>
			<point x="428.857" y="573.857" type="line"/>
			<point x="439.429" y="677"/>
			<point x="445.143" y="796.286"/>
			<point x="445.143" y="899.429" type="curve" smooth="yes"/>
		</contour>
	</outline>
	<anchor name="bottom" x="615.714" y="0"/>
	<anchor name="top" x="299.429" y="1556"/>
	<anchor name="topright" x="1218.29" y="1556"/>
</glyph>
<glyph name="l" format="2">
	<unicode hex="006C"/>
	<advance width="594"/>
	<outline>
		<contour>
			<point x="444.286" y="0" type="line"/>
			<point x="444.286" y="1556" type="line"/>
			<point x="149.571" y="1556" type="line"/>
			<point x="149.571" y="0" type="line"/>
		</contour>
	</outline>
	<anchor name="bottom" x="298" y="0"/>
	<anchor name="center" x="298" y="559.571"/>
	<anchor name="top" x="298" y="1556"/>
	<anchor name="topright" x="515.857" y="1556"/>
</glyph>
<glyph name="n" format="2">
	<unicode hex="006E"/>
	<advance width="1315"/>
	<outline>
		<contour>
			<point x="783.714" y="1138.43" type="curve" smooth="yes"/>
			<point x="603.714" y="1138.43"/>
			<point x="488.429" y="1058.29"/>
			<point x="424.286" y="946.143" type="curve"/>
			<point x="412.429" y="946.143" type="line"/>
			<point x="372" y="1118.14" type="line"/>
			<point x="149" y="1118.14" type="line"/>
			<point x="149" y="0" type="line"/>
			<point x="443.714" y="0" type="line"/>
			<point x="443.714" y="530.857" type="line" smooth="yes"/>
			<point x="443.714" y="775.857"/>
			<point x="517" y="904.571"/>
			<point x="690.143" y="904.571" type="curve" smooth="yes"/>
			<point x="815.286" y="904.571"/>
			<point x="878" y="818.857"/>
			<point x="878" y="643.429" type="curve" smooth="yes"/>
			<point x="878" y="0" type="line"/>
			<point x="1172.43" y="0" type="line"/>
			<point x="1172.43" y="729" type="line" smooth="yes"/>
			<point x="1172.43" y="1013.43"/>
			<point x="1016.71" y="1138.43"/>
		</contour>
	</outline>
	<anchor name="bottom" x="658" y="0"/>
	<anchor name="top" x="658" y="1118.14"/>
	<anchor name="topright" x="1254.43" y="1118.14"/>
</glyph>
<glyph name="o" format="2">
	<unicode hex="006F"/>
	<advance width="1269"/>
	<outline>
		<contour>
			<point x="1170.71" y="561" type="curve" smooth="yes"/>
			<point x="1170.71" y="918.286"/>
			<point x="964.714" y="1138.43"/>
			<point x="638.714" y="1138.43" type="curve" smooth="yes"/>
			<point x="299.857" y="1138.43"/>
			<point x="96" y="927.143"/>
			<point x="96" y="561" type="curve" smooth="yes"/>
			<point x="96" y="198.286"/>
			<point x="308.286" y="-20"/>
			<point x="631" y="-20" type="curve" smooth="yes"/>
			<point x="974.143" y="-20"/>
			<point x="1170.71" y="199.429"/>
		</contour>
		<contour>
			<point x="395.286" y="561" type="curve" smooth="yes"/>
			<point x="395.286" y="790"/>
			<point x="473.714" y="916"/>
			<point x="635.857" y="916" type="curve" smooth="yes"/>
			<point x="806.286" y="916"/>
			<point x="870.429" y="779.429"/>
			<point x="870.429" y="561" type="curve" smooth="yes"/>
			<point x="870.429" y="337.571"/>
			<point x="802" y="201.714"/>
			<point x="633.857" y="201.714" type="curve" smooth="yes"/>
			<point x="466.857" y="201.714"/>
			<point x="395.286" y="336.429"/>
		</contour>
	</outline>
	<anchor name="bottom" x="632.143" y="0"/>
	<anchor name="center" x="635" y="559.571"/>
	<anchor name="top" x="635" y="1118.14"/>
	<anchor name="topright" x="1227.71" y="1118.14"/>
</glyph>
<glyph name="s" format="2">
	<unicode hex="0073"/>
	<advance width="1024"/>
	<outline>
		<contour>
			<point x="938.429" y="326.857" type="curve" smooth="yes"/>
			<point x="938.429" y="528.143"/>
			<point x="818.429" y="600.143"/>
			<point x="626.286" y="673.857" type="curve" smooth="yes"/>
			<point x="444.571" y="742.571"/>
			<point x="376.429" y="761"/>
			<point x="376.429" y="839.714" type="curve" smooth="yes"/>
			<point x="376.429" y="902.571"/>
			<point x="436" y="935.286"/>
			<point x="535.571" y="935.286" type="curve" smooth="yes"/>
			<point x="615.286" y="935.286"/>
			<point x="740.571" y="904.571"/>
			<point x="842.286" y="857.571" type="curve"/>
			<point x="925" y="1052.14" type="line"/>
			<point x="799" y="1107.14"/>
			<point x="677.429" y="1138.43"/>
			<point x="534.143" y="1138.43" type="curve" smooth="yes"/>
			<point x="268" y="1138.43"/>
			<point x="94.2857" y="1028.86"/>
			<point x="94.2857" y="823.286" type="curve" smooth="yes"/>
			<point x="94.2857" y="633"/>
			<point x="203.714" y="559"/>
			<point x="393.286" y="487" type="curve" smooth="yes"/>
			<point x="580.429" y="415.857"/>
			<point x="658.857" y="389"/>
			<point x="658.857" y="308.286" type="curve" smooth="yes"/>
			<point x="658.857" y="237.286"/>
			<point x="601.857" y="197.429"/>
			<point x="468.143" y="197.429" type="curve" smooth="yes"/>
			<point x="370.429" y="197.429"/>
			<point x="218.714" y="224.143"/>
			<point x="85.7143" y="286" type="curve"/>
			<point x="85.7143" y="44.7143" type="line"/>
			<point x="201.571" y="-0.285714"/>
			<point x="322" y="-20"/>
			<point x="480.286" y="-20" type="curve" smooth="yes"/>
			<point x="803.429" y="-20"/>
			<point x="938.429" y="121.286"/>
		</contour>
	</outline>
	<anchor name="bottom" x="501.143" y="0"/>
	<anchor name="top" x="501.143" y="1118.14"/>
	<anchor name="topright" x="983.429" y="1118.14"/>
</glyph>
<glyph name="w" format="2">
	<unicode hex="0077"/>
	<advance width="1732"/>
	<outline>
		<contour>
			<point x="1088.86" y="-0.571429" type="line"/>
			<point x="1400.29" y="-0.571429" type="line"/>
			<point x="1705" y="1117.57" type="line"/>
			<point x="1420.57" y="1117.57" type="line"/>
			<point x="1291.14" y="589.714" type="line" smooth="yes"/>
			<point x="1267.29" y="493.714"/>
			<point x="1247" y="353.429"/>
			<point x="1239" y="256.857" type="curve"/>
			<point x="1233.57" y="256.857" type="line"/>
			<point x="1220.86" y="350.571"/>
			<point x="1193.71" y="484.857"/>
			<point x="1172.14" y="570.571" type="curve" smooth="yes"/>
			<point x="1033.86" y="1117.57" type="line"/>
			<point x="713" y="1117.57" type="line"/>
			<point x="564.857" y="574" type="line" smooth="yes"/>
			<point x="547.429" y="510.714"/>
			<point x="514.714" y="352"/>
			<point x="505.857" y="256.857" type="curve"/>
			<point x="500.429" y="256.857" type="line"/>
			<point x="491.857" y="352"/>
			<point x="470.571" y="485.714"/>
			<point x="446.286" y="589.714" type="curve"/>
			<point x="319.143" y="1117.57" type="line"/>
			<point x="27.2857" y="1117.57" type="line"/>
			<point x="337.429" y="-0.571429" type="line"/>
			<point x="643.857" y="-0.571429" type="line"/>
			<point x="801.429" y="570.714" type="line"/>
			<point x="827.286" y="672.857"/>
			<point x="854" y="812.286"/>
			<point x="865.714" y="877.714" type="curve"/>
			<point x="871.143" y="877.714" type="line"/>
			<point x="882.571" y="812.286"/>
			<point x="906.714" y="674.571"/>
			<point x="930.143" y="581.429" type="curve"/>
		</contour>
	</outline>
	<anchor name="bottom" x="862" y="0"/>
	<anchor name="top" x="866.286" y="1118.14"/>
	<anchor name="topright" x="1691.29" y="1118.14"/>
</glyph>
<glyph name="z" format="2">
	<unicode hex="007A"/>
	<advance width="1008"/>
	<outline>
		<contour>
			<point x="946.143" y="0" type="line"/>
			<point x="946.143" y="228.143" type="line"/>
			<point x="413.714" y="228.143" type="line"/>
			<point x="932.143" y="936.714" type="line"/>
			<point x="932.143" y="1118.14" type="line"/>
			<point x="94" y="1118.14" type="line"/>
			<point x="94" y="890" type="line"/>
			<point x="590.571" y="890" type="line"/>
			<point x="59" y="169.286" type="line"/>
			<point x="59" y="0" type="line"/>
		</contour>
	</outline>
	<anchor name="bottom" x="506.286" y="0"/>
	<anchor name="top" x="504.857" y="1118.14"/>
	<anchor name="topright" x="953" y="1118.14"/>
</glyph>
<glyph name="braceleft" format="2">
	<unicode hex="007B"/>
	<advance width="831"/>
	<outline>
		<contour>
			<point x="761.857" y="-338.286" type="curve"/>
			<point x="761.857" y="-124.857" type="line"/>
			<point x="649.286" y="-122.714"/>
			<point x="546.143" y="-99.5714"/>
			<point x="546.143" y="17.5714" type="curve" smooth="yes"/>
			<point x="546.143" y="315.286" type="line" smooth="yes"/>
			<point x="546.143" y="466.714"/>
			<point x="474.429" y="540.714"/>
			<point x="328.429" y="564.143" type="curve"/>
			<point x="328.429" y="573.857" type="line"/>
			<point x="471.571" y="595.429"/>
			<point x="546.143" y="669.429"/>
			<point x="546.143" y="827" type="curve" smooth="yes"/>
			<point x="546.143" y="1119.71" type="line" smooth="yes"/>
			<point x="546.143" y="1239.71"/>
			<point x="647.857" y="1261.71"/>
			<point x="761.857" y="1263.14" type="curve"/>
			<point x="761.857" y="1477" type="line"/>
			<point x="393.857" y="1477"/>
			<point x="299" y="1372.57"/>
			<point x="299" y="1155.29" type="curve" smooth="yes"/>
			<point x="299" y="873.857" type="line" smooth="yes"/>
			<point x="299" y="734"/>
			<point x="196.286" y="683.286"/>
			<point x="58.7143" y="683.286" type="curve"/>
			<point x="58.7143" y="454.286" type="line"/>
			<point x="193.429" y="454.286"/>
			<point x="299" y="400.143"/>
			<point x="299" y="263.714" type="curve" smooth="yes"/>
			<point x="299" y="-13.4286" type="line" smooth="yes"/>
			<point x="299" y="-235.714"/>
			<point x="398.143" y="-338.286"/>
		</contour>
	</outline>
</glyph>
<glyph name="exclamdown" format="2">
	<unicode hex="00A1"/>
	<advance width="555"/>
	<outline>
		<contour>
			<point x="152.429" y="644.286" type="line"/>
			<point x="114.857" y="-347.429" type="line"/>
			<point x="439.714" y="-347.429" type="line"/>
			<point x="402.143" y="644.286" type="line"/>
		</contour>
		<contour>
			<point x="444.571" y="983.286" type="curve" smooth="yes"/>
			<point x="444.571" y="1089.71"/>
			<point x="372.857" y="1137.29"/>
			<point x="279" y="1137.29" type="curve" smooth="yes"/>
			<point x="184.286" y="1137.29"/>
			<point x="115.429" y="1089.71"/>
			<point x="115.429" y="983.286" type="curve" smooth="yes"/>
			<point x="115.429" y="872.429"/>
			<point x="184.286" y="827.429"/>
			<point x="279" y="827.429" type="curve" smooth="yes"/>
			<point x="372.857" y="827.429"/>
			<point x="444.571" y="872.429"/>
		</contour>
	</outline>
</glyph>
<glyph name="currency" format="2">
	<unicode hex="00A4"/>
	<advance width="1161"/>
	<outline>
		<contour>
			<point x="177.714" y="723.571" type="curve" smooth="yes"/>
			<point x="177.714" y="649.857"/>
			<point x="197" y="582.286"/>
			<point x="236.143" y="521" type="curve"/>
			<point x="103.429" y="390.286" type="line"/>
			<point x="239.143" y="253.714" type="line"/>
			<point x="369.857" y="381.571" type="line"/>
			<point x="430.714" y="342.286"/>
			<point x="500.857" y="325.143"/>
			<point x="574.143" y="325.143" type="curve" smooth="yes"/>
			<point x="647.857" y="325.143"/>
			<point x="720" y="346.571"/>
			<point x="779.429" y="383" type="curve"/>
			<point x="910.286" y="252.286" type="line"/>
			<point x="1047.57" y="388.857" type="line"/>
			<point x="915.429" y="519.571" type="line"/>
			<point x="955.143" y="580.857"/>
			<point x="974.429" y="648.429"/>
			<point x="974.429" y="723.571" type="curve" smooth="yes"/>
			<point x="974.429" y="796.571"/>
			<point x="953.714" y="872"/>
			<point x="915.429" y="929" type="curve"/>
			<point x="1051.29" y="1063.43" type="line"/>
			<point x="910.286" y="1197.14" type="line"/>
			<point x="779.429" y="1061.29" type="line"/>
			<point x="715.714" y="1103.43"/>
			<point x="647.857" y="1123.43"/>
			<point x="574.143" y="1123.43" type="curve" smooth="yes"/>
			<point x="508" y="1123.43"/>
			<point x="432.143" y="1102"/>
			<point x="372.714" y="1064.14" type="curve"/>
			<point x="239.143" y="1197.71" type="line"/>
			<point x="102" y="1058.29" type="line"/>
			<point x="236.143" y="927.571" type="line"/>
			<point x="199.857" y="869.143"/>
			<point x="177.714" y="796.571"/>
		</contour>
		<contour>
			<point x="373.429" y="723.571" type="curve" smooth="yes"/>
			<point x="373.429" y="837.286"/>
			<point x="465.143" y="926.286"/>
			<point x="574.714" y="926.286" type="curve" smooth="yes"/>
			<point x="687" y="926.286"/>
			<point x="780.143" y="836.714"/>
			<point x="780.143" y="724.143" type="curve" smooth="yes"/>
			<point x="780.143" y="612.429"/>
			<point x="687" y="522.286"/>
			<point x="573.571" y="522.286" type="curve" smooth="yes"/>
			<point x="465.714" y="522.286"/>
			<point x="373.429" y="609.571"/>
		</contour>
	</outline>
</glyph>
<glyph name="section" format="2">
	<unicode hex="00A7"/>
	<advance width="1035"/>
	<outline>
		<contour>
			<point x="123.714" y="804.714" type="curve" smooth="yes"/>
			<point x="123.714" y="614.571"/>
			<point x="264.286" y="542.571"/>
			<point x="456.571" y="464" type="curve"/>
			<point x="609.143" y="404.429"/>
			<point x="668" y="367.429"/>
			<point x="668" y="287" type="curve" smooth="yes"/>
			<point x="668" y="207.714"/>
			<point x="615" y="154.143"/>
			<point x="472.714" y="154.143" type="curve" smooth="yes"/>
			<point x="371.857" y="154.143"/>
			<point x="234.429" y="194"/>
			<point x="121.571" y="253.571" type="curve"/>
			<point x="121.571" y="62.4286" type="line"/>
			<point x="213.286" y="12.2857"/>
			<point x="332.571" y="-18.4286"/>
			<point x="471.286" y="-18.4286" type="curve" smooth="yes"/>
			<point x="752" y="-18.4286"/>
			<point x="893.857" y="113.857"/>
			<point x="893.857" y="292.714" type="curve" smooth="yes"/>
			<point x="893.857" y="404.286"/>
			<point x="836" y="479.857"/>
			<point x="754.286" y="532.143" type="curve"/>
			<point x="838.286" y="585.143"/>
			<point x="914" y="661.143"/>
			<point x="914" y="796.429" type="curve" smooth="yes"/>
			<point x="914" y="945.429"/>
			<point x="794.143" y="1034"/>
			<point x="578" y="1117.57" type="curve" smooth="yes"/>
			<point x="433.286" y="1172.86"/>
			<point x="369.429" y="1213.57"/>
			<point x="369.429" y="1286" type="curve" smooth="yes"/>
			<point x="369.429" y="1361"/>
			<point x="430.143" y="1398.57"/>
			<point x="534" y="1398.57" type="curve" smooth="yes"/>
			<point x="623.714" y="1398.57"/>
			<point x="730.143" y="1364.43"/>
			<point x="813.857" y="1320.29" type="curve"/>
			<point x="890.429" y="1492.14" type="line"/>
			<point x="793.571" y="1537.14"/>
			<point x="669.143" y="1570.43"/>
			<point x="536.143" y="1570.43" type="curve" smooth="yes"/>
			<point x="286.286" y="1570.43"/>
			<point x="143.571" y="1455.14"/>
			<point x="143.571" y="1286" type="curve" smooth="yes"/>
			<point x="143.571" y="1175.71"/>
			<point x="203.714" y="1104.86"/>
			<point x="304" y="1045.43" type="curve"/>
			<point x="209.429" y="998.143"/>
			<point x="123.714" y="917"/>
		</contour>
		<contour>
			<point x="346.714" y="826.857" type="curve" smooth="yes"/>
			<point x="346.714" y="902.714"/>
			<point x="397.429" y="946.286"/>
			<point x="456.714" y="967.714" type="curve"/>
			<point x="622" y="909"/>
			<point x="690.714" y="853.571"/>
			<point x="690.714" y="760" type="curve" smooth="yes"/>
			<point x="690.714" y="687.714"/>
			<point x="653.429" y="638.286"/>
			<point x="607.714" y="609.857" type="curve"/>
			<point x="553.286" y="631" type="line"/>
			<point x="421.857" y="691.286"/>
			<point x="346.714" y="732"/>
		</contour>
	</outline>
</glyph>
<glyph name="ordfeminine" format="2">
	<unicode hex="00AA"/>
	<advance width="769"/>
	<outline>
		<contour>
			<point x="410.286" y="1479" type="curve" smooth="yes"/>
			<point x="272.286" y="1479"/>
			<point x="193.571" y="1450.29"/>
			<point x="103.143" y="1406.43" type="curve"/>
			<point x="163.429" y="1273.86" type="line"/>
			<point x="242.857" y="1311.71"/>
			<point x="297.571" y="1327.71"/>
			<point x="369" y="1327.71" type="curve" smooth="yes"/>
			<point x="444.286" y="1327.71"/>
			<point x="485.286" y="1298"/>
			<point x="485.286" y="1227.43" type="curve" smooth="yes"/>
			<point x="485.286" y="1204.86" type="line"/>
			<point x="395.857" y="1200.86" type="line" smooth="yes"/>
			<point x="175.429" y="1190.86"/>
			<point x="59" y="1136.14"/>
			<point x="59" y="975" type="curve" smooth="yes"/>
			<point x="59" y="824.714"/>
			<point x="155.429" y="753.571"/>
			<point x="285.857" y="753.571" type="curve" smooth="yes"/>
			<point x="400.143" y="753.571"/>
			<point x="465.857" y="800"/>
			<point x="516.857" y="882.857" type="curve"/>
			<point x="551.286" y="764.429" type="line"/>
			<point x="680.429" y="764.429" type="line"/>
			<point x="680.429" y="1214" type="line" smooth="yes"/>
			<point x="680.429" y="1388.57"/>
			<point x="575.143" y="1479"/>
		</contour>
		<contour>
			<point x="485.286" y="1092.43" type="line"/>
			<point x="485.286" y="1056.14" type="line" smooth="yes"/>
			<point x="485.286" y="968.143"/>
			<point x="439.429" y="898.143"/>
			<point x="349.286" y="898.143" type="curve" smooth="yes"/>
			<point x="288.571" y="898.143"/>
			<point x="254.714" y="928.286"/>
			<point x="254.714" y="983.571" type="curve" smooth="yes"/>
			<point x="254.714" y="1042"/>
			<point x="288.714" y="1080.43"/>
			<point x="398.143" y="1087" type="curve" smooth="yes"/>
		</contour>
	</outline>
	<anchor name="bottom" x="369.571" y="758.429"/>
	<anchor name="top" x="375.571" y="1485"/>
</glyph>
<glyph name="logicalnot" format="2">
	<unicode hex="00AC"/>
	<advance width="1191"/>
	<outline>
		<contour>
			<point x="1081.43" y="825.143" type="line"/>
			<point x="98" y="825.143" type="line"/>
			<point x="98" y="619.429" type="line"/>
			<point x="874.571" y="619.429" type="line"/>
			<point x="874.571" y="247.143" type="line"/>
			<point x="1081.43" y="247.143" type="line"/>
		</contour>
	</outline>
</glyph>
<glyph name="registered" format="2">
	<unicode hex="00AE"/>
	<advance width="1693"/>
	<outline>
		<contour>
			<point x="544.286" y="307.286" type="line"/>
			<point x="750.571" y="307.286" type="line"/>
			<point x="750.571" y="641.857" type="line"/>
			<point x="841.571" y="641.857" type="line"/>
			<point x="1009.57" y="307.286" type="line"/>
			<point x="1227" y="307.286" type="line"/>
			<point x="1021.57" y="675.429" type="line"/>
			<point x="1109.14" y="711.286"/>
			<point x="1176.86" y="780.286"/>
			<point x="1176.86" y="918.571" type="curve" smooth="yes"/>
			<point x="1176.86" y="1090.57"/>
			<point x="1063.57" y="1181.43"/>
			<point x="812.714" y="1181.43" type="curve" smooth="yes"/>
			<point x="544.286" y="1181.43" type="line"/>
		</contour>
		<contour>
			<point x="749.714" y="780.429" type="line"/>
			<point x="749.714" y="1028.14" type="line"/>
			<point x="813" y="1028.14" type="line" smooth="yes"/>
			<point x="906.857" y="1028.14"/>
			<point x="970" y="1001.86"/>
			<point x="970" y="910.714" type="curve" smooth="yes"/>
			<point x="970" y="816.286"/>
			<point x="904.571" y="780.429"/>
			<point x="810.429" y="780.429" type="curve" smooth="yes"/>
		</contour>
		<contour>
			<point x="846.286" y="-18.8571" type="curve" smooth="yes"/>
			<point x="1275.43" y="-18.8571"/>
			<point x="1597" y="301.857"/>
			<point x="1597" y="731" type="curve" smooth="yes"/>
			<point x="1597" y="1153"/>
			<point x="1282.29" y="1481.86"/>
			<point x="846.286" y="1481.86" type="curve" smooth="yes"/>
			<point x="418.286" y="1481.86"/>
			<point x="94.8571" y="1164.14"/>
			<point x="94.8571" y="731" type="curve" smooth="yes"/>
			<point x="94.8571" y="302.714"/>
			<point x="409.714" y="-18.8571"/>
		</contour>
		<contour>
			<point x="846.286" y="112.143" type="curve" smooth="yes"/>
			<point x="486" y="112.143"/>
			<point x="238.857" y="375.571"/>
			<point x="238.857" y="731" type="curve" smooth="yes"/>
			<point x="238.857" y="1088.71"/>
			<point x="493.143" y="1349.86"/>
			<point x="846.286" y="1349.86" type="curve" smooth="yes"/>
			<point x="1198.86" y="1349.86"/>
			<point x="1450.14" y="1085.29"/>
			<point x="1450.14" y="731" type="curve" smooth="yes"/>
			<point x="1450.14" y="377.857"/>
			<point x="1198.86" y="112.143"/>
		</contour>
	</outline>
</glyph>
<glyph name="degree" format="2">
	<unicode hex="00B0"/>
	<advance width="868"/>
	<outline>
		<contour>
			<point x="433.714" y="793.714" type="curve" smooth="yes"/>
			<point x="635.286" y="793.714"/>
			<point x="781" y="932.429"/>
			<point x="781" y="1136.86" type="curve" smooth="yes"/>
			<point x="781" y="1337.57"/>
			<point x="635.286" y="1483"/>
			<point x="433.714" y="1483" type="curve" smooth="yes"/>
			<point x="232.714" y="1483"/>
			<point x="86.4286" y="1338.71"/>
			<point x="86.4286" y="1136.86" type="curve" smooth="yes"/>
			<point x="86.4286" y="932.429"/>
			<point x="233.286" y="793.714"/>
		</contour>
		<contour>
			<point x="433.143" y="977.571" type="curve" smooth="yes"/>
			<point x="335.143" y="977.571"/>
			<point x="272.429" y="1042.86"/>
			<point x="272.429" y="1136.86" type="curve" smooth="yes"/>
			<point x="272.429" y="1234.86"/>
			<point x="335.143" y="1299.86"/>
			<point x="433.143" y="1299.86" type="curve" smooth="yes"/>
			<point x="530" y="1299.86"/>
			<point x="595.286" y="1234.86"/>
			<point x="595.286" y="1136.86" type="curve" smooth="yes"/>
			<point x="595.286" y="1042.86"/>
			<point x="530" y="977.571"/>
		</contour>
	</outline>
</glyph>
<glyph name="plusminus" format="2">
	<unicode hex="00B1"/>
	<advance width="1191"/>
	<outline>
		<component base="plus" xyScale="0" yOffset="62.8571"/>
		<contour>
			<point x="98" y="0" type="line"/>
			<point x="1091.43" y="0" type="line"/>
			<point x="1091.43" y="205.429" type="line"/>
			<point x="98" y="205.429" type="line"/>
		</contour>
	</outline>
</glyph>
<glyph name="twosuperior" format="2">
	<unicode hex="00B2"/>
	<advance width="776"/>
	<outline>
		<contour>
			<point x="715.429" y="852" type="line"/>
			<point x="715.429" y="1027.29" type="line"/>
			<point x="325.286" y="1027.29" type="line"/>
			<point x="432.714" y="1128.71" type="line"/>
			<point x="575.429" y="1257.57"/>
			<point x="693.286" y="1359.71"/>
			<point x="693.286" y="1514.43" type="curve" smooth="yes"/>
			<point x="693.286" y="1654.43"/>
			<point x="595" y="1751"/>
			<point x="407.429" y="1751" type="curve" smooth="yes"/>
			<point x="252.857" y="1751"/>
			<point x="154.857" y="1703.71"/>
			<point x="68.7143" y="1627.71" type="curve"/>
			<point x="177.857" y="1497.43" type="line"/>
			<point x="253.571" y="1565.14"/>
			<point x="310" y="1584.29"/>
			<point x="366.714" y="1584.29" type="curve" smooth="yes"/>
			<point x="434" y="1584.29"/>
			<point x="471.143" y="1548.29"/>
			<point x="471.143" y="1491.57" type="curve" smooth="yes"/>
			<point x="471.143" y="1425.71"/>
			<point x="420" y="1362.86"/>
			<point x="295.571" y="1238" type="curve" smooth="yes"/>
			<point x="70" y="1012.14" type="line"/>
			<point x="70" y="852" type="line"/>
		</contour>
	</outline>
</glyph>
<glyph name="micro" format="2">
	<unicode hex="00B5"/>
	<advance width="1322"/>
	<outline>
		<contour>
			<point x="1172.43" y="1118.14" type="line"/>
			<point x="877.143" y="1118.14" type="line"/>
			<point x="877.143" y="587.857" type="line" smooth="yes"/>
			<point x="877.143" y="348"/>
			<point x="818.429" y="215.286"/>
			<point x="645.143" y="215.286" type="curve" smooth="yes"/>
			<point x="503.857" y="215.286"/>
			<point x="443.143" y="302.714"/>
			<point x="443.143" y="478.286" type="curve" smooth="yes"/>
			<point x="443.143" y="1118.14" type="line"/>
			<point x="149" y="1118.14" type="line"/>
			<point x="149" y="-492" type="line"/>
			<point x="443.143" y="-492" type="line"/>
			<point x="443.143" y="-133.429" type="line" smooth="yes"/>
			<point x="443.143" y="-61.4286"/>
			<point x="438.857" y="30.5714"/>
			<point x="434.571" y="86.4286" type="curve"/>
			<point x="438.571" y="86.4286" type="line"/>
			<point x="479" y="17.1429"/>
			<point x="536.286" y="-20"/>
			<point x="640.857" y="-20" type="curve" smooth="yes"/>
			<point x="769.714" y="-20"/>
			<point x="850.286" y="47.2857"/>
			<point x="897.571" y="163.714" type="curve"/>
			<point x="910.143" y="163.714" type="line"/>
			<point x="949.714" y="0" type="line"/>
			<point x="1172.43" y="0" type="line"/>
		</contour>
	</outline>
</glyph>
<glyph name="periodcentered" format="2">
	<unicode hex="00B7"/>
	<advance width="552"/>
	<outline>
		<contour>
			<point x="111.143" y="700.143" type="curve" smooth="yes"/>
			<point x="111.143" y="593.714"/>
			<point x="182.571" y="545.714"/>
			<point x="277.857" y="545.714" type="curve" smooth="yes"/>
			<point x="371.143" y="545.714"/>
			<point x="440.286" y="593.714"/>
			<point x="440.286" y="700.143" type="curve" smooth="yes"/>
			<point x="440.286" y="810.286"/>
			<point x="371.143" y="855.571"/>
			<point x="277.857" y="855.571" type="curve" smooth="yes"/>
			<point x="182.571" y="855.571"/>
			<point x="111.143" y="810.286"/>
		</contour>
	</outline>
</glyph>
<glyph name="Eth" format="2">
	<unicode hex="00D0"/>
	<advance width="1478"/>
	<outline>
		<contour>
			<point x="638" y="1462" type="curve" smooth="yes"/>
			<point x="173.143" y="1462" type="line"/>
			<point x="173.143" y="846.143" type="line"/>
			<point x="32.1429" y="846.143" type="line"/>
			<point x="32.1429" y="602.714" type="line"/>
			<point x="173.143" y="602.714" type="line"/>
			<point x="173.143" y="0" type="line"/>
			<point x="601" y="0" type="line" smooth="yes"/>
			<point x="1079.43" y="0"/>
			<point x="1366.71" y="253.143"/>
			<point x="1366.71" y="757.143" type="curve" smooth="yes"/>
			<point x="1366.71" y="1212.86"/>
			<point x="1112.71" y="1462"/>
		</contour>
		<contour>
			<point x="635.143" y="1219.57" type="line" smooth="yes"/>
			<point x="924.429" y="1219.57"/>
			<point x="1058.14" y="1060.86"/>
			<point x="1058.14" y="746.571" type="curve" smooth="yes"/>
			<point x="1058.14" y="409"/>
			<point x="915.286" y="246"/>
			<point x="609.857" y="246" type="curve" smooth="yes"/>
			<point x="470.429" y="246" type="line"/>
			<point x="470.429" y="602.714" type="line"/>
			<point x="741.714" y="602.714" type="line"/>
			<point x="741.714" y="846.143" type="line"/>
			<point x="470.429" y="846.143" type="line"/>
			<point x="470.429" y="1219.57" type="line"/>
		</contour>
	</outline>
	<anchor name="bottom" x="739.714" y="0"/>
	<anchor name="top" x="739.714" y="1462"/>
</glyph>
<glyph name="Oslash" format="2">
	<unicode hex="00D8"/>
	<advance width="1607"/>
	<outline>
		<contour>
			<point x="1493.71" y="733" type="curve" smooth="yes"/>
			<point x="1493.71" y="979.857"/>
			<point x="1431.71" y="1180.29"/>
			<point x="1300.71" y="1310.71" type="curve"/>
			<point x="1395" y="1448.57" type="line"/>
			<point x="1247.57" y="1538.86" type="line"/>
			<point x="1158.14" y="1407.14" type="line"/>
			<point x="1064.43" y="1458"/>
			<point x="946.571" y="1485"/>
			<point x="807" y="1485" type="curve" smooth="yes"/>
			<point x="334.857" y="1485"/>
			<point x="111.143" y="1186"/>
			<point x="111.143" y="735" type="curve" smooth="yes"/>
			<point x="111.143" y="485"/>
			<point x="176.571" y="281.714"/>
			<point x="314.429" y="148.143" type="curve"/>
			<point x="214.714" y="4.85714" type="line"/>
			<point x="364.286" y="-93" type="line"/>
			<point x="462.857" y="53.2857" type="line"/>
			<point x="555.143" y="5.14286"/>
			<point x="668.286" y="-20"/>
			<point x="802.143" y="-20" type="curve" smooth="yes"/>
			<point x="1284.14" y="-20"/>
			<point x="1493.71" y="284.429"/>
		</contour>
		<contour>
			<point x="1180.86" y="733" type="curve" smooth="yes"/>
			<point x="1180.86" y="426.143"/>
			<point x="1072.57" y="229.571"/>
			<point x="802.714" y="229.571" type="curve" smooth="yes"/>
			<point x="724.571" y="229.571"/>
			<point x="657.857" y="248.429"/>
			<point x="607.429" y="280.571" type="curve"/>
			<point x="1120.57" y="1037.14" type="line"/>
			<point x="1160" y="962.429"/>
			<point x="1180.86" y="859"/>
		</contour>
		<contour>
			<point x="424" y="733.571" type="curve" smooth="yes"/>
			<point x="424" y="1037.57"/>
			<point x="538.857" y="1239"/>
			<point x="807" y="1239" type="curve" smooth="yes"/>
			<point x="886" y="1239"/>
			<point x="955.286" y="1217.57"/>
			<point x="1010" y="1182.71" type="curve"/>
			<point x="490.429" y="412.571" type="line"/>
			<point x="443.714" y="495.286"/>
			<point x="424" y="605.857"/>
		</contour>
	</outline>
	<anchor name="bottom" x="804.143" y="0"/>
	<anchor name="top" x="808.429" y="1462"/>
</glyph>
<glyph name="divide" format="2">
	<unicode hex="00F7"/>
	<advance width="1191"/>
	<outline>
		<contour>
			<point x="98" y="619.429" type="line"/>
			<point x="1091.43" y="619.429" type="line"/>
			<point x="1091.43" y="825.143" type="line"/>
			<point x="98" y="825.143" type="line"/>
		</contour>
		<contour>
			<point x="593.429" y="200" type="curve" smooth="yes"/>
			<point x="666" y="200"/>
			<point x="722" y="244.714"/>
			<point x="722" y="339.429" type="curve" smooth="yes"/>
			<point x="722" y="439.571"/>
			<point x="666" y="479.143"/>
			<point x="593.429" y="479.143" type="curve" smooth="yes"/>
			<point x="521.714" y="479.143"/>
			<point x="467.143" y="439.571"/>
			<point x="467.143" y="339.429" type="curve" smooth="yes"/>
			<point x="467.143" y="244.714"/>
			<point x="521.714" y="200"/>
		</contour>
		<contour>
			<point x="593.429" y="965.429" type="curve" smooth="yes"/>
			<point x="666" y="965.429"/>
			<point x="722" y="1010.14"/>
			<point x="722" y="1104.86" type="curve" smooth="yes"/>
			<point x="722" y="1205"/>
			<point x="666" y="1244.57"/>
			<point x="593.429" y="1244.57" type="curve" smooth="yes"/>
			<point x="521.714" y="1244.57"/>
			<point x="467.143" y="1205"/>
			<point x="467.143" y="1104.86" type="curve" smooth="yes"/>
			<point x="467.143" y="1010.14"/>
			<point x="521.714" y="965.429"/>
		</contour>
	</outline>
</glyph>
<glyph name="udieresis" format="2">
	<unicode hex="00FC"/>
	<advance width="1315"/>
	<outline>
		<contour>
			<point x="1165" y="1118.14" type="line"/>
			<point x="870.571" y="1118.14" type="line"/>
			<point x="870.571" y="587.286" type="line" smooth="yes"/>
			<point x="870.571" y="342.286"/>
			<point x="797" y="215.286"/>
			<point x="624.143" y="215.286" type="curve" smooth="yes"/>
			<point x="497.571" y="215.286"/>
			<point x="437.429" y="301.857"/>
			<point x="437.429" y="476" type="curve" smooth="yes"/>
			<point x="437.429" y="1118.14" type="line"/>
			<point x="143" y="1118.14" type="line"/>
			<point x="143" y="388.714" type="line" smooth="yes"/>
			<point x="143" y="107.714"/>
			<point x="302.143" y="-20"/>
			<point x="530.571" y="-20" type="curve" smooth="yes"/>
			<point x="696" y="-20"/>
			<point x="823" y="48.4286"/>
			<point x="887.143" y="165.571" type="curve"/>
			<point x="904.714" y="165.571" type="line"/>
			<point x="942" y="0" type="line"/>
			<point x="1165" y="0" type="line"/>
		</contour>
		<contour>
			<point x="295.143" y="1406.14" type="curve" smooth="yes"/>
			<point x="295.143" y="1320.43"/>
			<point x="350.857" y="1276.43"/>
			<point x="430" y="1276.43" type="curve" smooth="yes"/>
			<point x="508.571" y="1276.43"/>
			<point x="567.429" y="1320.43"/>
			<point x="567.429" y="1406.14" type="curve" smooth="yes"/>
			<point x="567.429" y="1493.14"/>
			<point x="508.571" y="1537"/>
			<point x="430" y="1537" type="curve" smooth="yes"/>
			<point x="350.857" y="1537"/>
			<point x="295.143" y="1493.14"/>
		</contour>
		<contour>
			<point x="745.571" y="1406.14" type="curve" smooth="yes"/>
			<point x="745.571" y="1320.43"/>
			<point x="801.286" y="1276.43"/>
			<point x="881.857" y="1276.43" type="curve" smooth="yes"/>
			<point x="961.143" y="1276.43"/>
			<point x="1020" y="1320.43"/>
			<point x="1020" y="1406.14" type="curve" smooth="yes"/>
			<point x="1020" y="1493.14"/>
			<point x="961.143" y="1537"/>
			<point x="881.857" y="1537" type="curve" smooth="yes"/>
			<point x="801.286" y="1537"/>
			<point x="745.571" y="1493.14"/>
		</contour>
	</outline>
	<anchor name="bottom" x="649.429" y="0"/>
	<anchor name="top" x="658" y="1537"/>
</glyph>
<glyph name="eogonek" format="2">
	<unicode hex="0119"/>
	<advance width="1220"/>
	<outline>
		<component base="e"/>
		<contour>
			<point x="858.429" y="-209.429" type="curve" smooth="yes"/>
			<point x="858.429" y="-137.571"/>
			<point x="900.857" y="-74.5714"/>
			<point x="1052.86" y="56.7143" type="curve"/>
			<point x="887.286" y="49.2857" type="line"/>
			<point x="715.286" y="-73.7143"/>
			<point x="662.571" y="-170.857"/>
			<point x="662.571" y="-264.571" type="curve" smooth="yes"/>
			<point x="662.571" y="-399"/>
			<point x="769.143" y="-478.286"/>
			<point x="907.429" y="-478.286" type="curve" smooth="yes"/>
			<point x="972.571" y="-478.286"/>
			<point x="1022.43" y="-466.714"/>
			<point x="1061.14" y="-454.429" type="curve"/>
			<point x="1061.14" y="-282.571" type="line"/>
			<point x="1033.86" y="-293.429"/>
			<point x="992.571" y="-302.286"/>
			<point x="952.429" y="-302.286" type="curve" smooth="yes"/>
			<point x="896" y="-302.286"/>
			<point x="858.429" y="-269.429"/>
		</contour>
	</outline>
	<anchor name="bottom" x="645.143" y="-478.286"/>
	<anchor name="top" x="610.143" y="1118.14"/>
</glyph>
<glyph name="Hbar" format="2">
	<unicode hex="0126"/>
	<advance width="1557"/>
	<outline>
		<contour>
			<point x="184.571" y="0" type="line"/>
			<point x="481.857" y="0" type="line"/>
			<point x="481.857" y="638" type="line"/>
			<point x="1073.43" y="638" type="line"/>
			<point x="1073.43" y="0" type="line"/>
			<point x="1372.14" y="0" type="line"/>
			<point x="1372.14" y="1083.29" type="line"/>
			<point x="1557.43" y="1083.29" type="line"/>
			<point x="1557.43" y="1264.57" type="line"/>
			<point x="1372.14" y="1264.57" type="line"/>
			<point x="1372.14" y="1462" type="line"/>
			<point x="1073.43" y="1462" type="line"/>
			<point x="1073.43" y="1264.57" type="line"/>
			<point x="481.857" y="1264.57" type="line"/>
			<point x="481.857" y="1462" type="line"/>
			<point x="184.571" y="1462" type="line"/>
			<point x="184.571" y="1264.57" type="line"/>
			<point x="0" y="1264.57" type="line"/>
			<point x="0" y="1083.29" type="line"/>
			<point x="184.571" y="1083.29" type="line"/>
		</contour>
		<contour>
			<point x="481.857" y="884.286" type="line"/>
			<point x="481.857" y="1083.29" type="line"/>
			<point x="1073.43" y="1083.29" type="line"/>
			<point x="1073.43" y="884.286" type="line"/>
		</contour>
	</outline>
	<anchor name="bottom" x="778.714" y="0"/>
	<anchor name="top" x="778.714" y="1462"/>
</glyph>
<glyph name="idotless" format="2">
	<unicode hex="0131"/>
	<advance width="597"/>
	<outline>
		<contour>
			<point x="445.143" y="0" type="line"/>
			<point x="445.143" y="1118.14" type="line"/>
			<point x="150.429" y="1118.14" type="line"/>
			<point x="150.429" y="0" type="line"/>
		</contour>
	</outline>
	<anchor name="bottom" x="298" y="0"/>
	<anchor name="top" x="299.429" y="1118.14"/>
</glyph>
<glyph name="kgreenlandic" format="2">
	<unicode hex="0138"/>
	<advance width="1230"/>
	<outline>
		<contour>
			<point x="1207.57" y="1118.14" type="line"/>
			<point x="874.714" y="1118.14" type="line"/>
			<point x="562.714" y="740.429" type="line"/>
			<point x="510.571" y="675"/>
			<point x="473.857" y="618.286"/>
			<point x="442.286" y="578.143" type="curve"/>
			<point x="437.429" y="578.143" type="line"/>
			<point x="440.857" y="652"/>
			<point x="445.143" y="740.571"/>
			<point x="445.143" y="858.714" type="curve" smooth="yes"/>
			<point x="445.143" y="1118.14" type="line"/>
			<point x="149" y="1118.14" type="line"/>
			<point x="149" y="0" type="line"/>
			<point x="445.143" y="0" type="line"/>
			<point x="445.143" y="315.571" type="line"/>
			<point x="595.571" y="450.714" type="line"/>
			<point x="899.857" y="0" type="line"/>
			<point x="1232.86" y="0" type="line"/>
			<point x="798.286" y="631" type="line"/>
		</contour>
	</outline>
	<anchor name="bottom" x="615.714" y="0"/>
	<anchor name="top" x="615.714" y="1118.14"/>
</glyph>
<glyph name="Lslash" format="2">
	<unicode hex="0141"/>
	<advance width="1187"/>
	<outline>
		<contour>
			<point x="212.429" y="0" type="line"/>
			<point x="1120.71" y="0" type="line"/>
			<point x="1120.71" y="242.429" type="line"/>
			<point x="509.714" y="242.429" type="line"/>
			<point x="509.714" y="693.286" type="line"/>
			<point x="875" y="922.857" type="line"/>
			<point x="760.429" y="1109.43" type="line"/>
			<point x="509.714" y="951.571" type="line"/>
			<point x="509.714" y="1462" type="line"/>
			<point x="212.429" y="1462" type="line"/>
			<point x="212.429" y="767.286" type="line"/>
			<point x="-16.4286" y="628.571" type="line"/>
			<point x="93.8571" y="439.143" type="line"/>
			<point x="212.429" y="509.286" type="line"/>
		</contour>
	</outline>
	<anchor name="bottom" x="617.857" y="0"/>
	<anchor name="top" x="316.571" y="1462"/>
</glyph>
<glyph name="OE" format="2">
	<unicode hex="0152"/>
	<advance width="1926"/>
	<outline>
		<contour>
			<point x="776" y="1480.14" type="curve" smooth="yes"/>
			<point x="335.714" y="1480.14"/>
			<point x="111.143" y="1184.57"/>
			<point x="111.143" y="735" type="curve" smooth="yes"/>
			<point x="111.143" y="284.429"/>
			<point x="335.429" y="-16"/>
			<point x="772.857" y="-16" type="curve" smooth="yes"/>
			<point x="842.286" y="-16"/>
			<point x="940.429" y="-9.14286"/>
			<point x="994" y="0" type="curve"/>
			<point x="1819.71" y="0" type="line"/>
			<point x="1819.71" y="244.571" type="line"/>
			<point x="1271.86" y="244.571" type="line"/>
			<point x="1271.86" y="640" type="line"/>
			<point x="1781.57" y="640" type="line"/>
			<point x="1781.57" y="881.286" type="line"/>
			<point x="1271.86" y="881.286" type="line"/>
			<point x="1271.86" y="1221" type="line"/>
			<point x="1819.71" y="1221" type="line"/>
			<point x="1819.71" y="1462" type="line"/>
			<point x="1005.43" y="1462" type="line"/>
			<point x="943" y="1473.29"/>
			<point x="848.286" y="1480.14"/>
		</contour>
		<contour>
			<point x="777.429" y="1234.14" type="curve" smooth="yes"/>
			<point x="856.857" y="1234.14"/>
			<point x="932.857" y="1219.57"/>
			<point x="973.857" y="1196.86" type="curve"/>
			<point x="973.857" y="266.571" type="line"/>
			<point x="928.286" y="244.857"/>
			<point x="853.714" y="233.571"/>
			<point x="774.286" y="233.571" type="curve" smooth="yes"/>
			<point x="536.571" y="233.571"/>
			<point x="424" y="427"/>
			<point x="424" y="733.571" type="curve" smooth="yes"/>
			<point x="424" y="1037.57"/>
			<point x="538.286" y="1234.14"/>
		</contour>
	</outline>
	<anchor name="bottom" x="964.143" y="0"/>
	<anchor name="top" x="964.143" y="1462"/>
</glyph>
<glyph name="oe" format="2">
	<unicode hex="0153"/>
	<advance width="1999"/>
	<outline>
		<contour>
			<point x="1439.14" y="1138.43" type="curve" smooth="yes"/>
			<point x="1242.43" y="1138.43"/>
			<point x="1114.57" y="1060.29"/>
			<point x="1029.43" y="943.429" type="curve"/>
			<point x="946.571" y="1064.29"/>
			<point x="817" y="1138.43"/>
			<point x="638.714" y="1138.43" type="curve" smooth="yes"/>
			<point x="299.857" y="1138.43"/>
			<point x="96" y="927.143"/>
			<point x="96" y="561" type="curve" smooth="yes"/>
			<point x="96" y="198.286"/>
			<point x="308.286" y="-20"/>
			<point x="631" y="-20" type="curve" smooth="yes"/>
			<point x="821.857" y="-20"/>
			<point x="958" y="55"/>
			<point x="1043.29" y="179.571" type="curve"/>
			<point x="1128.71" y="51.5714"/>
			<point x="1265.43" y="-20"/>
			<point x="1447.43" y="-20" type="curve" smooth="yes"/>
			<point x="1623.43" y="-20"/>
			<point x="1730.71" y="4.28571"/>
			<point x="1839.29" y="58.4286" type="curve"/>
			<point x="1839.29" y="274.857" type="line"/>
			<point x="1710.86" y="212.143"/>
			<point x="1595.57" y="193.143"/>
			<point x="1483.86" y="193.143" type="curve" smooth="yes"/>
			<point x="1283.57" y="193.143"/>
			<point x="1178.43" y="311.429"/>
			<point x="1175.29" y="485" type="curve"/>
			<point x="1902.14" y="485" type="line"/>
			<point x="1902.14" y="622.429" type="line" smooth="yes"/>
			<point x="1902.14" y="952.429"/>
			<point x="1722.57" y="1138.43"/>
		</contour>
		<contour>
			<point x="635.857" y="916" type="curve" smooth="yes"/>
			<point x="806.286" y="916"/>
			<point x="870.429" y="779.429"/>
			<point x="870.429" y="561" type="curve" smooth="yes"/>
			<point x="870.429" y="337.571"/>
			<point x="802" y="201.714"/>
			<point x="633.857" y="201.714" type="curve" smooth="yes"/>
			<point x="466.857" y="201.714"/>
			<point x="396.714" y="336.429"/>
			<point x="396.714" y="561" type="curve" smooth="yes"/>
			<point x="396.714" y="790"/>
			<point x="473.714" y="916"/>
		</contour>
		<contour>
			<point x="1422.71" y="933.857" type="curve" smooth="yes"/>
			<point x="1562.71" y="933.857"/>
			<point x="1635.57" y="822.429"/>
			<point x="1636.43" y="675.286" type="curve"/>
			<point x="1180.14" y="675.286" type="line"/>
			<point x="1194.14" y="855.143"/>
			<point x="1288.71" y="933.857"/>
		</contour>
	</outline>
	<anchor name="bottom" x="1000.29" y="0"/>
	<anchor name="top" x="1000.29" y="1118.14"/>
</glyph>
<glyph name="Tbar" format="2">
	<unicode hex="0166"/>
	<advance width="1160"/>
	<outline>
		<contour>
			<point x="431.143" y="0" type="line"/>
			<point x="728.714" y="0" type="line"/>
			<point x="728.714" y="598.429" type="line"/>
			<point x="990" y="598.429" type="line"/>
			<point x="990" y="845.143" type="line"/>
			<point x="728.714" y="845.143" type="line"/>
			<point x="728.714" y="1216.71" type="line"/>
			<point x="1122.14" y="1216.71" type="line"/>
			<point x="1122.14" y="1462" type="line"/>
			<point x="37.5714" y="1462" type="line"/>
			<point x="37.5714" y="1216.71" type="line"/>
			<point x="431.143" y="1216.71" type="line"/>
			<point x="431.143" y="845.143" type="line"/>
			<point x="172.143" y="845.143" type="line"/>
			<point x="172.143" y="598.429" type="line"/>
			<point x="431.143" y="598.429" type="line"/>
		</contour>
	</outline>
	<anchor name="bottom" x="580.857" y="0"/>
	<anchor name="top" x="580.857" y="1462"/>
</glyph>
<glyph name="Uogonek" format="2">
	<unicode hex="0172"/>
	<advance width="1524"/>
	<outline>
		<component base="U"/>
		<contour>
			<point x="1011.57" y="-200" type="curve" smooth="yes"/>
			<point x="1011.57" y="-74.7143"/>
			<point x="1099.86" y="20.1429"/>
			<point x="1210.29" y="144.857" type="curve"/>
			<point x="1042.57" y="115.571" type="line"/>
			<point x="877.714" y="-15.4286"/>
			<point x="815.286" y="-133.286"/>
			<point x="815.286" y="-246.571" type="curve" smooth="yes"/>
			<point x="815.286" y="-399.571"/>
			<point x="922.286" y="-478.286"/>
			<point x="1059.86" y="-478.286" type="curve" smooth="yes"/>
			<point x="1125" y="-478.286"/>
			<point x="1174.86" y="-466.714"/>
			<point x="1214.29" y="-454.429" type="curve"/>
			<point x="1214.29" y="-282.571" type="line"/>
			<point x="1187" y="-293.429"/>
			<point x="1137.14" y="-302.286"/>
			<point x="1101" y="-302.286" type="curve" smooth="yes"/>
			<point x="1044.86" y="-302.286"/>
			<point x="1011.57" y="-277.143"/>
		</contour>
	</outline>
	<anchor name="bottom" x="759.714" y="-478.286"/>
	<anchor name="top" x="762.571" y="1462"/>
</glyph>
<glyph name="longs" format="2">
	<unicode hex="017F"/>
	<advance width="761"/>
	<outline>
		<contour>
			<point x="594.143" y="1351.71" type="curve" smooth="yes"/>
			<point x="654.571" y="1351.71"/>
			<point x="696.714" y="1336.86"/>
			<point x="744.714" y="1322.14" type="curve"/>
			<point x="800" y="1523" type="line"/>
			<point x="737.286" y="1547.43"/>
			<point x="650" y="1567"/>
			<point x="534.143" y="1567" type="curve" smooth="yes"/>
			<point x="295.286" y="1567"/>
			<point x="149.571" y="1476.71"/>
			<point x="149.571" y="1160.14" type="curve" smooth="yes"/>
			<point x="149.571" y="0" type="line"/>
			<point x="444.286" y="0" type="line"/>
			<point x="444.286" y="1152.71" type="line" smooth="yes"/>
			<point x="444.286" y="1284.43"/>
			<point x="482.714" y="1351.71"/>
		</contour>
	</outline>
	<anchor name="bottom" x="381.714" y="0"/>
	<anchor name="top" x="460.429" y="1567"/>
</glyph>
<glyph name="uni0183" format="2">
	<unicode hex="0183"/>
	<advance width="1292"/>
	<outline>
		<contour>
			<point x="769.714" y="-20" type="curve" smooth="yes"/>
			<point x="1029" y="-20"/>
			<point x="1200.14" y="183.714"/>
			<point x="1200.14" y="562.143" type="curve" smooth="yes"/>
			<point x="1200.14" y="960.429"/>
			<point x="1029" y="1116.86"/>
			<point x="786.286" y="1116.86" type="curve" smooth="yes"/>
			<point x="611.429" y="1116.86"/>
			<point x="506" y="1026.86"/>
			<point x="458.143" y="929.571" type="curve"/>
			<point x="446" y="929.571" type="line"/>
			<point x="450.143" y="975.429"/>
			<point x="458.143" y="1057.86"/>
			<point x="458.143" y="1148.57" type="curve" smooth="yes"/>
			<point x="458.143" y="1331.43" type="line"/>
			<point x="1089.86" y="1331.43" type="line"/>
			<point x="1089.86" y="1556" type="line"/>
			<point x="159.143" y="1556" type="line"/>
			<point x="159.143" y="0" type="line"/>
			<point x="394.143" y="0" type="line"/>
			<point x="440.286" y="135.143" type="line"/>
			<point x="459.286" y="135.143" type="line"/>
			<point x="512.571" y="57.2857"/>
			<point x="594.286" y="-20"/>
		</contour>
		<contour>
			<point x="680.429" y="222.429" type="curve" smooth="yes"/>
			<point x="518.857" y="222.429"/>
			<point x="458.143" y="342.429"/>
			<point x="458.143" y="562.286" type="curve" smooth="yes"/>
			<point x="458.143" y="575.429" type="line"/>
			<point x="462.429" y="775.857"/>
			<point x="552.143" y="878.714"/>
			<point x="685.571" y="878.714" type="curve" smooth="yes"/>
			<point x="814.571" y="878.714"/>
			<point x="895.143" y="787.429"/>
			<point x="895.143" y="565" type="curve" smooth="yes"/>
			<point x="895.143" y="342.714"/>
			<point x="809.714" y="222.429"/>
		</contour>
	</outline>
	<anchor name="bottom" x="646.571" y="0"/>
	<anchor name="top" x="646.571" y="1556"/>
</glyph>
<glyph name="uni0184" format="2">
	<unicode hex="0184"/>
	<advance width="1345"/>
	<outline>
		<contour>
			<point x="713.571" y="-22.1429" type="curve" smooth="yes"/>
			<point x="1074.43" y="-22.1429"/>
			<point x="1250.43" y="162.571"/>
			<point x="1250.43" y="446.714" type="curve" smooth="yes"/>
			<point x="1250.43" y="719.571"/>
			<point x="1061.86" y="900"/>
			<point x="658.857" y="900" type="curve" smooth="yes"/>
			<point x="476.143" y="900" type="line"/>
			<point x="476.143" y="1462" type="line"/>
			<point x="174.571" y="1462" type="line"/>
			<point x="174.571" y="449.143" type="line" smooth="yes"/>
			<point x="174.571" y="120.286"/>
			<point x="367" y="-22.1429"/>
		</contour>
		<contour>
			<point x="704.143" y="226.714" type="curve" smooth="yes"/>
			<point x="552.571" y="226.714"/>
			<point x="476.143" y="304.286"/>
			<point x="476.143" y="466.143" type="curve" smooth="yes"/>
			<point x="476.143" y="651.143" type="line"/>
			<point x="616.714" y="651.143" type="line" smooth="yes"/>
			<point x="821" y="651.143"/>
			<point x="945.143" y="616.571"/>
			<point x="945.143" y="446.714" type="curve" smooth="yes"/>
			<point x="945.143" y="296.571"/>
			<point x="846.857" y="226.714"/>
		</contour>
	</outline>
	<anchor name="bottom" x="673.286" y="0"/>
	<anchor name="top" x="673.286" y="1462"/>
</glyph>
<glyph name="uni0186" format="2">
	<unicode hex="0186"/>
	<advance width="1308"/>
	<outline>
		<contour>
			<point x="486.286" y="-20" type="curve" smooth="yes"/>
			<point x="959.857" y="-20"/>
			<point x="1197.29" y="312.714"/>
			<point x="1197.29" y="758.571" type="curve" smooth="yes"/>
			<point x="1197.29" y="1196"/>
			<point x="982.286" y="1483"/>
			<point x="529.857" y="1483" type="curve" smooth="yes"/>
			<point x="385.429" y="1483"/>
			<point x="210.143" y="1450.29"/>
			<point x="72.8571" y="1384.29" type="curve"/>
			<point x="147.143" y="1151.57" type="line"/>
			<point x="256.286" y="1205.71"/>
			<point x="387" y="1237"/>
			<point x="510" y="1237" type="curve" smooth="yes"/>
			<point x="758.429" y="1237"/>
			<point x="891.571" y="1044.71"/>
			<point x="891.571" y="736.429" type="curve" smooth="yes"/>
			<point x="891.571" y="417.429"/>
			<point x="747.857" y="225.286"/>
			<point x="471" y="225.286" type="curve" smooth="yes"/>
			<point x="336" y="225.286"/>
			<point x="223.714" y="261.429"/>
			<point x="107.857" y="307.857" type="curve"/>
			<point x="107.857" y="54.7143" type="line"/>
			<point x="220" y="8.28571"/>
			<point x="338.714" y="-20"/>
		</contour>
	</outline>
	<anchor name="bottom" x="581.857" y="0"/>
	<anchor name="top" x="581.857" y="1462"/>
</glyph>
<glyph name="uni0187" format="2">
	<unicode hex="0187"/>
	<advance width="1301"/>
	<outline>
		<contour>
			<point x="1302.57" y="1801.29" type="curve" smooth="yes"/>
			<point x="1131.14" y="1801.29"/>
			<point x="989.429" y="1704.29"/>
			<point x="989.429" y="1487.43" type="curve" smooth="yes"/>
			<point x="989.429" y="1456.29" type="line"/>
			<point x="930.429" y="1473.29"/>
			<point x="869.143" y="1483"/>
			<point x="804.714" y="1483" type="curve" smooth="yes"/>
			<point x="357.429" y="1483"/>
			<point x="119" y="1165.86"/>
			<point x="119" y="729.857" type="curve" smooth="yes"/>
			<point x="119" y="278.571"/>
			<point x="321" y="-20"/>
			<point x="776" y="-20" type="curve" smooth="yes"/>
			<point x="936.286" y="-20"/>
			<point x="1053.43" y="5.14286"/>
			<point x="1182" y="59.4286" type="curve"/>
			<point x="1182" y="313.571" type="line"/>
			<point x="1042.57" y="262.857"/>
			<point x="926.571" y="231"/>
			<point x="798.143" y="231" type="curve" smooth="yes"/>
			<point x="540.571" y="231"/>
			<point x="429.714" y="413"/>
			<point x="429.714" y="728.429" type="curve" smooth="yes"/>
			<point x="429.714" y="1034.14"/>
			<point x="563" y="1231.29"/>
			<point x="803.286" y="1231.29" type="curve" smooth="yes"/>
			<point x="908.429" y="1231.29"/>
			<point x="1022" y="1187.71"/>
			<point x="1132.57" y="1135.29" type="curve"/>
			<point x="1229" y="1359.86" type="line"/>
			<point x="1229" y="1443.57" type="line" smooth="yes"/>
			<point x="1229" y="1530.14"/>
			<point x="1267.43" y="1563"/>
			<point x="1333" y="1563" type="curve" smooth="yes"/>
			<point x="1380.57" y="1563"/>
			<point x="1422.43" y="1551"/>
			<point x="1446.86" y="1542.43" type="curve"/>
			<point x="1446.86" y="1772.57" type="line"/>
			<point x="1425.14" y="1783.43"/>
			<point x="1365.43" y="1801.29"/>
		</contour>
	</outline>
	<anchor name="bottom" x="734" y="0"/>
	<anchor name="top" x="714" y="1696.29"/>
</glyph>
<glyph name="uni0197" format="2">
	<unicode hex="0197"/>
	<advance width="790"/>
	<outline>
		<contour>
			<point x="722.714" y="1462" type="line"/>
			<point x="69.2857" y="1462" type="line"/>
			<point x="69.2857" y="1289.57" type="line"/>
			<point x="244" y="1208" type="line"/>
			<point x="244" y="859.857" type="line"/>
			<point x="54.7143" y="859.857" type="line"/>
			<point x="54.7143" y="607.857" type="line"/>
			<point x="244" y="607.857" type="line"/>
			<point x="244" y="253.429" type="line"/>
			<point x="69.2857" y="172.429" type="line"/>
			<point x="69.2857" y="0" type="line"/>
			<point x="722.714" y="0" type="line"/>
			<point x="722.714" y="172.429" type="line"/>
			<point x="547" y="253.429" type="line"/>
			<point x="547" y="607.857" type="line"/>
			<point x="736.714" y="607.857" type="line"/>
			<point x="736.714" y="859.857" type="line"/>
			<point x="547" y="859.857" type="line"/>
			<point x="547" y="1208" type="line"/>
			<point x="722.714" y="1289.57" type="line"/>
		</contour>
	</outline>
	<anchor name="bottom" x="396" y="0"/>
	<anchor name="top" x="396" y="1462"/>
</glyph>
<glyph name="uni019B" format="2">
	<unicode hex="019B"/>
	<advance width="1254"/>
	<outline>
		<contour>
			<point x="-3.42857" y="0" type="line"/>
			<point x="304" y="0" type="line"/>
			<point x="539.714" y="581.286" type="line" smooth="yes"/>
			<point x="558.286" y="626.857"/>
			<point x="580.143" y="690.143"/>
			<point x="598.143" y="751.286" type="curve"/>
			<point x="605" y="751.286" type="line"/>
			<point x="615.714" y="703.143"/>
			<point x="631.714" y="646.571"/>
			<point x="659" y="569.857" type="curve" smooth="yes"/>
			<point x="778.286" y="225.143" type="line" smooth="yes"/>
			<point x="833.429" y="68.2857"/>
			<point x="918.286" y="-14.5714"/>
			<point x="1090.71" y="-14.5714" type="curve" smooth="yes"/>
			<point x="1168.43" y="-14.5714"/>
			<point x="1215.86" y="-0.571429"/>
			<point x="1244.14" y="11.1429" type="curve"/>
			<point x="1244.14" y="224.429" type="line"/>
			<point x="1223.57" y="219"/>
			<point x="1199.71" y="215"/>
			<point x="1171.71" y="215" type="curve" smooth="yes"/>
			<point x="1107.71" y="215"/>
			<point x="1068.43" y="235"/>
			<point x="1025.71" y="354.571" type="curve" smooth="yes"/>
			<point x="728.571" y="1200" type="line"/>
			<point x="906.429" y="1254.14" type="line"/>
			<point x="855.714" y="1421.71" type="line"/>
			<point x="654.714" y="1357.14" type="line"/>
			<point x="574.714" y="1515.43"/>
			<point x="472.286" y="1569"/>
			<point x="290.286" y="1569" type="curve" smooth="yes"/>
			<point x="241.143" y="1569"/>
			<point x="160" y="1561.57"/>
			<point x="125.857" y="1552.57" type="curve"/>
			<point x="125.857" y="1340.29" type="line"/>
			<point x="163.714" y="1349.71"/>
			<point x="198.429" y="1356.57"/>
			<point x="239.429" y="1356.57" type="curve" smooth="yes"/>
			<point x="305.571" y="1356.57"/>
			<point x="350.857" y="1332.57"/>
			<point x="383.571" y="1265" type="curve"/>
			<point x="201" y="1214.57" type="line"/>
			<point x="252.143" y="1054.57" type="line"/>
			<point x="462.714" y="1118.14" type="line"/>
			<point x="479" y="1069.29" type="line"/>
		</contour>
	</outline>
	<anchor name="bottom" x="627.714" y="0"/>
	<anchor name="top" x="627.714" y="1569"/>
</glyph>
<glyph name="Ohorn" format="2">
	<unicode hex="01A0"/>
	<advance width="1676"/>
	<outline>
		<contour>
			<point x="1495.14" y="733" type="curve" smooth="yes"/>
			<point x="1495.14" y="876.857"/>
			<point x="1475.43" y="999.571"/>
			<point x="1437" y="1105.57" type="curve"/>
			<point x="1592.43" y="1170.14"/>
			<point x="1686.71" y="1286.57"/>
			<point x="1726.57" y="1537.43" type="curve"/>
			<point x="1713.71" y="1556" type="line"/>
			<point x="1433" y="1556" type="line"/>
			<point x="1433" y="1408"/>
			<point x="1387" y="1333.14"/>
			<point x="1335.14" y="1277.71" type="curve"/>
			<point x="1223.86" y="1411"/>
			<point x="1047.57" y="1485"/>
			<point x="809.857" y="1485" type="curve" smooth="yes"/>
			<point x="337.714" y="1485"/>
			<point x="111.143" y="1186"/>
			<point x="111.143" y="735" type="curve" smooth="yes"/>
			<point x="111.143" y="283"/>
			<point x="331.143" y="-20"/>
			<point x="802.143" y="-20" type="curve" smooth="yes"/>
			<point x="1284.14" y="-20"/>
			<point x="1495.14" y="284.429"/>
		</contour>
		<contour>
			<point x="424" y="733.571" type="curve" smooth="yes"/>
			<point x="424" y="1039"/>
			<point x="541.714" y="1239"/>
			<point x="807" y="1239" type="curve" smooth="yes"/>
			<point x="1064.57" y="1239"/>
			<point x="1182.29" y="1050.14"/>
			<point x="1182.29" y="733" type="curve" smooth="yes"/>
			<point x="1182.29" y="426.143"/>
			<point x="1071.14" y="229.571"/>
			<point x="802.714" y="229.571" type="curve" smooth="yes"/>
			<point x="539.429" y="229.571"/>
			<point x="424" y="428.143"/>
		</contour>
	</outline>
	<anchor name="bottom" x="802.143" y="0"/>
	<anchor name="top" x="807.857" y="1462"/>
</glyph>
<glyph name="uni01A2" format="2">
	<unicode hex="01A2"/>
	<advance width="2317"/>
	<outline>
		<contour>
			<point x="1472.71" y="733" type="curve" smooth="yes"/>
			<point x="1472.71" y="890.286"/>
			<point x="1447.57" y="1028.43"/>
			<point x="1395.14" y="1140" type="curve"/>
			<point x="1441.57" y="1191.14"/>
			<point x="1508.57" y="1232.14"/>
			<point x="1625.14" y="1232.14" type="curve" smooth="yes"/>
			<point x="1762.14" y="1232.14"/>
			<point x="1839.14" y="1143"/>
			<point x="1839.14" y="976.571" type="curve" smooth="yes"/>
			<point x="1839.14" y="0" type="line"/>
			<point x="2142.86" y="0" type="line"/>
			<point x="2142.86" y="1003.86" type="line" smooth="yes"/>
			<point x="2142.86" y="1336.71"/>
			<point x="1959" y="1483.86"/>
			<point x="1709.86" y="1483.86" type="curve" smooth="yes"/>
			<point x="1515.86" y="1483.86"/>
			<point x="1384.71" y="1403.29"/>
			<point x="1289.57" y="1300.43" type="curve"/>
			<point x="1178.86" y="1418.14"/>
			<point x="1016" y="1485"/>
			<point x="799.857" y="1485" type="curve" smooth="yes"/>
			<point x="336.286" y="1485"/>
			<point x="119" y="1186"/>
			<point x="119" y="735" type="curve" smooth="yes"/>
			<point x="119" y="275.143"/>
			<point x="331.143" y="-20"/>
			<point x="795" y="-20" type="curve" smooth="yes"/>
			<point x="1262.43" y="-20"/>
			<point x="1472.71" y="275.143"/>
		</contour>
		<contour>
			<point x="436.143" y="733.571" type="curve" smooth="yes"/>
			<point x="436.143" y="1042.57"/>
			<point x="547.429" y="1234.71"/>
			<point x="799.857" y="1234.71" type="curve" smooth="yes"/>
			<point x="1051.43" y="1234.71"/>
			<point x="1156.29" y="1043"/>
			<point x="1156.29" y="733" type="curve" smooth="yes"/>
			<point x="1156.29" y="424.714"/>
			<point x="1049.43" y="232.429"/>
			<point x="795.571" y="232.429" type="curve" smooth="yes"/>
			<point x="546.571" y="232.429"/>
			<point x="436.143" y="425.286"/>
		</contour>
	</outline>
	<anchor name="bottom" x="1159.43" y="0"/>
	<anchor name="top" x="1159.43" y="1462"/>
</glyph>
<glyph name="uni01A7" format="2">
	<unicode hex="01A7"/>
	<advance width="1128"/>
	<outline>
		<contour>
			<point x="576.286" y="1483" type="curve" smooth="yes"/>
			<point x="409.429" y="1483"/>
			<point x="252.286" y="1442"/>
			<point x="110.571" y="1378.29" type="curve"/>
			<point x="198.714" y="1143.29" type="line"/>
			<point x="334.571" y="1199.14"/>
			<point x="445.286" y="1229.86"/>
			<point x="550.714" y="1229.86" type="curve" smooth="yes"/>
			<point x="675.286" y="1229.86"/>
			<point x="742.571" y="1184.86"/>
			<point x="742.571" y="1090.14" type="curve" smooth="yes"/>
			<point x="742.571" y="975.857"/>
			<point x="646.857" y="925.429"/>
			<point x="442.714" y="838" type="curve"/>
			<point x="214.286" y="735.143"/>
			<point x="86.2857" y="613.286"/>
			<point x="86.2857" y="389.143" type="curve" smooth="yes"/>
			<point x="86.2857" y="132.286"/>
			<point x="245.571" y="-20"/>
			<point x="580.857" y="-20" type="curve" smooth="yes"/>
			<point x="757.714" y="-20"/>
			<point x="915.429" y="18.8571"/>
			<point x="1033.29" y="74.8571" type="curve"/>
			<point x="1033.29" y="324.857" type="line"/>
			<point x="888.143" y="269.429"/>
			<point x="746.571" y="229.571"/>
			<point x="599.429" y="229.571" type="curve" smooth="yes"/>
			<point x="454.571" y="229.571"/>
			<point x="381.571" y="284"/>
			<point x="381.571" y="388.857" type="curve" smooth="yes"/>
			<point x="381.571" y="503.286"/>
			<point x="497" y="562.714"/>
			<point x="667.571" y="636" type="curve"/>
			<point x="844.857" y="714.571"/>
			<point x="1039" y="812.857"/>
			<point x="1039" y="1081.86" type="curve" smooth="yes"/>
			<point x="1039" y="1344.71"/>
			<point x="864.714" y="1483"/>
		</contour>
	</outline>
	<anchor name="bottom" x="564.143" y="0"/>
	<anchor name="top" x="564.143" y="1462"/>
</glyph>
<glyph name="uni01A8" format="2">
	<unicode hex="01A8"/>
	<advance width="1016"/>
	<outline>
		<contour>
			<point x="513.571" y="1138.43" type="curve" smooth="yes"/>
			<point x="372.429" y="1138.43"/>
			<point x="231.429" y="1111.43"/>
			<point x="101.143" y="1052.14" type="curve"/>
			<point x="181.286" y="836.857" type="line"/>
			<point x="288.714" y="885.286"/>
			<point x="385.571" y="918.857"/>
			<point x="483.143" y="918.857" type="curve" smooth="yes"/>
			<point x="575.571" y="918.857"/>
			<point x="635.714" y="888.571"/>
			<point x="635.714" y="827.857" type="curve" smooth="yes"/>
			<point x="635.714" y="772.714"/>
			<point x="584.429" y="743.143"/>
			<point x="392.714" y="672.429" type="curve" smooth="yes"/>
			<point x="199.143" y="599.857"/>
			<point x="76.2857" y="500.857"/>
			<point x="76.2857" y="310" type="curve" smooth="yes"/>
			<point x="76.2857" y="93.7143"/>
			<point x="227.143" y="-20"/>
			<point x="532.429" y="-20" type="curve" smooth="yes"/>
			<point x="679.286" y="-20"/>
			<point x="798.143" y="3.14286"/>
			<point x="911.143" y="61.7143" type="curve"/>
			<point x="911.143" y="284" type="line"/>
			<point x="788.714" y="219.571"/>
			<point x="656.857" y="196"/>
			<point x="552" y="196" type="curve" smooth="yes"/>
			<point x="428.286" y="196"/>
			<point x="371.286" y="229.429"/>
			<point x="371.286" y="301.857" type="curve" smooth="yes"/>
			<point x="371.286" y="360"/>
			<point x="399.286" y="397"/>
			<point x="626" y="484.143" type="curve" smooth="yes"/>
			<point x="835.286" y="565.286"/>
			<point x="933.571" y="647.286"/>
			<point x="933.571" y="833.286" type="curve" smooth="yes"/>
			<point x="933.571" y="1041.57"/>
			<point x="756.857" y="1138.43"/>
		</contour>
	</outline>
	<anchor name="bottom" x="508.286" y="0"/>
	<anchor name="top" x="508.286" y="1118.14"/>
</glyph>
<glyph name="uni01AC" format="2">
	<unicode hex="01AC"/>
	<advance width="1254"/>
	<outline>
		<contour>
			<point x="519.714" y="0" type="line"/>
			<point x="823.714" y="0" type="line"/>
			<point x="823.714" y="1210.29" type="line"/>
			<point x="1221.43" y="1210.29" type="line"/>
			<point x="1221.43" y="1462" type="line"/>
			<point x="394.286" y="1462" type="line" smooth="yes"/>
			<point x="106.857" y="1462"/>
			<point x="9.42857" y="1298.86"/>
			<point x="9.42857" y="1111" type="curve" smooth="yes"/>
			<point x="9.42857" y="1053.71"/>
			<point x="25.2857" y="1011.29"/>
			<point x="35.2857" y="990.571" type="curve"/>
			<point x="270.857" y="990.571" type="line"/>
			<point x="262.857" y="1011"/>
			<point x="249" y="1041"/>
			<point x="249" y="1085.43" type="curve" smooth="yes"/>
			<point x="249" y="1154.71"/>
			<point x="291.429" y="1210.29"/>
			<point x="386.857" y="1210.29" type="curve" smooth="yes"/>
			<point x="519.714" y="1210.29" type="line"/>
		</contour>
	</outline>
	<anchor name="bottom" x="627.429" y="0"/>
	<anchor name="top" x="627.429" y="1462"/>
</glyph>
<glyph name="uni01AD" format="2">
	<unicode hex="01AD"/>
	<advance width="887"/>
	<outline>
		<contour>
			<point x="572.429" y="1567" type="curve" smooth="yes"/>
			<point x="343.286" y="1567"/>
			<point x="193" y="1471.43"/>
			<point x="193" y="1229.43" type="curve" smooth="yes"/>
			<point x="193" y="1100.29" type="line"/>
			<point x="46.4286" y="1020.71" type="line"/>
			<point x="46.4286" y="892.857" type="line"/>
			<point x="192.429" y="892.857" type="line"/>
			<point x="192.429" y="348.429" type="line" smooth="yes"/>
			<point x="192.429" y="65.2857"/>
			<point x="336.143" y="-20"/>
			<point x="536.857" y="-20" type="curve" smooth="yes"/>
			<point x="655.286" y="-20"/>
			<point x="754.571" y="3.42857"/>
			<point x="819.571" y="32.4286" type="curve"/>
			<point x="819.571" y="256.286" type="line"/>
			<point x="756" y="233.857"/>
			<point x="694.857" y="218.143"/>
			<point x="627.571" y="218.143" type="curve" smooth="yes"/>
			<point x="540.143" y="218.143"/>
			<point x="491.429" y="262.143"/>
			<point x="491.429" y="345.857" type="curve" smooth="yes"/>
			<point x="491.429" y="892.857" type="line"/>
			<point x="814.143" y="892.857" type="line"/>
			<point x="814.143" y="1118.14" type="line"/>
			<point x="491.429" y="1118.14" type="line"/>
			<point x="491.429" y="1218.43" type="line" smooth="yes"/>
			<point x="491.429" y="1293.57"/>
			<point x="529.571" y="1328.71"/>
			<point x="607.714" y="1328.71" type="curve" smooth="yes"/>
			<point x="667.429" y="1328.71"/>
			<point x="728.429" y="1314.14"/>
			<point x="758.571" y="1303.86" type="curve"/>
			<point x="758.571" y="1534" type="line"/>
			<point x="721.857" y="1547.43"/>
			<point x="651.857" y="1567"/>
		</contour>
	</outline>
	<anchor name="bottom" x="445.143" y="0"/>
	<anchor name="top" x="445.143" y="1567"/>
</glyph>
<glyph name="uni01AE" format="2">
	<unicode hex="01AE"/>
	<advance width="1179"/>
	<outline>
		<contour>
			<point x="809" y="-480.143" type="curve" smooth="yes"/>
			<point x="878.714" y="-480.143"/>
			<point x="951.857" y="-462.857"/>
			<point x="984.857" y="-449.429" type="curve"/>
			<point x="984.857" y="-222.714" type="line"/>
			<point x="964" y="-230.429"/>
			<point x="921.286" y="-243.429"/>
			<point x="870.571" y="-243.429" type="curve" smooth="yes"/>
			<point x="795.714" y="-243.429"/>
			<point x="740.143" y="-202.143"/>
			<point x="740.143" y="-93.2857" type="curve" smooth="yes"/>
			<point x="740.143" y="1210.29" type="line"/>
			<point x="1138.57" y="1210.29" type="line"/>
			<point x="1138.57" y="1462" type="line"/>
			<point x="40.4286" y="1462" type="line"/>
			<point x="40.4286" y="1210.29" type="line"/>
			<point x="438.286" y="1210.29" type="line"/>
			<point x="438.286" y="-101.857" type="line" smooth="yes"/>
			<point x="438.286" y="-369.143"/>
			<point x="575.286" y="-480.143"/>
		</contour>
	</outline>
	<anchor name="bottom" x="589.429" y="-480.143"/>
	<anchor name="top" x="589.429" y="1462"/>
</glyph>
<glyph name="uni01B5" format="2">
	<unicode hex="01B5"/>
	<advance width="1187"/>
	<outline>
		<contour>
			<point x="134.429" y="858.429" type="line"/>
			<point x="134.429" y="608.143" type="line"/>
			<point x="336.571" y="608.143" type="line"/>
			<point x="46.1429" y="193.429" type="line"/>
			<point x="46.1429" y="0" type="line"/>
			<point x="1139.86" y="0" type="line"/>
			<point x="1139.86" y="248.857" type="line"/>
			<point x="405.714" y="248.857" type="line"/>
			<point x="655.143" y="608.143" type="line"/>
			<point x="1031.71" y="608.143" type="line"/>
			<point x="1031.71" y="858.429" type="line"/>
			<point x="831.571" y="858.429" type="line"/>
			<point x="1119.86" y="1268.57" type="line"/>
			<point x="1119.86" y="1462" type="line"/>
			<point x="68.1429" y="1462" type="line"/>
			<point x="68.1429" y="1213.86" type="line"/>
			<point x="761.714" y="1213.86" type="line"/>
			<point x="511.571" y="858.429" type="line"/>
		</contour>
	</outline>
	<anchor name="bottom" x="593.429" y="0"/>
	<anchor name="top" x="593.429" y="1462"/>
</glyph>
<glyph name="uni01B8" format="2">
	<unicode hex="01B8"/>
	<advance width="1205"/>
	<outline>
		<contour>
			<point x="685.286" y="-20" type="curve" smooth="yes"/>
			<point x="867.857" y="-20"/>
			<point x="1013.29" y="10"/>
			<point x="1142" y="60.7143" type="curve"/>
			<point x="1142" y="317" type="line"/>
			<point x="1013.57" y="256.286"/>
			<point x="845.286" y="218.143"/>
			<point x="711.714" y="218.143" type="curve" smooth="yes"/>
			<point x="474.429" y="218.143"/>
			<point x="378.714" y="299.714"/>
			<point x="378.714" y="442.429" type="curve" smooth="yes"/>
			<point x="378.714" y="571"/>
			<point x="484.143" y="649.143"/>
			<point x="797.429" y="649.143" type="curve" smooth="yes"/>
			<point x="896.714" y="649.143" type="line"/>
			<point x="896.714" y="861.571" type="line"/>
			<point x="553.143" y="1213.86" type="line"/>
			<point x="1098.71" y="1213.86" type="line"/>
			<point x="1098.71" y="1462" type="line"/>
			<point x="142.143" y="1462" type="line"/>
			<point x="142.143" y="1274.71" type="line"/>
			<point x="560" y="852.286" type="line"/>
			<point x="247.571" y="828"/>
			<point x="79.1429" y="686.571"/>
			<point x="79.1429" y="418.857" type="curve" smooth="yes"/>
			<point x="79.1429" y="158.286"/>
			<point x="282.429" y="-20"/>
		</contour>
	</outline>
	<anchor name="bottom" x="602.286" y="0"/>
	<anchor name="top" x="602.286" y="1462"/>
</glyph>
<glyph name="uni01B9" format="2">
	<unicode hex="01B9"/>
	<advance width="1184"/>
	<outline>
		<contour>
			<point x="649.286" y="-492" type="curve"/>
			<point x="832.714" y="-492"/>
			<point x="973.286" y="-462.714"/>
			<point x="1100" y="-408.143" type="curve"/>
			<point x="1100" y="-155.429" type="line"/>
			<point x="974.143" y="-216.714"/>
			<point x="812.714" y="-251.429"/>
			<point x="690" y="-251.429" type="curve" smooth="yes"/>
			<point x="456.429" y="-251.429"/>
			<point x="375.286" y="-130.857"/>
			<point x="375.286" y="10.7143" type="curve" smooth="yes"/>
			<point x="375.286" y="167.429"/>
			<point x="471.857" y="278"/>
			<point x="795.143" y="278" type="curve" smooth="yes"/>
			<point x="899.571" y="278" type="line"/>
			<point x="899.571" y="489.429" type="line"/>
			<point x="494.143" y="890" type="line"/>
			<point x="1087.14" y="890" type="line"/>
			<point x="1087.14" y="1118.14" type="line"/>
			<point x="122.714" y="1118.14" type="line"/>
			<point x="122.714" y="923.571" type="line"/>
			<point x="567.571" y="497.571" type="line"/>
			<point x="208.429" y="446.143"/>
			<point x="73.1429" y="246.571"/>
			<point x="73.1429" y="-8.28571" type="curve"/>
			<point x="74.5714" y="-290.286"/>
			<point x="257.714" y="-489.857"/>
		</contour>
	</outline>
	<anchor name="bottom" x="593.286" y="-492"/>
	<anchor name="top" x="593.286" y="1118.14"/>
</glyph>
<glyph name="uni01BC" format="2">
	<unicode hex="01BC"/>
	<advance width="1222"/>
	<outline>
		<contour>
			<point x="518.857" y="-20" type="curve" smooth="yes"/>
			<point x="929.857" y="-20"/>
			<point x="1127.29" y="175.857"/>
			<point x="1127.29" y="486.857" type="curve" smooth="yes"/>
			<point x="1127.29" y="791"/>
			<point x="923.286" y="918.857"/>
			<point x="619.286" y="918.857" type="curve" smooth="yes"/>
			<point x="561.571" y="918.857" type="line"/>
			<point x="561.571" y="1201.71" type="line"/>
			<point x="1085.57" y="1201.71" type="line"/>
			<point x="1085.57" y="1462" type="line"/>
			<point x="74.1429" y="1462" type="line"/>
			<point x="74.1429" y="1201.71" type="line"/>
			<point x="290" y="1201.71" type="line"/>
			<point x="290" y="685" type="line"/>
			<point x="510.571" y="685" type="line" smooth="yes"/>
			<point x="715.429" y="685"/>
			<point x="822.286" y="624.857"/>
			<point x="822.286" y="464.714" type="curve" smooth="yes"/>
			<point x="822.286" y="293.143"/>
			<point x="684.429" y="226.714"/>
			<point x="496.714" y="226.714" type="curve" smooth="yes"/>
			<point x="335.571" y="226.714"/>
			<point x="181" y="271.714"/>
			<point x="93.8571" y="319.857" type="curve"/>
			<point x="93.8571" y="59.5714" type="line"/>
			<point x="173" y="25.2857"/>
			<point x="325.571" y="-20"/>
		</contour>
	</outline>
	<anchor name="bottom" x="611.571" y="0"/>
	<anchor name="top" x="611.571" y="1462"/>
</glyph>
<glyph name="uni01BD" format="2">
	<unicode hex="01BD"/>
	<advance width="1128"/>
	<outline>
		<contour>
			<point x="474.857" y="-20.4286" type="curve" smooth="yes"/>
			<point x="874.143" y="-20.4286"/>
			<point x="1042.43" y="136.143"/>
			<point x="1042.43" y="359.857" type="curve" smooth="yes"/>
			<point x="1042.43" y="584.286"/>
			<point x="904.857" y="694.429"/>
			<point x="631.857" y="694.429" type="curve" smooth="yes"/>
			<point x="535" y="694.429" type="line"/>
			<point x="535" y="894.286" type="line"/>
			<point x="1008" y="894.286" type="line"/>
			<point x="1008" y="1118.14" type="line"/>
			<point x="85.4286" y="1118.14" type="line"/>
			<point x="85.4286" y="894.286" type="line"/>
			<point x="269.571" y="894.286" type="line"/>
			<point x="269.571" y="499.571" type="line"/>
			<point x="512.429" y="499.571" type="line" smooth="yes"/>
			<point x="673.143" y="499.571"/>
			<point x="753.143" y="457.857"/>
			<point x="753.143" y="369.857" type="curve" smooth="yes"/>
			<point x="753.143" y="281.143"/>
			<point x="687.286" y="217"/>
			<point x="492.714" y="212.714" type="curve"/>
			<point x="328" y="207.714"/>
			<point x="161.714" y="252"/>
			<point x="84.8571" y="289.143" type="curve"/>
			<point x="84.8571" y="46.4286" type="line"/>
			<point x="154.857" y="16.5714"/>
			<point x="304.571" y="-20.4286"/>
		</contour>
	</outline>
	<anchor name="bottom" x="565.286" y="0"/>
	<anchor name="top" x="565.286" y="1118.14"/>
</glyph>
<glyph name="uni01BE" format="2">
	<unicode hex="01BE"/>
	<advance width="1016"/>
	<outline>
		<contour>
			<point x="463.286" y="-20" type="curve" smooth="yes"/>
			<point x="814" y="-20"/>
			<point x="939" y="139.429"/>
			<point x="939" y="336.857" type="curve" smooth="yes"/>
			<point x="939" y="509.714"/>
			<point x="819.286" y="582.571"/>
			<point x="675.571" y="644.571" type="curve" smooth="yes"/>
			<point x="583.286" y="684.714"/>
			<point x="550.714" y="716.143"/>
			<point x="550.714" y="807.286" type="curve" smooth="yes"/>
			<point x="550.714" y="892.857" type="line"/>
			<point x="841.286" y="892.857" type="line"/>
			<point x="841.286" y="1118.14" type="line"/>
			<point x="550.714" y="1118.14" type="line"/>
			<point x="550.714" y="1355.71" type="line"/>
			<point x="354.143" y="1355.71" type="line"/>
			<point x="274" y="1114.57" type="line"/>
			<point x="73.5714" y="1020.71" type="line"/>
			<point x="73.5714" y="892.857" type="line"/>
			<point x="270.286" y="892.857" type="line"/>
			<point x="270.286" y="782.286" type="line" smooth="yes"/>
			<point x="270.286" y="592"/>
			<point x="342.857" y="528"/>
			<point x="496" y="464" type="curve"/>
			<point x="582.143" y="429.571"/>
			<point x="648.286" y="404.429"/>
			<point x="648.286" y="322.286" type="curve" smooth="yes"/>
			<point x="648.286" y="245.286"/>
			<point x="599" y="196"/>
			<point x="451.286" y="196" type="curve" smooth="yes"/>
			<point x="314.857" y="196"/>
			<point x="162.857" y="245.143"/>
			<point x="75.2857" y="292.143" type="curve"/>
			<point x="75.2857" y="52.4286" type="line"/>
			<point x="160" y="10.8571"/>
			<point x="322.571" y="-20"/>
		</contour>
	</outline>
	<anchor name="bottom" x="508.857" y="0"/>
	<anchor name="top" x="508.857" y="1355.71"/>
</glyph>
<glyph name="uni01C2" format="2">
	<unicode hex="01C2"/>
	<advance width="1057"/>
	<outline>
		<contour>
			<point x="642.857" y="1556" type="line"/>
			<point x="412.714" y="1556" type="line"/>
			<point x="412.714" y="1103.86" type="line"/>
			<point x="102.571" y="1103.86" type="line"/>
			<point x="102.571" y="890" type="line"/>
			<point x="412.714" y="890" type="line"/>
			<point x="412.714" y="700.429" type="line"/>
			<point x="102.571" y="700.429" type="line"/>
			<point x="102.571" y="486.571" type="line"/>
			<point x="412.714" y="486.571" type="line"/>
			<point x="412.714" y="0" type="line"/>
			<point x="642.857" y="0" type="line"/>
			<point x="642.857" y="486.571" type="line"/>
			<point x="957.286" y="486.571" type="line"/>
			<point x="957.286" y="700.429" type="line"/>
			<point x="642.857" y="700.429" type="line"/>
			<point x="642.857" y="890" type="line"/>
			<point x="957.286" y="890" type="line"/>
			<point x="957.286" y="1103.86" type="line"/>
			<point x="642.857" y="1103.86" type="line"/>
		</contour>
	</outline>
	<anchor name="bottom" x="528" y="0"/>
	<anchor name="top" x="528" y="1556"/>
</glyph>
<glyph name="uni01F7" format="2">
	<unicode hex="01F7"/>
	<advance width="1398"/>
	<outline>
		<contour>
			<point x="853.571" y="1485" type="curve" smooth="yes"/>
			<point x="628.143" y="1485"/>
			<point x="520.857" y="1363.71"/>
			<point x="469" y="1253.71" type="curve"/>
			<point x="460.714" y="1253.71" type="line"/>
			<point x="413.286" y="1462.57" type="line"/>
			<point x="184.571" y="1462.57" type="line"/>
			<point x="184.571" y="-492" type="line"/>
			<point x="486.571" y="-492" type="line"/>
			<point x="486.571" y="10.2857" type="line"/>
			<point x="1003.43" y="151.714"/>
			<point x="1299.14" y="511.857"/>
			<point x="1299.14" y="943.143" type="curve" smooth="yes"/>
			<point x="1299.14" y="1309.43"/>
			<point x="1124.29" y="1485"/>
		</contour>
		<contour>
			<point x="756.286" y="1231.86" type="curve" smooth="yes"/>
			<point x="900.143" y="1231.86"/>
			<point x="992.714" y="1137.29"/>
			<point x="992.714" y="931.714" type="curve" smooth="yes"/>
			<point x="992.714" y="581.857"/>
			<point x="755.714" y="356.857"/>
			<point x="486.571" y="268.571" type="curve"/>
			<point x="486.571" y="833.286" type="line" smooth="yes"/>
			<point x="486.571" y="1102.29"/>
			<point x="579.571" y="1231.86"/>
		</contour>
	</outline>
	<anchor name="bottom" x="699.857" y="-492"/>
	<anchor name="top" x="699.857" y="1462"/>
</glyph>
<glyph name="uni021C" format="2">
	<unicode hex="021C"/>
	<advance width="1251"/>
	<outline>
		<contour>
			<point x="90.2857" y="-369" type="line"/>
			<point x="825.714" y="-219.571"/>
			<point x="1148" y="-5.71429"/>
			<point x="1148" y="365.857" type="curve" smooth="yes"/>
			<point x="1148" y="559.286"/>
			<point x="1050" y="678.857"/>
			<point x="917.143" y="750.857" type="curve"/>
			<point x="1044" y="838.286"/>
			<point x="1112.71" y="946"/>
			<point x="1112.71" y="1091.86" type="curve" smooth="yes"/>
			<point x="1112.71" y="1349.29"/>
			<point x="913.286" y="1483"/>
			<point x="613" y="1483" type="curve" smooth="yes"/>
			<point x="400.571" y="1483"/>
			<point x="233" y="1426.43"/>
			<point x="73.2857" y="1320.43" type="curve"/>
			<point x="200.714" y="1113.71" type="line"/>
			<point x="314.286" y="1184.29"/>
			<point x="449.857" y="1237"/>
			<point x="583.714" y="1237" type="curve" smooth="yes"/>
			<point x="709.571" y="1237"/>
			<point x="814.571" y="1195.71"/>
			<point x="814.571" y="1062.57" type="curve" smooth="yes"/>
			<point x="814.571" y="918.571"/>
			<point x="689.714" y="854.429"/>
			<point x="316.714" y="767.286" type="curve"/>
			<point x="368.714" y="538.286" type="line"/>
			<point x="492.286" y="566.286"/>
			<point x="602.143" y="596.143"/>
			<point x="696.429" y="632.571" type="curve"/>
			<point x="790.286" y="573.857"/>
			<point x="843" y="497.714"/>
			<point x="843" y="381.714" type="curve" smooth="yes"/>
			<point x="843" y="168.429"/>
			<point x="700" y="30.5714"/>
			<point x="90.2857" y="-101.429" type="curve"/>
		</contour>
	</outline>
	<anchor name="bottom" x="654.286" y="-209.571"/>
	<anchor name="top" x="615.571" y="1462"/>
</glyph>
<glyph name="uni0220" format="2">
	<unicode hex="0220"/>
	<advance width="1542"/>
	<outline>
		<contour>
			<point x="906.429" y="1484.43" type="curve" smooth="yes"/>
			<point x="712.143" y="1484.43"/>
			<point x="556.429" y="1406.14"/>
			<point x="471.286" y="1265.43" type="curve"/>
			<point x="463" y="1265.43" type="line"/>
			<point x="414.714" y="1462" type="line"/>
			<point x="184.571" y="1462" type="line"/>
			<point x="184.571" y="0" type="line"/>
			<point x="486.143" y="0" type="line"/>
			<point x="486.143" y="773.714" type="line" smooth="yes"/>
			<point x="486.143" y="1075.57"/>
			<point x="563" y="1234.14"/>
			<point x="810" y="1234.14" type="curve" smooth="yes"/>
			<point x="976.714" y="1234.14"/>
			<point x="1067" y="1149.86"/>
			<point x="1067" y="925.571" type="curve" smooth="yes"/>
			<point x="1067" y="-492" type="line"/>
			<point x="1370" y="-492" type="line"/>
			<point x="1370" y="1007.71" type="line" smooth="yes"/>
			<point x="1370" y="1355.43"/>
			<point x="1169.29" y="1484.43"/>
		</contour>
	</outline>
	<anchor name="bottom" x="772.143" y="-492"/>
	<anchor name="top" x="772.143" y="1462"/>
</glyph>
<glyph name="uni0235" format="2">
	<unicode hex="0235"/>
	<advance width="1574"/>
	<outline>
		<contour>
			<point x="915.429" y="-79.7143" type="line"/>
			<point x="933.429" y="-30.4286"/>
			<point x="969.571" y="38"/>
			<point x="997.143" y="72.1429" type="curve"/>
			<point x="1039.86" y="19.1429"/>
			<point x="1116.71" y="-20"/>
			<point x="1239.86" y="-20" type="curve" smooth="yes"/>
			<point x="1469.14" y="-20"/>
			<point x="1585" y="95.8571"/>
			<point x="1585" y="259.857" type="curve" smooth="yes"/>
			<point x="1585" y="399.429"/>
			<point x="1486.86" y="501.857"/>
			<point x="1318.57" y="501.857" type="curve" smooth="yes"/>
			<point x="1246.86" y="501.857"/>
			<point x="1179" y="476.571"/>
			<point x="1144.57" y="451.714" type="curve"/>
			<point x="1144.57" y="729" type="line" smooth="yes"/>
			<point x="1144.57" y="1017.71"/>
			<point x="990.286" y="1138.43"/>
			<point x="770.143" y="1138.43" type="curve" smooth="yes"/>
			<point x="624.429" y="1138.43"/>
			<point x="502" y="1071.14"/>
			<point x="441.429" y="951.857" type="curve"/>
			<point x="426" y="951.857" type="line"/>
			<point x="387" y="1118.14" type="line"/>
			<point x="159.714" y="1118.14" type="line"/>
			<point x="159.714" y="0" type="line"/>
			<point x="458.714" y="0" type="line"/>
			<point x="458.714" y="529.429" type="line" smooth="yes"/>
			<point x="458.714" y="768.714"/>
			<point x="521.286" y="900.286"/>
			<point x="678" y="900.286" type="curve" smooth="yes"/>
			<point x="788.857" y="900.286"/>
			<point x="845.857" y="816"/>
			<point x="845.857" y="652.714" type="curve" smooth="yes"/>
			<point x="845.857" y="388.429" type="line" smooth="yes"/>
			<point x="845.857" y="299.857"/>
			<point x="857.857" y="231.286"/>
			<point x="881.143" y="183.714" type="curve"/>
			<point x="840.714" y="137.857"/>
			<point x="796.286" y="53.5714"/>
			<point x="770.857" y="-14.5714" type="curve"/>
		</contour>
		<contour>
			<point x="1275.57" y="155.286" type="curve" smooth="yes"/>
			<point x="1196.43" y="155.286"/>
			<point x="1153.71" y="205.143"/>
			<point x="1145.14" y="275.857" type="curve"/>
			<point x="1175.86" y="313.143"/>
			<point x="1226.86" y="336.571"/>
			<point x="1278.71" y="336.571" type="curve" smooth="yes"/>
			<point x="1348.86" y="336.571"/>
			<point x="1389.29" y="301.286"/>
			<point x="1389.29" y="246.286" type="curve" smooth="yes"/>
			<point x="1389.29" y="190.429"/>
			<point x="1339.43" y="155.286"/>
		</contour>
	</outline>
	<anchor name="bottom" x="787.286" y="0"/>
	<anchor name="top" x="787.286" y="1118.14"/>
</glyph>
<glyph name="jdotless" format="2">
	<unicode hex="0237"/>
	<advance width="595"/>
	<outline>
		<contour>
			<point x="82.2857" y="-492" type="curve" smooth="yes"/>
			<point x="338.286" y="-492"/>
			<point x="443.714" y="-329.857"/>
			<point x="443.714" y="-136" type="curve" smooth="yes"/>
			<point x="443.714" y="1118.14" type="line"/>
			<point x="149" y="1118.14" type="line"/>
			<point x="149" y="-75.1429" type="line" smooth="yes"/>
			<point x="149" y="-209.286"/>
			<point x="94.5714" y="-254.286"/>
			<point x="18" y="-254.286" type="curve" smooth="yes"/>
			<point x="-25.8571" y="-254.286"/>
			<point x="-61" y="-248.857"/>
			<point x="-103.429" y="-235.143" type="curve"/>
			<point x="-103.429" y="-468.143" type="line"/>
			<point x="-56.4286" y="-481.571"/>
			<point x="22.4286" y="-492"/>
		</contour>
	</outline>
	<anchor name="bottom" x="82.2857" y="-492"/>
	<anchor name="top" x="298" y="1118.14"/>
</glyph>
<glyph name="uni0238" format="2">
	<unicode hex="0238"/>
	<advance width="1967"/>
	<outline>
		<contour>
			<point x="598.857" y="-20" type="curve" smooth="yes"/>
			<point x="771.429" y="-20"/>
			<point x="906.714" y="50.4286"/>
			<point x="980.714" y="181.571" type="curve"/>
			<point x="1054.71" y="50.4286"/>
			<point x="1184.57" y="-20"/>
			<point x="1356.14" y="-20" type="curve" smooth="yes"/>
			<point x="1659.14" y="-20"/>
			<point x="1874" y="172.857"/>
			<point x="1874" y="557" type="curve" smooth="yes"/>
			<point x="1874" y="937.429"/>
			<point x="1702.57" y="1139"/>
			<point x="1455.86" y="1139" type="curve" smooth="yes"/>
			<point x="1278.71" y="1139"/>
			<point x="1180.71" y="1046.14"/>
			<point x="1133.43" y="949.571" type="curve"/>
			<point x="1121.57" y="949.571" type="line"/>
			<point x="1125" y="996.286"/>
			<point x="1133.43" y="1080"/>
			<point x="1133.43" y="1168.57" type="curve" smooth="yes"/>
			<point x="1133.43" y="1556" type="line"/>
			<point x="833.714" y="1556" type="line"/>
			<point x="833.714" y="1168.57" type="line" smooth="yes"/>
			<point x="833.714" y="1085.71"/>
			<point x="841" y="1000.57"/>
			<point x="845.857" y="949.571" type="curve"/>
			<point x="833.714" y="949.571" type="line"/>
			<point x="787.857" y="1043.29"/>
			<point x="688.714" y="1139"/>
			<point x="511.571" y="1139" type="curve" smooth="yes"/>
			<point x="261.714" y="1139"/>
			<point x="91.7143" y="940.286"/>
			<point x="91.7143" y="562.714" type="curve" smooth="yes"/>
			<point x="91.7143" y="185.714"/>
			<point x="291.571" y="-20"/>
		</contour>
		<contour>
			<point x="615.286" y="221" type="curve" smooth="yes"/>
			<point x="474.143" y="221"/>
			<point x="396.714" y="321.857"/>
			<point x="396.714" y="561.286" type="curve" smooth="yes"/>
			<point x="396.714" y="789.143"/>
			<point x="479" y="900.857"/>
			<point x="613" y="900.857" type="curve" smooth="yes"/>
			<point x="763.857" y="900.857"/>
			<point x="833.714" y="792.857"/>
			<point x="833.714" y="564.714" type="curve" smooth="yes"/>
			<point x="833.714" y="311.429"/>
			<point x="757.286" y="221"/>
		</contour>
		<contour>
			<point x="1350.43" y="221" type="curve" smooth="yes"/>
			<point x="1210.43" y="221"/>
			<point x="1133.43" y="311.143"/>
			<point x="1133.43" y="564.714" type="curve" smooth="yes"/>
			<point x="1133.43" y="794.286"/>
			<point x="1205" y="900.857"/>
			<point x="1353" y="900.857" type="curve" smooth="yes"/>
			<point x="1488.14" y="900.857"/>
			<point x="1570.43" y="784.857"/>
			<point x="1570.43" y="557" type="curve" smooth="yes"/>
			<point x="1570.43" y="315.429"/>
			<point x="1493" y="221"/>
		</contour>
	</outline>
	<anchor name="bottom" x="983.571" y="0"/>
	<anchor name="top" x="983.571" y="1556"/>
</glyph>
<glyph name="uni0239" format="2">
	<unicode hex="0239"/>
	<advance width="1967"/>
	<outline>
		<contour>
			<point x="1366.86" y="1139" type="curve" smooth="yes"/>
			<point x="1196" y="1139"/>
			<point x="1060.43" y="1068.29"/>
			<point x="986.429" y="937.143" type="curve"/>
			<point x="911" y="1068.29"/>
			<point x="782.857" y="1139"/>
			<point x="611" y="1139" type="curve" smooth="yes"/>
			<point x="306.571" y="1139"/>
			<point x="91.7143" y="945.857"/>
			<point x="91.7143" y="561.286" type="curve" smooth="yes"/>
			<point x="91.7143" y="180.571"/>
			<point x="264.571" y="-20"/>
			<point x="511.571" y="-20" type="curve" smooth="yes"/>
			<point x="688.714" y="-20"/>
			<point x="786.429" y="71.8571"/>
			<point x="833.714" y="168.429" type="curve"/>
			<point x="845.857" y="168.429" type="line"/>
			<point x="839.571" y="107.429"/>
			<point x="833.714" y="39"/>
			<point x="833.714" y="-52" type="curve" smooth="yes"/>
			<point x="833.714" y="-493.714" type="line"/>
			<point x="1133.43" y="-493.714" type="line"/>
			<point x="1133.43" y="-52" type="line" smooth="yes"/>
			<point x="1133.43" y="32.5714"/>
			<point x="1128.57" y="103.143"/>
			<point x="1121.57" y="168.429" type="curve"/>
			<point x="1133.43" y="168.429" type="line"/>
			<point x="1177.86" y="74.7143"/>
			<point x="1277.29" y="-20"/>
			<point x="1455.86" y="-20" type="curve" smooth="yes"/>
			<point x="1704" y="-20"/>
			<point x="1874" y="177.714"/>
			<point x="1874" y="555.571" type="curve" smooth="yes"/>
			<point x="1874" y="933"/>
			<point x="1675.57" y="1139"/>
		</contour>
		<contour>
			<point x="616.714" y="898" type="curve" smooth="yes"/>
			<point x="756.714" y="898"/>
			<point x="833.714" y="805.714"/>
			<point x="833.714" y="552.143" type="curve" smooth="yes"/>
			<point x="833.714" y="324.429"/>
			<point x="762.429" y="218.143"/>
			<point x="613" y="218.143" type="curve" smooth="yes"/>
			<point x="479" y="218.143"/>
			<point x="396.714" y="332.429"/>
			<point x="396.714" y="561.286" type="curve" smooth="yes"/>
			<point x="396.714" y="802.571"/>
			<point x="474.143" y="898"/>
		</contour>
		<contour>
			<point x="1351.86" y="898" type="curve" smooth="yes"/>
			<point x="1491.57" y="898"/>
			<point x="1570.43" y="796.857"/>
			<point x="1570.43" y="555.571" type="curve" smooth="yes"/>
			<point x="1570.43" y="329.571"/>
			<point x="1488.14" y="218.143"/>
			<point x="1353" y="218.143" type="curve" smooth="yes"/>
			<point x="1203.57" y="218.143"/>
			<point x="1133.43" y="324.429"/>
			<point x="1133.43" y="552.143" type="curve" smooth="yes"/>
			<point x="1133.43" y="805.429"/>
			<point x="1210.14" y="898"/>
		</contour>
	</outline>
	<anchor name="bottom" x="983.571" y="-493.714"/>
	<anchor name="top" x="983.571" y="1118.14"/>
</glyph>
<glyph name="uni023A" format="2">
	<unicode hex="023A"/>
	<advance width="1406"/>
	<outline>
		<component base="A"/>
		<contour>
			<point x="1155.57" y="1556" type="line"/>
			<point x="963.286" y="1556" type="line"/>
			<point x="369.286" y="-154" type="line"/>
			<point x="561.571" y="-154" type="line"/>
		</contour>
	</outline>
	<anchor name="bottom" x="699.857" y="0"/>
	<anchor name="top" x="699.857" y="1462"/>
</glyph>
<glyph name="uni023C" format="2">
	<unicode hex="023C"/>
	<advance width="1055"/>
	<outline>
		<component base="c"/>
		<contour>
			<point x="1064" y="1513.43" type="line"/>
			<point x="871.429" y="1513.43" type="line"/>
			<point x="196" y="-390.857" type="line"/>
			<point x="390" y="-390.857" type="line"/>
		</contour>
	</outline>
	<anchor name="bottom" x="633.857" y="-390.857"/>
	<anchor name="top" x="607.714" y="1513.43"/>
</glyph>
<glyph name="uni023D" format="2">
	<unicode hex="023D"/>
	<advance width="1147"/>
	<outline>
		<component base="L"/>
		<contour>
			<point x="20.4286" y="602.429" type="line"/>
			<point x="787.143" y="602.429" type="line"/>
			<point x="787.143" y="839.857" type="line"/>
			<point x="20.4286" y="839.857" type="line"/>
		</contour>
	</outline>
	<anchor name="bottom" x="617.857" y="0"/>
	<anchor name="top" x="316.571" y="1462"/>
</glyph>
<glyph name="uni023F" format="2">
	<unicode hex="023F"/>
	<advance width="1048"/>
	<outline>
		<contour>
			<point x="725" y="-492" type="curve" smooth="yes"/>
			<point x="808.143" y="-492"/>
			<point x="871.857" y="-476.429"/>
			<point x="910" y="-464.429" type="curve"/>
			<point x="910" y="-249.143" type="line"/>
			<point x="878.429" y="-259.571"/>
			<point x="836.286" y="-272.143"/>
			<point x="785" y="-272.143" type="curve" smooth="yes"/>
			<point x="686" y="-272.143"/>
			<point x="653" y="-232.857"/>
			<point x="603" y="-111.714" type="curve"/>
			<point x="588.143" y="-72.4286"/>
			<point x="573" y="-39"/>
			<point x="548.571" y="-17.1429" type="curve"/>
			<point x="829" y="-3.42857"/>
			<point x="962" y="125.429"/>
			<point x="962" y="326.857" type="curve" smooth="yes"/>
			<point x="962" y="528.143"/>
			<point x="841.286" y="600.143"/>
			<point x="649.857" y="673.857" type="curve"/>
			<point x="467.429" y="742.571"/>
			<point x="400" y="761"/>
			<point x="400" y="839.714" type="curve" smooth="yes"/>
			<point x="400" y="902.571"/>
			<point x="458.857" y="935.286"/>
			<point x="559.143" y="935.286" type="curve" smooth="yes"/>
			<point x="638.143" y="935.286"/>
			<point x="763.429" y="904.571"/>
			<point x="865.857" y="857.571" type="curve"/>
			<point x="947.857" y="1052.14" type="line"/>
			<point x="822.571" y="1107.14"/>
			<point x="701" y="1138.43"/>
			<point x="557.714" y="1138.43" type="curve" smooth="yes"/>
			<point x="291.571" y="1138.43"/>
			<point x="117.857" y="1028.86"/>
			<point x="117.857" y="823.286" type="curve" smooth="yes"/>
			<point x="117.857" y="633"/>
			<point x="227.286" y="559"/>
			<point x="416.143" y="487" type="curve" smooth="yes"/>
			<point x="604" y="415.857"/>
			<point x="682.429" y="389"/>
			<point x="682.429" y="308.286" type="curve" smooth="yes"/>
			<point x="682.429" y="237.286"/>
			<point x="625.429" y="197.429"/>
			<point x="491.714" y="197.429" type="curve" smooth="yes"/>
			<point x="394" y="197.429"/>
			<point x="242.286" y="224.143"/>
			<point x="109.286" y="286" type="curve"/>
			<point x="109.286" y="46.7143" type="line"/>
			<point x="129.286" y="37.8571"/>
			<point x="169.143" y="27"/>
			<point x="198" y="19.2857" type="curve"/>
			<point x="280.857" y="-6.28571"/>
			<point x="325.571" y="-70.8571"/>
			<point x="362.571" y="-182.571" type="curve" smooth="yes"/>
			<point x="424" y="-366.571"/>
			<point x="490.143" y="-492"/>
		</contour>
	</outline>
	<anchor name="bottom" x="524.714" y="-492"/>
	<anchor name="top" x="524.714" y="1118.14"/>
</glyph>
<glyph name="uni0240" format="2">
	<unicode hex="0240"/>
	<advance width="998"/>
	<outline>
		<contour>
			<point x="807.143" y="-492" type="curve" smooth="yes"/>
			<point x="881" y="-492"/>
			<point x="958.714" y="-480.714"/>
			<point x="1005.86" y="-464.429" type="curve"/>
			<point x="1005.86" y="-230.571" type="line"/>
			<point x="964.571" y="-243.143"/>
			<point x="922.143" y="-248.571"/>
			<point x="868" y="-248.571" type="curve" smooth="yes"/>
			<point x="771.429" y="-248.571"/>
			<point x="718.714" y="-199.857"/>
			<point x="651.571" y="-43.1429" type="curve" smooth="yes"/>
			<point x="604.857" y="66.5714"/>
			<point x="528.429" y="172.143"/>
			<point x="387.857" y="201.714" type="curve"/>
			<point x="920" y="923.143" type="line"/>
			<point x="920" y="1118.14" type="line"/>
			<point x="88.2857" y="1118.14" type="line"/>
			<point x="88.2857" y="890" type="line"/>
			<point x="580.571" y="890" type="line"/>
			<point x="54.7143" y="176.429" type="line"/>
			<point x="54.7143" y="0" type="line"/>
			<point x="166.714" y="0" type="line" smooth="yes"/>
			<point x="300.286" y="0"/>
			<point x="355.571" y="-57.2857"/>
			<point x="401.143" y="-182.571" type="curve" smooth="yes"/>
			<point x="462.429" y="-350.286"/>
			<point x="543.286" y="-492"/>
		</contour>
	</outline>
	<anchor name="bottom" x="499.143" y="-492"/>
	<anchor name="top" x="499.143" y="1118.14"/>
</glyph>
<glyph name="uni0242" format="2">
	<unicode hex="0242"/>
	<advance width="997"/>
	<outline>
		<contour>
			<point x="449.857" y="1137.29" type="curve" smooth="yes"/>
			<point x="275.286" y="1137.29"/>
			<point x="136.714" y="1088.29"/>
			<point x="3.71429" y="1016.29" type="curve"/>
			<point x="110.429" y="800.714" type="line"/>
			<point x="169.143" y="832.571"/>
			<point x="286.143" y="896.286"/>
			<point x="415.714" y="896.286" type="curve" smooth="yes"/>
			<point x="533.714" y="896.286"/>
			<point x="626.857" y="815.429"/>
			<point x="626.857" y="696" type="curve" smooth="yes"/>
			<point x="626.857" y="568.286"/>
			<point x="545.571" y="427.286"/>
			<point x="258.571" y="326.857" type="curve"/>
			<point x="258.571" y="0" type="line"/>
			<point x="561.857" y="0" type="line"/>
			<point x="561.857" y="199.143" type="line"/>
			<point x="811.429" y="327.429"/>
			<point x="930.429" y="478"/>
			<point x="930.429" y="709.286" type="curve" smooth="yes"/>
			<point x="930.429" y="950.857"/>
			<point x="750.429" y="1137.29"/>
		</contour>
	</outline>
	<anchor name="bottom" x="499.571" y="0"/>
	<anchor name="top" x="499.571" y="1118.14"/>
</glyph>
<glyph name="uni0244" format="2">
	<unicode hex="0244"/>
	<advance width="1524"/>
	<outline>
		<component base="U"/>
		<contour>
			<point x="4.85714" y="682.429" type="line"/>
			<point x="1520" y="682.429" type="line"/>
			<point x="1520" y="932.714" type="line"/>
			<point x="4.85714" y="932.714" type="line"/>
		</contour>
	</outline>
	<anchor name="bottom" x="759.714" y="0"/>
	<anchor name="top" x="762.571" y="1462"/>
</glyph>
<glyph name="uni024A" format="2">
	<unicode hex="024A"/>
	<advance width="1582"/>
	<outline>
		<contour>
			<point x="682.143" y="1483.29" type="curve" smooth="yes"/>
			<point x="363.571" y="1483.29"/>
			<point x="118.714" y="1226.43"/>
			<point x="118.714" y="732.714" type="curve" smooth="yes"/>
			<point x="118.714" y="240.714"/>
			<point x="354.429" y="-20"/>
			<point x="679" y="-20" type="curve" smooth="yes"/>
			<point x="894.857" y="-20"/>
			<point x="1023.43" y="75.8571"/>
			<point x="1104.29" y="215.143" type="curve"/>
			<point x="1117.57" y="215.143" type="line"/>
			<point x="1115.57" y="112.429"/>
			<point x="1116.43" y="45.7143"/>
			<point x="1116.43" y="-50.7143" type="curve" smooth="yes"/>
			<point x="1116.43" y="-138.857" type="line" smooth="yes"/>
			<point x="1116.43" y="-390.429"/>
			<point x="1250.57" y="-493.714"/>
			<point x="1470.86" y="-493.714" type="curve" smooth="yes"/>
			<point x="1538.57" y="-493.714"/>
			<point x="1609.14" y="-477.571"/>
			<point x="1642.43" y="-462.714" type="curve"/>
			<point x="1642.43" y="-234.571" type="line"/>
			<point x="1618" y="-242.286"/>
			<point x="1577" y="-256"/>
			<point x="1526.29" y="-256" type="curve" smooth="yes"/>
			<point x="1465.29" y="-256"/>
			<point x="1419.43" y="-218"/>
			<point x="1419.43" y="-133.429" type="curve" smooth="yes"/>
			<point x="1419.43" y="1462" type="line"/>
			<point x="1134.71" y="1462" type="line"/>
			<point x="1112" y="1268.43" type="line"/>
			<point x="1105.14" y="1268.43" type="line"/>
			<point x="1033.14" y="1387.57"/>
			<point x="895.714" y="1483.29"/>
		</contour>
		<contour>
			<point x="768" y="1228.43" type="curve" smooth="yes"/>
			<point x="988.714" y="1228.43"/>
			<point x="1116.43" y="1091.43"/>
			<point x="1116.43" y="752.429" type="curve"/>
			<point x="1116.43" y="768.714" type="line"/>
			<point x="1116.43" y="364.286"/>
			<point x="964" y="233.857"/>
			<point x="775.143" y="233.857" type="curve" smooth="yes"/>
			<point x="559.571" y="233.857"/>
			<point x="437.286" y="404.571"/>
			<point x="437.286" y="727.857" type="curve" smooth="yes"/>
			<point x="437.286" y="1040.43"/>
			<point x="564.143" y="1228.43"/>
		</contour>
	</outline>
	<anchor name="bottom" x="791.286" y="-493.714"/>
	<anchor name="top" x="791.286" y="1462"/>
</glyph>
<glyph name="uni024B" format="2">
	<unicode hex="024B"/>
	<advance width="1292"/>
	<outline>
		<contour>
			<point x="521.143" y="1138.43" type="curve" smooth="yes"/>
			<point x="264" y="1138.43"/>
			<point x="90" y="933"/>
			<point x="90" y="558.429" type="curve" smooth="yes"/>
			<point x="90" y="177.714"/>
			<point x="255.429" y="-20.8571"/>
			<point x="506.714" y="-20.8571" type="curve" smooth="yes"/>
			<point x="681.571" y="-20.8571"/>
			<point x="785.571" y="67"/>
			<point x="832" y="167.857" type="curve"/>
			<point x="843.857" y="167.857" type="line"/>
			<point x="837.571" y="109.143"/>
			<point x="832" y="32"/>
			<point x="832" y="-30.4286" type="curve" smooth="yes"/>
			<point x="832" y="-147.429" type="line" smooth="yes"/>
			<point x="832" y="-352.571"/>
			<point x="914" y="-493.714"/>
			<point x="1160.71" y="-493.714" type="curve" smooth="yes"/>
			<point x="1232.71" y="-493.714"/>
			<point x="1304.71" y="-484.714"/>
			<point x="1348" y="-461.286" type="curve"/>
			<point x="1348" y="-234.571" type="line"/>
			<point x="1309.29" y="-246.571"/>
			<point x="1283.29" y="-254.571"/>
			<point x="1236.86" y="-254.571" type="curve" smooth="yes"/>
			<point x="1168.29" y="-254.571"/>
			<point x="1131.71" y="-211.571"/>
			<point x="1131.71" y="-140.571" type="curve" smooth="yes"/>
			<point x="1131.71" y="1118.14" type="line"/>
			<point x="878.857" y="1118.14" type="line"/>
			<point x="854.143" y="957.286" type="line"/>
			<point x="847.286" y="957.286" type="line"/>
			<point x="793.143" y="1052.71"/>
			<point x="696.571" y="1138.43"/>
		</contour>
		<contour>
			<point x="620.429" y="896" type="curve" smooth="yes"/>
			<point x="787.429" y="896"/>
			<point x="852.714" y="776.714"/>
			<point x="852.714" y="557.286" type="curve" smooth="yes"/>
			<point x="852.714" y="518" type="line"/>
			<point x="848.429" y="316.571"/>
			<point x="779.143" y="213.286"/>
			<point x="618.143" y="213.286" type="curve" smooth="yes"/>
			<point x="463.429" y="213.286"/>
			<point x="395" y="326.714"/>
			<point x="395" y="555.571" type="curve" smooth="yes"/>
			<point x="395" y="773.286"/>
			<point x="468" y="896"/>
		</contour>
	</outline>
	<anchor name="bottom" x="646.571" y="-493.714"/>
	<anchor name="top" x="646.571" y="1118.14"/>
</glyph>
<glyph name="uni024C" format="2">
	<unicode hex="024C"/>
	<advance width="1347"/>
	<outline>
		<component base="R"/>
		<contour>
			<point x="245.714" y="562.857" type="line"/>
			<point x="245.714" y="810.571" type="line"/>
			<point x="20" y="810.571" type="line"/>
			<point x="20" y="562.857" type="line"/>
		</contour>
	</outline>
	<anchor name="bottom" x="691.571" y="0"/>
	<anchor name="top" x="664.857" y="1462"/>
</glyph>
<glyph name="uni0250" format="2">
	<unicode hex="0250"/>
	<advance width="1211"/>
	<outline>
		<contour>
			<point x="564.571" y="-19.7143" type="curve" smooth="yes"/>
			<point x="745.571" y="-19.7143"/>
			<point x="895" y="14.1429"/>
			<point x="1019.43" y="76" type="curve"/>
			<point x="933.571" y="275.429" type="line"/>
			<point x="820.857" y="223.571"/>
			<point x="711.429" y="192"/>
			<point x="616" y="192" type="curve" smooth="yes"/>
			<point x="501.714" y="192"/>
			<point x="436.857" y="248.714"/>
			<point x="436.857" y="391.143" type="curve" smooth="yes"/>
			<point x="436.857" y="427.714" type="line"/>
			<point x="632.143" y="435.429" type="line"/>
			<point x="951.714" y="451.286"/>
			<point x="1129.71" y="561.286"/>
			<point x="1129.71" y="795.571" type="curve" smooth="yes"/>
			<point x="1129.71" y="1021.86"/>
			<point x="993" y="1138.14"/>
			<point x="790.286" y="1138.14" type="curve" smooth="yes"/>
			<point x="592.857" y="1138.14"/>
			<point x="497.143" y="1072.86"/>
			<point x="411.571" y="950.714" type="curve"/>
			<point x="404.714" y="950.714" type="line"/>
			<point x="348.857" y="1118.14" type="line"/>
			<point x="142.143" y="1118.14" type="line"/>
			<point x="142.143" y="382.571" type="line" smooth="yes"/>
			<point x="142.143" y="118.714"/>
			<point x="295.857" y="-19.7143"/>
		</contour>
		<contour>
			<point x="435.429" y="595.857" type="line"/>
			<point x="435.429" y="690.714" type="line"/>
			<point x="436.571" y="830.143"/>
			<point x="526.857" y="926.429"/>
			<point x="671.714" y="926.429" type="curve" smooth="yes"/>
			<point x="770" y="926.429"/>
			<point x="829.571" y="876.286"/>
			<point x="829.571" y="779.143" type="curve" smooth="yes"/>
			<point x="829.571" y="666"/>
			<point x="741.143" y="609.857"/>
			<point x="558.857" y="601.571" type="curve" smooth="yes"/>
		</contour>
	</outline>
	<anchor name="bottom" x="606.143" y="0"/>
	<anchor name="top" x="606.143" y="1118.14"/>
</glyph>
<glyph name="uni0252" format="2">
	<unicode hex="0252"/>
	<advance width="1292"/>
	<outline>
		<contour>
			<point x="758.714" y="1138.14" type="curve" smooth="yes"/>
			<point x="571.571" y="1138.14"/>
			<point x="473.286" y="1044.14"/>
			<point x="416.429" y="944.571" type="curve"/>
			<point x="406.714" y="944.571" type="line"/>
			<point x="362.429" y="1088.71"/>
			<point x="290.143" y="1138.14"/>
			<point x="140" y="1138.14" type="curve" smooth="yes"/>
			<point x="99.5714" y="1138.14"/>
			<point x="25.7143" y="1126.43"/>
			<point x="6.28571" y="1115.57" type="curve"/>
			<point x="6.28571" y="893.714" type="line"/>
			<point x="20" y="898.857"/>
			<point x="49.5714" y="904.286"/>
			<point x="70.1429" y="904.286" type="curve" smooth="yes"/>
			<point x="121.429" y="904.286"/>
			<point x="158.429" y="873.143"/>
			<point x="158.429" y="757" type="curve" smooth="yes"/>
			<point x="158.429" y="0" type="line"/>
			<point x="402.429" y="0" type="line"/>
			<point x="440.286" y="155.286" type="line"/>
			<point x="448.571" y="155.286" type="line"/>
			<point x="503.714" y="59.1429"/>
			<point x="593" y="-20.2857"/>
			<point x="761" y="-20.2857" type="curve" smooth="yes"/>
			<point x="1028.14" y="-20.2857"/>
			<point x="1195.86" y="180.143"/>
			<point x="1195.86" y="563.714" type="curve" smooth="yes"/>
			<point x="1195.86" y="940.714"/>
			<point x="1035.57" y="1138.14"/>
		</contour>
		<contour>
			<point x="663.714" y="904.286" type="curve" smooth="yes"/>
			<point x="814.286" y="904.286"/>
			<point x="898" y="796.571"/>
			<point x="898" y="565.143" type="curve" smooth="yes"/>
			<point x="898" y="331.571"/>
			<point x="811.429" y="219.286"/>
			<point x="657.429" y="219.286" type="curve" smooth="yes"/>
			<point x="507.857" y="219.286"/>
			<point x="432.286" y="327.571"/>
			<point x="432.286" y="542.429" type="curve" smooth="yes"/>
			<point x="432.286" y="577.714" type="line" smooth="yes"/>
			<point x="432.286" y="789.143"/>
			<point x="510.429" y="904.286"/>
		</contour>
	</outline>
	<anchor name="bottom" x="646.571" y="0"/>
	<anchor name="top" x="646.571" y="1118.14"/>
</glyph>
<glyph name="uni0253" format="2">
	<unicode hex="0253"/>
	<advance width="1292"/>
	<outline>
		<contour>
			<point x="524.143" y="1569.86" type="curve" smooth="yes"/>
			<point x="305.857" y="1569.86"/>
			<point x="159.143" y="1467"/>
			<point x="159.143" y="1217.14" type="curve" smooth="yes"/>
			<point x="159.143" y="0" type="line"/>
			<point x="394.143" y="0" type="line"/>
			<point x="440.286" y="135.143" type="line"/>
			<point x="459.286" y="135.143" type="line"/>
			<point x="512.571" y="57.2857"/>
			<point x="594.286" y="-20"/>
			<point x="769.714" y="-20" type="curve" smooth="yes"/>
			<point x="1029" y="-20"/>
			<point x="1200.14" y="183.714"/>
			<point x="1200.14" y="562.143" type="curve" smooth="yes"/>
			<point x="1200.14" y="939.714"/>
			<point x="1029" y="1139"/>
			<point x="786.286" y="1139" type="curve" smooth="yes"/>
			<point x="611.429" y="1139"/>
			<point x="506" y="1049"/>
			<point x="458.143" y="949.571" type="curve"/>
			<point x="446" y="949.571" type="line"/>
			<point x="451.571" y="1011.86"/>
			<point x="458.143" y="1087.14"/>
			<point x="458.143" y="1163.14" type="curve" smooth="yes"/>
			<point x="458.143" y="1208" type="line"/>
			<point x="462.429" y="1293.29"/>
			<point x="497.286" y="1331"/>
			<point x="572" y="1331" type="curve" smooth="yes"/>
			<point x="624.286" y="1331"/>
			<point x="668.714" y="1319.57"/>
			<point x="690.143" y="1311.57" type="curve"/>
			<point x="690.143" y="1538.86" type="line"/>
			<point x="660.429" y="1550.86"/>
			<point x="596.714" y="1569.86"/>
		</contour>
		<contour>
			<point x="685.571" y="900.857" type="curve" smooth="yes"/>
			<point x="814.571" y="900.857"/>
			<point x="895.143" y="787.429"/>
			<point x="895.143" y="565" type="curve" smooth="yes"/>
			<point x="895.143" y="342.714"/>
			<point x="809.714" y="222.429"/>
			<point x="680.429" y="222.429" type="curve" smooth="yes"/>
			<point x="518.286" y="222.429"/>
			<point x="458.143" y="341.286"/>
			<point x="458.143" y="579.714" type="curve"/>
			<point x="462.429" y="795.143"/>
			<point x="532.857" y="900.857"/>
		</contour>
	</outline>
	<anchor name="bottom" x="646.571" y="0"/>
	<anchor name="top" x="646.571" y="1569.86"/>
</glyph>
<glyph name="uni0256" format="2">
	<unicode hex="0256"/>
	<advance width="1292"/>
	<outline>
		<contour>
			<point x="1174.71" y="-490" type="curve" smooth="yes"/>
			<point x="1251.86" y="-490"/>
			<point x="1323" y="-470.714"/>
			<point x="1365.43" y="-455" type="curve"/>
			<point x="1365.43" y="-232.571" type="line"/>
			<point x="1328.71" y="-244"/>
			<point x="1295.57" y="-251.143"/>
			<point x="1249.14" y="-251.143" type="curve" smooth="yes"/>
			<point x="1175.71" y="-251.143"/>
			<point x="1132.29" y="-207"/>
			<point x="1132.29" y="-110.286" type="curve" smooth="yes"/>
			<point x="1132.29" y="1556" type="line"/>
			<point x="834" y="1556" type="line"/>
			<point x="834" y="1198.43" type="line" smooth="yes"/>
			<point x="834" y="1109.57"/>
			<point x="840.429" y="1025.29"/>
			<point x="847.286" y="949" type="curve"/>
			<point x="837.571" y="949" type="line"/>
			<point x="790.429" y="1044.14"/>
			<point x="700.857" y="1138.43"/>
			<point x="518" y="1138.43" type="curve" smooth="yes"/>
			<point x="267.143" y="1138.43"/>
			<point x="94.8571" y="938.571"/>
			<point x="94.8571" y="557.857" type="curve" smooth="yes"/>
			<point x="94.8571" y="178.571"/>
			<point x="258.857" y="-20"/>
			<point x="503" y="-20" type="curve" smooth="yes"/>
			<point x="685.857" y="-20"/>
			<point x="784.714" y="71"/>
			<point x="832.571" y="167.857" type="curve"/>
			<point x="843" y="167.857" type="line"/>
			<point x="838.143" y="107.714"/>
			<point x="832.571" y="22"/>
			<point x="832.571" y="-55.4286" type="curve" smooth="yes"/>
			<point x="832.571" y="-131.714" type="line" smooth="yes"/>
			<point x="832.571" y="-348.286"/>
			<point x="922.571" y="-490"/>
		</contour>
		<contour>
			<point x="623" y="215.286" type="curve" smooth="yes"/>
			<point x="480.143" y="215.286"/>
			<point x="392.714" y="320.143"/>
			<point x="392.714" y="553.571" type="curve" smooth="yes"/>
			<point x="392.714" y="776.143"/>
			<point x="479.857" y="897.429"/>
			<point x="630.143" y="897.429" type="curve" smooth="yes"/>
			<point x="784.857" y="897.429"/>
			<point x="857" y="790.857"/>
			<point x="857" y="565" type="curve" smooth="yes"/>
			<point x="857" y="537.571" type="line" smooth="yes"/>
			<point x="857" y="326.143"/>
			<point x="778.571" y="215.286"/>
		</contour>
	</outline>
	<anchor name="bottom" x="646.571" y="-490"/>
	<anchor name="top" x="646.571" y="1556"/>
	<anchor name="topright" x="1211.57" y="1556"/>
</glyph>
<glyph name="uni0257" format="2">
	<unicode hex="0257"/>
	<advance width="1292"/>
	<outline>
		<contour>
			<point x="513.571" y="-20" type="curve" smooth="yes"/>
			<point x="686.429" y="-20"/>
			<point x="783.286" y="64.7143"/>
			<point x="836.571" y="168.143" type="curve"/>
			<point x="848.714" y="168.143" type="line"/>
			<point x="909.857" y="0" type="line"/>
			<point x="1133.43" y="0" type="line"/>
			<point x="1133.43" y="1208.14" type="line" smooth="yes"/>
			<point x="1133.43" y="1291.57"/>
			<point x="1173.57" y="1339.43"/>
			<point x="1245.43" y="1339.43" type="curve" smooth="yes"/>
			<point x="1296.14" y="1339.43"/>
			<point x="1343.43" y="1331.14"/>
			<point x="1373" y="1319.57" type="curve"/>
			<point x="1373" y="1546.86" type="line"/>
			<point x="1336" y="1559.57"/>
			<point x="1257.14" y="1573.57"/>
			<point x="1161.86" y="1573.57" type="curve" smooth="yes"/>
			<point x="979.143" y="1573.57"/>
			<point x="836.571" y="1474.29"/>
			<point x="836.571" y="1251.86" type="curve" smooth="yes"/>
			<point x="836.571" y="1169.14" type="line" smooth="yes"/>
			<point x="836.571" y="1096"/>
			<point x="841.571" y="1022.14"/>
			<point x="850.143" y="948.714" type="curve"/>
			<point x="843" y="948.714" type="line"/>
			<point x="787.286" y="1056.71"/>
			<point x="693" y="1138.43"/>
			<point x="528.857" y="1138.43" type="curve" smooth="yes"/>
			<point x="265.429" y="1138.43"/>
			<point x="96" y="935.714"/>
			<point x="96" y="552.143" type="curve" smooth="yes"/>
			<point x="96" y="178.571"/>
			<point x="258" y="-20"/>
		</contour>
		<contour>
			<point x="627.857" y="215.286" type="curve" smooth="yes"/>
			<point x="479.286" y="215.286"/>
			<point x="393.857" y="320.143"/>
			<point x="393.857" y="547.857" type="curve" smooth="yes"/>
			<point x="393.857" y="785.429"/>
			<point x="485.286" y="898.857"/>
			<point x="629.571" y="898.857" type="curve" smooth="yes"/>
			<point x="797.143" y="898.857"/>
			<point x="860.143" y="777"/>
			<point x="860.143" y="556.429" type="curve" smooth="yes"/>
			<point x="860.143" y="532.571" type="line"/>
			<point x="857.286" y="324.714"/>
			<point x="794.857" y="215.286"/>
		</contour>
	</outline>
	<anchor name="bottom" x="646.571" y="0"/>
	<anchor name="top" x="646.571" y="1573.57"/>
</glyph>
<glyph name="eopenreversedhook" format="2">
	<unicode hex="025D"/>
	<advance width="1486"/>
	<outline>
		<component base="afii10073"/>
		<contour>
			<point x="1275.71" y="547.714" type="curve" smooth="yes"/>
			<point x="1361.71" y="547.714"/>
			<point x="1427.14" y="576.714"/>
			<point x="1486.14" y="618.857" type="curve"/>
			<point x="1415.86" y="783.286" type="line"/>
			<point x="1381.57" y="760.571"/>
			<point x="1347.43" y="739.714"/>
			<point x="1289.71" y="739.714" type="curve" smooth="yes"/>
			<point x="1211" y="739.714"/>
			<point x="1188.57" y="792.714"/>
			<point x="1153.14" y="926.286" type="curve"/>
			<point x="1126.71" y="1018.29" type="line"/>
			<point x="740.571" y="910.429" type="line"/>
			<point x="787.571" y="736.857" type="line"/>
			<point x="993.571" y="792.429" type="line"/>
			<point x="1040.57" y="636.571"/>
			<point x="1119.14" y="547.714"/>
		</contour>
	</outline>
	<anchor name="bottom" x="494.286" y="0"/>
	<anchor name="top" x="494.286" y="1118.14"/>
</glyph>
<glyph name="uni0261" format="2">
	<unicode hex="0261"/>
	<advance width="1282"/>
	<outline>
		<contour>
			<point x="525.429" y="1138.43" type="curve" smooth="yes"/>
			<point x="261.143" y="1138.43"/>
			<point x="96" y="928.857"/>
			<point x="96" y="553.286" type="curve" smooth="yes"/>
			<point x="96" y="177.429"/>
			<point x="260.571" y="-20"/>
			<point x="512.857" y="-20" type="curve" smooth="yes"/>
			<point x="681.571" y="-20"/>
			<point x="785" y="57.8571"/>
			<point x="837.571" y="170.714" type="curve"/>
			<point x="847.286" y="170.714" type="line"/>
			<point x="840.429" y="108.571"/>
			<point x="837.571" y="59.2857"/>
			<point x="837.571" y="11.4286" type="curve" smooth="yes"/>
			<point x="837.571" y="-27.4286" type="line" smooth="yes"/>
			<point x="837.571" y="-172.714"/>
			<point x="751.571" y="-258.571"/>
			<point x="556.143" y="-258.571" type="curve" smooth="yes"/>
			<point x="385.286" y="-258.571"/>
			<point x="273.143" y="-227.429"/>
			<point x="147.286" y="-172.571" type="curve"/>
			<point x="147.286" y="-423.143" type="line"/>
			<point x="267.429" y="-469.857"/>
			<point x="394.429" y="-492"/>
			<point x="572.571" y="-492" type="curve" smooth="yes"/>
			<point x="958.429" y="-492"/>
			<point x="1132.29" y="-318.857"/>
			<point x="1132.29" y="-16" type="curve" smooth="yes"/>
			<point x="1132.29" y="1118.14" type="line"/>
			<point x="878" y="1118.14" type="line"/>
			<point x="854.143" y="965" type="line"/>
			<point x="847.286" y="965" type="line"/>
			<point x="788.857" y="1063.29"/>
			<point x="694.429" y="1138.43"/>
		</contour>
		<contour>
			<point x="630.429" y="907.429" type="curve" smooth="yes"/>
			<point x="808.571" y="907.429"/>
			<point x="859" y="779.429"/>
			<point x="859" y="579.857" type="curve" smooth="yes"/>
			<point x="859" y="518.286" type="line" smooth="yes"/>
			<point x="859" y="338.286"/>
			<point x="808.571" y="211"/>
			<point x="626.429" y="211" type="curve" smooth="yes"/>
			<point x="473.571" y="211"/>
			<point x="395.286" y="316.571"/>
			<point x="395.286" y="549" type="curve" smooth="yes"/>
			<point x="395.286" y="779.714"/>
			<point x="471.286" y="907.429"/>
		</contour>
	</outline>
	<anchor name="bottom" x="599.429" y="-492"/>
	<anchor name="top" x="630.143" y="1118.14"/>
	<anchor name="topright" x="1211.57" y="1118.14"/>
</glyph>
<glyph name="uni0262" format="2">
	<unicode hex="0262"/>
	<advance width="1228"/>
	<outline>
		<contour>
			<point x="702.143" y="1138.14" type="curve" smooth="yes"/>
			<point x="292.429" y="1138.14"/>
			<point x="89.7143" y="880.143"/>
			<point x="89.7143" y="560.143" type="curve" smooth="yes"/>
			<point x="89.7143" y="207.286"/>
			<point x="285.714" y="-21"/>
			<point x="689.714" y="-21" type="curve" smooth="yes"/>
			<point x="865.857" y="-21"/>
			<point x="1008.71" y="27"/>
			<point x="1105.86" y="70" type="curve"/>
			<point x="1105.86" y="628.571" type="line"/>
			<point x="605.143" y="628.571" type="line"/>
			<point x="605.143" y="431.143" type="line"/>
			<point x="818.571" y="431.143" type="line"/>
			<point x="818.571" y="241.571" type="line"/>
			<point x="771.571" y="228.143"/>
			<point x="735.286" y="219.286"/>
			<point x="680.286" y="219.286" type="curve" smooth="yes"/>
			<point x="482.714" y="219.286"/>
			<point x="393.571" y="351.857"/>
			<point x="393.571" y="560.714" type="curve" smooth="yes"/>
			<point x="393.571" y="791.714"/>
			<point x="540.286" y="898.571"/>
			<point x="717.571" y="898.571" type="curve" smooth="yes"/>
			<point x="831.429" y="898.571"/>
			<point x="916.571" y="866.714"/>
			<point x="999.714" y="820.286" type="curve"/>
			<point x="1088.57" y="1049" type="line"/>
			<point x="953.571" y="1117"/>
			<point x="837.143" y="1138.14"/>
		</contour>
	</outline>
	<anchor name="bottom" x="614.429" y="0"/>
	<anchor name="top" x="614.429" y="1118.14"/>
	<anchor name="topright" x="1132.43" y="1118.14"/>
</glyph>
<glyph name="uni0263" format="2">
	<unicode hex="0263"/>
	<advance width="1156"/>
	<outline>
		<contour>
			<point x="563.143" y="-492" type="curve" smooth="yes"/>
			<point x="756.143" y="-492"/>
			<point x="869" y="-370.286"/>
			<point x="869" y="-195.714" type="curve" smooth="yes"/>
			<point x="869" y="-50.5714"/>
			<point x="815.286" y="65.7143"/>
			<point x="733.286" y="223.143" type="curve"/>
			<point x="1157" y="1118.14" type="line"/>
			<point x="841.714" y="1118.14" type="line"/>
			<point x="644" y="627.143" type="line" smooth="yes"/>
			<point x="611.857" y="547.857"/>
			<point x="592.714" y="494.571"/>
			<point x="577.571" y="432" type="curve"/>
			<point x="571.429" y="432" type="line"/>
			<point x="553.429" y="493.143"/>
			<point x="530.857" y="565.286"/>
			<point x="505" y="628.714" type="curve"/>
			<point x="314.571" y="1118.14" type="line"/>
			<point x="0" y="1118.14" type="line"/>
			<point x="402.714" y="229.714" type="line"/>
			<point x="318.714" y="58.5714"/>
			<point x="261.714" y="-50"/>
			<point x="261.714" y="-192.857" type="curve" smooth="yes"/>
			<point x="261.714" y="-378.714"/>
			<point x="371" y="-492"/>
		</contour>
		<contour>
			<point x="565.714" y="-297.143" type="curve" smooth="yes"/>
			<point x="517.286" y="-297.143"/>
			<point x="489.857" y="-259"/>
			<point x="489.857" y="-178.143" type="curve" smooth="yes"/>
			<point x="489.857" y="-120"/>
			<point x="514.143" y="-23.1429"/>
			<point x="566.286" y="71.8571" type="curve"/>
			<point x="616.429" y="-28.1429"/>
			<point x="641.143" y="-121.286"/>
			<point x="641.143" y="-181" type="curve" smooth="yes"/>
			<point x="641.143" y="-257.857"/>
			<point x="616.143" y="-297.143"/>
		</contour>
	</outline>
	<anchor name="bottom" x="577.857" y="-492"/>
	<anchor name="top" x="577.857" y="1118.14"/>
</glyph>
<glyph name="uni0264" format="2">
	<unicode hex="0264"/>
	<advance width="1170"/>
	<outline>
		<contour>
			<point x="1026.43" y="1133" type="curve" smooth="yes"/>
			<point x="908" y="1133"/>
			<point x="830" y="1080"/>
			<point x="758.571" y="981.571" type="curve"/>
			<point x="683.857" y="869.429" type="line"/>
			<point x="648.857" y="822.429"/>
			<point x="617" y="770.286"/>
			<point x="594.143" y="728.714" type="curve"/>
			<point x="587.143" y="728.714" type="line"/>
			<point x="561.714" y="773.143"/>
			<point x="527" y="827.286"/>
			<point x="494.857" y="871.714" type="curve"/>
			<point x="418.143" y="986" type="line"/>
			<point x="342.714" y="1085.71"/>
			<point x="277.857" y="1133"/>
			<point x="145.143" y="1133" type="curve" smooth="yes"/>
			<point x="79.4286" y="1133"/>
			<point x="29.8571" y="1118.71"/>
			<point x="-0.285714" y="1104.57" type="curve"/>
			<point x="-0.285714" y="883" type="line"/>
			<point x="18.7143" y="890.857"/>
			<point x="46.4286" y="897.714"/>
			<point x="76.2857" y="897.714" type="curve" smooth="yes"/>
			<point x="149.286" y="897.714"/>
			<point x="191.143" y="865.286"/>
			<point x="268.857" y="759.429" type="curve"/>
			<point x="405" y="560.714" type="line"/>
			<point x="335.857" y="475.714"/>
			<point x="276.286" y="387.714"/>
			<point x="276.286" y="256.143" type="curve" smooth="yes"/>
			<point x="276.286" y="80.5714"/>
			<point x="391" y="-27.2857"/>
			<point x="583.429" y="-27.2857" type="curve" smooth="yes"/>
			<point x="780.571" y="-27.2857"/>
			<point x="898.714" y="86.2857"/>
			<point x="898.714" y="256.429" type="curve" smooth="yes"/>
			<point x="898.714" y="389.143"/>
			<point x="833.857" y="470"/>
			<point x="758.571" y="564.286" type="curve"/>
			<point x="896.286" y="754.857" type="line"/>
			<point x="982.571" y="861.571"/>
			<point x="1032.86" y="892.714"/>
			<point x="1106.43" y="892.714" type="curve" smooth="yes"/>
			<point x="1133.14" y="892.714"/>
			<point x="1152.57" y="888.143"/>
			<point x="1170.43" y="882.714" type="curve"/>
			<point x="1170.43" y="1106.29" type="line"/>
			<point x="1138.86" y="1121.29"/>
			<point x="1089.14" y="1133"/>
		</contour>
		<contour>
			<point x="592.143" y="430.857" type="curve"/>
			<point x="644.857" y="360.571"/>
			<point x="668" y="313.143"/>
			<point x="668" y="249.571" type="curve" smooth="yes"/>
			<point x="668" y="196.857"/>
			<point x="639.429" y="158.714"/>
			<point x="589.857" y="158.714" type="curve" smooth="yes"/>
			<point x="542.571" y="158.714"/>
			<point x="514.143" y="194"/>
			<point x="514.143" y="250.143" type="curve" smooth="yes"/>
			<point x="514.143" y="310.286"/>
			<point x="536.143" y="362.857"/>
		</contour>
	</outline>
	<anchor name="bottom" x="585.143" y="0"/>
	<anchor name="top" x="585.143" y="1118.14"/>
</glyph>
<glyph name="uni0265" format="2">
	<unicode hex="0265"/>
	<advance width="1315"/>
	<outline>
		<contour>
			<point x="871.714" y="-437.857" type="line"/>
			<point x="1166.43" y="-437.857" type="line"/>
			<point x="1166.43" y="1118.14" type="line"/>
			<point x="871.714" y="1118.14" type="line"/>
			<point x="871.714" y="585.857" type="line" smooth="yes"/>
			<point x="871.714" y="342.286"/>
			<point x="794.143" y="213.571"/>
			<point x="625.286" y="213.571" type="curve" smooth="yes"/>
			<point x="503" y="213.571"/>
			<point x="438.857" y="299.286"/>
			<point x="438.857" y="474.714" type="curve" smooth="yes"/>
			<point x="438.857" y="1118.14" type="line"/>
			<point x="143" y="1118.14" type="line"/>
			<point x="143" y="389.143" type="line" smooth="yes"/>
			<point x="143" y="103.286"/>
			<point x="308.714" y="-20.2857"/>
			<point x="534.571" y="-20.2857" type="curve" smooth="yes"/>
			<point x="696.714" y="-20.2857"/>
			<point x="805.143" y="44.4286"/>
			<point x="870.286" y="164.857" type="curve"/>
			<point x="884.571" y="164.857" type="line"/>
			<point x="879.429" y="105.143"/>
			<point x="871.714" y="12"/>
			<point x="871.714" y="-125.714" type="curve" smooth="yes"/>
		</contour>
	</outline>
	<anchor name="bottom" x="658" y="-438.571"/>
	<anchor name="top" x="658" y="1118.14"/>
</glyph>
<glyph name="uni026B" format="2">
	<unicode hex="026B"/>
	<advance width="895"/>
	<outline>
		<contour>
			<point x="297.429" y="0" type="line"/>
			<point x="597.857" y="0" type="line"/>
			<point x="597.857" y="628.571" type="line"/>
			<point x="609.857" y="621.429"/>
			<point x="624" y="616.286"/>
			<point x="642.286" y="616.286" type="curve" smooth="yes"/>
			<point x="782.429" y="616.286"/>
			<point x="888.571" y="720.286"/>
			<point x="891.429" y="918.286" type="curve"/>
			<point x="746.857" y="918.286" type="line"/>
			<point x="734.571" y="839.714"/>
			<point x="700.714" y="809.571"/>
			<point x="651.429" y="809.571" type="curve" smooth="yes"/>
			<point x="630.857" y="809.571"/>
			<point x="613.143" y="817.571"/>
			<point x="597.857" y="826.429" type="curve"/>
			<point x="597.857" y="1556" type="line"/>
			<point x="297.429" y="1556" type="line"/>
			<point x="297.429" y="899.286" type="line"/>
			<point x="283.429" y="907"/>
			<point x="268" y="913.286"/>
			<point x="248.857" y="913.286" type="curve" smooth="yes"/>
			<point x="107.714" y="913.286"/>
			<point x="7.57143" y="816.143"/>
			<point x="3.28571" y="615.429" type="curve"/>
			<point x="150" y="615.429" type="line"/>
			<point x="158" y="686.714"/>
			<point x="194.857" y="718.571"/>
			<point x="242.714" y="718.571" type="curve" smooth="yes"/>
			<point x="264.571" y="718.571"/>
			<point x="279.143" y="709.714"/>
			<point x="297.429" y="700.571" type="curve"/>
		</contour>
	</outline>
	<anchor name="bottom" x="448.714" y="0"/>
	<anchor name="top" x="448.714" y="1556"/>
</glyph>
<glyph name="uni026E" format="2">
	<unicode hex="026E"/>
	<advance width="1532"/>
	<outline>
		<contour>
			<point x="845.429" y="-492" type="curve" smooth="yes"/>
			<point x="1265.57" y="-492"/>
			<point x="1457.71" y="-272.857"/>
			<point x="1457.71" y="43.1429" type="curve" smooth="yes"/>
			<point x="1457.71" y="296.143"/>
			<point x="1298" y="469.714"/>
			<point x="960.429" y="488.286" type="curve"/>
			<point x="1421.29" y="933.571" type="line"/>
			<point x="1421.29" y="1118.14" type="line"/>
			<point x="459.286" y="1118.14" type="line"/>
			<point x="459.286" y="1556" type="line"/>
			<point x="160.286" y="1556" type="line"/>
			<point x="160.286" y="0" type="line"/>
			<point x="459.286" y="0" type="line"/>
			<point x="459.286" y="890" type="line"/>
			<point x="1037.29" y="890" type="line"/>
			<point x="623" y="480.857" type="line"/>
			<point x="623" y="289.429" type="line"/>
			<point x="741.714" y="289.429" type="line" smooth="yes"/>
			<point x="1074.14" y="289.429"/>
			<point x="1157.71" y="180.571"/>
			<point x="1157.71" y="21" type="curve" smooth="yes"/>
			<point x="1157.71" y="-137.429"/>
			<point x="1060.43" y="-254.286"/>
			<point x="834" y="-254.286" type="curve" smooth="yes"/>
			<point x="682" y="-254.286"/>
			<point x="533.429" y="-215.571"/>
			<point x="411.857" y="-160" type="curve"/>
			<point x="411.857" y="-417.429" type="line"/>
			<point x="534.286" y="-464.143"/>
			<point x="655.571" y="-492"/>
		</contour>
	</outline>
	<anchor name="bottom" x="768" y="-492"/>
	<anchor name="top" x="768" y="1556"/>
</glyph>
<glyph name="uni026F" format="2">
	<unicode hex="026F"/>
	<advance width="1961"/>
	<outline>
		<contour>
			<point x="518" y="-20.2857" type="curve" smooth="yes"/>
			<point x="674.857" y="-20.2857"/>
			<point x="792.286" y="46.1429"/>
			<point x="858.286" y="156.286" type="curve"/>
			<point x="868" y="156.286" type="line"/>
			<point x="927.143" y="44.1429"/>
			<point x="1033.71" y="-20.2857"/>
			<point x="1194.86" y="-20.2857" type="curve" smooth="yes"/>
			<point x="1374.57" y="-20.2857"/>
			<point x="1482.71" y="61.7143"/>
			<point x="1537.14" y="156" type="curve"/>
			<point x="1546.14" y="156" type="line"/>
			<point x="1589.43" y="0" type="line"/>
			<point x="1812.43" y="0" type="line"/>
			<point x="1812.43" y="1118.14" type="line"/>
			<point x="1517.71" y="1118.14" type="line"/>
			<point x="1517.71" y="573.571" type="line" smooth="yes"/>
			<point x="1517.71" y="334.571"/>
			<point x="1445.86" y="213.571"/>
			<point x="1294.86" y="213.571" type="curve" smooth="yes"/>
			<point x="1189.43" y="213.571"/>
			<point x="1125.29" y="287.857"/>
			<point x="1125.29" y="467.571" type="curve" smooth="yes"/>
			<point x="1125.29" y="1118.14" type="line"/>
			<point x="830.143" y="1118.14" type="line"/>
			<point x="830.143" y="550.714" type="line" smooth="yes"/>
			<point x="830.143" y="327.429"/>
			<point x="759.143" y="213.571"/>
			<point x="610.143" y="213.571" type="curve" smooth="yes"/>
			<point x="503" y="213.571"/>
			<point x="436" y="282.143"/>
			<point x="436" y="467.571" type="curve" smooth="yes"/>
			<point x="436" y="1118.14" type="line"/>
			<point x="141.571" y="1118.14" type="line"/>
			<point x="141.571" y="380.571" type="line" smooth="yes"/>
			<point x="141.571" y="101.857"/>
			<point x="280.857" y="-20.2857"/>
		</contour>
	</outline>
	<anchor name="bottom" x="980.571" y="0"/>
	<anchor name="top" x="980.571" y="1118.14"/>
</glyph>
<glyph name="uni0270" format="2">
	<unicode hex="0270"/>
	<advance width="2001"/>
	<outline>
		<contour>
			<point x="1540.57" y="-492" type="line"/>
			<point x="1840.29" y="-492" type="line"/>
			<point x="1840.29" y="1118.14" type="line"/>
			<point x="1540.57" y="1118.14" type="line"/>
			<point x="1540.57" y="575.286" type="line" smooth="yes"/>
			<point x="1540.57" y="344.571"/>
			<point x="1472.29" y="218.143"/>
			<point x="1314.86" y="218.143" type="curve" smooth="yes"/>
			<point x="1208" y="218.143"/>
			<point x="1145.29" y="299.286"/>
			<point x="1145.29" y="469.714" type="curve" smooth="yes"/>
			<point x="1145.29" y="1118.14" type="line"/>
			<point x="846.571" y="1118.14" type="line"/>
			<point x="846.571" y="550.286" type="line" smooth="yes"/>
			<point x="846.571" y="334.571"/>
			<point x="775.571" y="218.143"/>
			<point x="620.571" y="218.143" type="curve" smooth="yes"/>
			<point x="515.143" y="218.143"/>
			<point x="452.429" y="299.286"/>
			<point x="452.429" y="459.714" type="curve" smooth="yes"/>
			<point x="452.429" y="1118.14" type="line"/>
			<point x="151.571" y="1118.14" type="line"/>
			<point x="151.571" y="379.857" type="line" smooth="yes"/>
			<point x="151.571" y="99.7143"/>
			<point x="288.714" y="-20"/>
			<point x="528.429" y="-20" type="curve" smooth="yes"/>
			<point x="665.714" y="-20"/>
			<point x="799.857" y="29.7143"/>
			<point x="861.429" y="151" type="curve"/>
			<point x="889" y="151" type="line"/>
			<point x="950.429" y="33.5714"/>
			<point x="1066.14" y="-20"/>
			<point x="1221.29" y="-20" type="curve" smooth="yes"/>
			<point x="1371.71" y="-20"/>
			<point x="1473.57" y="46.4286"/>
			<point x="1539.43" y="157.857" type="curve"/>
			<point x="1552.71" y="157.857" type="line"/>
			<point x="1548.43" y="113.714"/>
			<point x="1540.57" y="33.1429"/>
			<point x="1540.57" y="-18.4286" type="curve" smooth="yes"/>
		</contour>
	</outline>
	<anchor name="bottom" x="1001.29" y="-492"/>
	<anchor name="top" x="1001.29" y="1118.14"/>
</glyph>
<glyph name="uni0274" format="2">
	<unicode hex="0274"/>
	<advance width="1422"/>
	<outline>
		<contour>
			<point x="150.714" y="0" type="line"/>
			<point x="433.714" y="0" type="line"/>
			<point x="433.714" y="490.286" type="line" smooth="yes"/>
			<point x="433.714" y="581.857"/>
			<point x="432.286" y="691.429"/>
			<point x="426" y="786.857" type="curve"/>
			<point x="923.857" y="0" type="line"/>
			<point x="1277.43" y="0" type="line"/>
			<point x="1277.43" y="1123" type="line"/>
			<point x="996.286" y="1123" type="line"/>
			<point x="996.286" y="617.571" type="line" smooth="yes"/>
			<point x="996.286" y="523.857"/>
			<point x="999.143" y="426.857"/>
			<point x="1006.86" y="329.429" type="curve"/>
			<point x="502" y="1123" type="line"/>
			<point x="150.714" y="1123" type="line"/>
		</contour>
	</outline>
	<anchor name="bottom" x="711.429" y="0"/>
	<anchor name="top" x="711.429" y="1118.14"/>
	<anchor name="topright" x="1366.57" y="1118.14"/>
</glyph>
<glyph name="uni0275" format="2">
	<unicode hex="0275"/>
	<advance width="1269"/>
	<outline>
		<contour>
			<point x="1170.71" y="561" type="curve" smooth="yes"/>
			<point x="1170.71" y="918.286"/>
			<point x="964.714" y="1138.43"/>
			<point x="638.714" y="1138.43" type="curve" smooth="yes"/>
			<point x="299.857" y="1138.43"/>
			<point x="96" y="927.143"/>
			<point x="96" y="561" type="curve" smooth="yes"/>
			<point x="96" y="198.286"/>
			<point x="308.286" y="-20"/>
			<point x="631" y="-20" type="curve" smooth="yes"/>
			<point x="974.143" y="-20"/>
			<point x="1170.71" y="199.429"/>
		</contour>
		<contour>
			<point x="633.857" y="190.286" type="curve" smooth="yes"/>
			<point x="469.429" y="190.286"/>
			<point x="386.429" y="296.571"/>
			<point x="376.714" y="472.429" type="curve"/>
			<point x="889.714" y="472.429" type="line"/>
			<point x="882.857" y="298"/>
			<point x="799.429" y="190.286"/>
		</contour>
		<contour>
			<point x="635.857" y="928.143" type="curve" smooth="yes"/>
			<point x="804" y="928.143"/>
			<point x="882.571" y="817.571"/>
			<point x="891.143" y="645.143" type="curve"/>
			<point x="376.714" y="645.143" type="line"/>
			<point x="385.857" y="826.143"/>
			<point x="475.143" y="928.143"/>
		</contour>
	</outline>
	<anchor name="bottom" x="635" y="0"/>
	<anchor name="top" x="635" y="1118.14"/>
</glyph>
<glyph name="uni027B" format="2">
	<unicode hex="027B"/>
	<advance width="926"/>
	<outline>
		<contour>
			<point x="811.571" y="-490" type="curve" smooth="yes"/>
			<point x="887.286" y="-490"/>
			<point x="962.714" y="-479.286"/>
			<point x="1008.71" y="-457.857" type="curve"/>
			<point x="1008.71" y="-229.714" type="line"/>
			<point x="970.571" y="-241.143"/>
			<point x="941" y="-251.143"/>
			<point x="888.857" y="-251.143" type="curve" smooth="yes"/>
			<point x="808.286" y="-251.143"/>
			<point x="766.286" y="-198.429"/>
			<point x="766.286" y="-107.429" type="curve" smooth="yes"/>
			<point x="766.286" y="1118.14" type="line"/>
			<point x="466.571" y="1118.14" type="line"/>
			<point x="466.571" y="545.857" type="line" smooth="yes"/>
			<point x="466.571" y="323.571"/>
			<point x="316" y="260"/>
			<point x="169.714" y="260" type="curve" smooth="yes"/>
			<point x="124.143" y="260"/>
			<point x="83.1429" y="264.571"/>
			<point x="62.8571" y="271.429" type="curve"/>
			<point x="41.5714" y="-8.28571" type="line"/>
			<point x="64.1429" y="-13.7143"/>
			<point x="110.857" y="-18.8571"/>
			<point x="147.571" y="-18.8571" type="curve" smooth="yes"/>
			<point x="299.429" y="-18.8571"/>
			<point x="410.714" y="73.4286"/>
			<point x="466.857" y="179.143" type="curve"/>
			<point x="477.286" y="179.143" type="line"/>
			<point x="469.429" y="123"/>
			<point x="466.571" y="71.8571"/>
			<point x="466.571" y="-34.5714" type="curve" smooth="yes"/>
			<point x="466.571" y="-118.857" type="line" smooth="yes"/>
			<point x="466.571" y="-344"/>
			<point x="556.571" y="-490"/>
		</contour>
	</outline>
	<anchor name="bottom" x="464.286" y="-490"/>
	<anchor name="top" x="464.286" y="1118.14"/>
</glyph>
<glyph name="rlongleg" format="2">
	<unicode hex="027C"/>
	<advance width="906"/>
	<outline>
		<contour>
			<point x="747.571" y="1137.29" type="curve" smooth="yes"/>
			<point x="605.714" y="1137.29"/>
			<point x="485.857" y="1044.71"/>
			<point x="431.143" y="929.714" type="curve"/>
			<point x="416.429" y="929.714" type="line"/>
			<point x="371.714" y="1118.14" type="line"/>
			<point x="149.571" y="1118.14" type="line"/>
			<point x="149.571" y="-492" type="line"/>
			<point x="444.286" y="-492" type="line"/>
			<point x="444.286" y="571.571" type="line" smooth="yes"/>
			<point x="444.286" y="794.857"/>
			<point x="577.714" y="859.143"/>
			<point x="712.571" y="859.143" type="curve" smooth="yes"/>
			<point x="781.714" y="859.143"/>
			<point x="818.429" y="852.857"/>
			<point x="851.571" y="844.571" type="curve"/>
			<point x="880" y="1122.14" type="line"/>
			<point x="849.571" y="1129.29"/>
			<point x="797.143" y="1137.29"/>
		</contour>
	</outline>
	<anchor name="bottom" x="453.571" y="-492"/>
	<anchor name="top" x="453.571" y="1118.14"/>
</glyph>
<glyph name="uni027D" format="2">
	<unicode hex="027D"/>
	<advance width="926"/>
	<outline>
		<contour>
			<point x="764" y="1137.29" type="curve" smooth="yes"/>
			<point x="610" y="1137.29"/>
			<point x="498" y="1034.71"/>
			<point x="445.429" y="926.857" type="curve"/>
			<point x="431.429" y="926.857" type="line"/>
			<point x="386" y="1118.14" type="line"/>
			<point x="160.286" y="1118.14" type="line"/>
			<point x="160.286" y="-131.714" type="line" smooth="yes"/>
			<point x="160.286" y="-345.429"/>
			<point x="250.286" y="-490"/>
			<point x="503.143" y="-490" type="curve" smooth="yes"/>
			<point x="574.571" y="-490"/>
			<point x="650" y="-480.714"/>
			<point x="692.429" y="-457.857" type="curve"/>
			<point x="692.429" y="-231.143" type="line"/>
			<point x="655.714" y="-242.571"/>
			<point x="626.857" y="-251.143"/>
			<point x="577.571" y="-251.143" type="curve" smooth="yes"/>
			<point x="506.286" y="-251.143"/>
			<point x="459.286" y="-207"/>
			<point x="459.286" y="-124.571" type="curve" smooth="yes"/>
			<point x="459.286" y="570.143" type="line" smooth="yes"/>
			<point x="459.286" y="794.857"/>
			<point x="605.571" y="856.286"/>
			<point x="753.286" y="856.286" type="curve" smooth="yes"/>
			<point x="797.429" y="856.286"/>
			<point x="837" y="852.857"/>
			<point x="863.714" y="846" type="curve"/>
			<point x="884.286" y="1126.43" type="line"/>
			<point x="863.143" y="1132.14"/>
			<point x="800" y="1137.29"/>
		</contour>
	</outline>
	<anchor name="bottom" x="464.286" y="-490"/>
	<anchor name="top" x="464.286" y="1118.14"/>
</glyph>
<glyph name="uni027E" format="2">
	<unicode hex="027E"/>
	<advance width="816"/>
	<outline>
		<contour>
			<point x="534.714" y="1142.71" type="curve" smooth="yes"/>
			<point x="287.857" y="1142.71"/>
			<point x="152.714" y="1008.57"/>
			<point x="152.714" y="732.429" type="curve" smooth="yes"/>
			<point x="152.714" y="0" type="line"/>
			<point x="453.571" y="0" type="line"/>
			<point x="453.571" y="713.143" type="line" smooth="yes"/>
			<point x="453.571" y="810.857"/>
			<point x="493.286" y="886.714"/>
			<point x="611.714" y="886.714" type="curve" smooth="yes"/>
			<point x="663.571" y="886.714"/>
			<point x="699.857" y="879"/>
			<point x="739.143" y="866.714" type="curve"/>
			<point x="774.143" y="1109.71" type="line"/>
			<point x="703.857" y="1129.57"/>
			<point x="636.857" y="1142.71"/>
		</contour>
	</outline>
	<anchor name="bottom" x="408.857" y="0"/>
	<anchor name="top" x="408.857" y="1118.14"/>
</glyph>
<glyph name="uni0280" format="2">
	<unicode hex="0280"/>
	<advance width="1216"/>
	<outline>
		<contour>
			<point x="171.429" y="0" type="line"/>
			<point x="470.143" y="0" type="line"/>
			<point x="470.143" y="422.143" type="line"/>
			<point x="615" y="422.143" type="line"/>
			<point x="880.143" y="0" type="line"/>
			<point x="1207.29" y="0" type="line"/>
			<point x="877" y="468.429" type="line"/>
			<point x="1011.43" y="515.143"/>
			<point x="1111" y="612.286"/>
			<point x="1111" y="788.857" type="curve" smooth="yes"/>
			<point x="1111" y="1014.57"/>
			<point x="937.714" y="1118"/>
			<point x="656.714" y="1118" type="curve" smooth="yes"/>
			<point x="171.429" y="1118" type="line"/>
		</contour>
		<contour>
			<point x="470.143" y="619.857" type="line"/>
			<point x="470.143" y="912" type="line"/>
			<point x="630.143" y="912" type="line" smooth="yes"/>
			<point x="763.857" y="912"/>
			<point x="818.714" y="857.571"/>
			<point x="818.714" y="775.429" type="curve" smooth="yes"/>
			<point x="818.714" y="684"/>
			<point x="754" y="619.857"/>
			<point x="633.143" y="619.857" type="curve" smooth="yes"/>
		</contour>
	</outline>
	<anchor name="bottom" x="608.571" y="0"/>
	<anchor name="top" x="608.571" y="1118.14"/>
</glyph>
<glyph name="uni0281" format="2">
	<unicode hex="0281"/>
	<advance width="1216"/>
	<outline>
		<contour>
			<point x="171.429" y="1123" type="line"/>
			<point x="470.143" y="1123" type="line"/>
			<point x="470.143" y="700.857" type="line"/>
			<point x="615" y="700.857" type="line"/>
			<point x="880.143" y="1123" type="line"/>
			<point x="1207.29" y="1123" type="line"/>
			<point x="877" y="654.571" type="line"/>
			<point x="1011.43" y="607.857"/>
			<point x="1111" y="510.714"/>
			<point x="1111" y="334.143" type="curve" smooth="yes"/>
			<point x="1111" y="108.429"/>
			<point x="937.714" y="5"/>
			<point x="656.714" y="5" type="curve" smooth="yes"/>
			<point x="171.429" y="5" type="line"/>
		</contour>
		<contour>
			<point x="470.143" y="503.143" type="line"/>
			<point x="470.143" y="211" type="line"/>
			<point x="630.143" y="211" type="line" smooth="yes"/>
			<point x="763.857" y="211"/>
			<point x="818.714" y="265.429"/>
			<point x="818.714" y="347.571" type="curve" smooth="yes"/>
			<point x="818.714" y="439"/>
			<point x="754" y="503.143"/>
			<point x="633.143" y="503.143" type="curve" smooth="yes"/>
		</contour>
	</outline>
	<anchor name="bottom" x="608.571" y="0"/>
	<anchor name="top" x="608.571" y="1118.14"/>
</glyph>
<glyph name="eshsquatreversed" format="2">
	<unicode hex="0285"/>
	<advance width="618"/>
	<outline>
		<contour>
			<point x="499.857" y="-492" type="curve" smooth="yes"/>
			<point x="568" y="-492"/>
			<point x="635.429" y="-483.571"/>
			<point x="677.857" y="-460.143" type="curve"/>
			<point x="677.857" y="-232.857" type="line"/>
			<point x="640" y="-244.857"/>
			<point x="612.571" y="-252.857"/>
			<point x="567" y="-252.857" type="curve" smooth="yes"/>
			<point x="495.429" y="-252.857"/>
			<point x="453.571" y="-207.571"/>
			<point x="453.571" y="-129.429" type="curve" smooth="yes"/>
			<point x="453.571" y="783.143" type="line" smooth="yes"/>
			<point x="453.571" y="1026"/>
			<point x="336.571" y="1138.14"/>
			<point x="100.286" y="1138.14" type="curve" smooth="yes"/>
			<point x="16.7143" y="1138.14"/>
			<point x="-50.4286" y="1118.57"/>
			<point x="-75.5714" y="1106.86" type="curve"/>
			<point x="-75.5714" y="880.143" type="line"/>
			<point x="-57" y="887.571"/>
			<point x="-15.4286" y="901.429"/>
			<point x="35.7143" y="901.429" type="curve" smooth="yes"/>
			<point x="108.429" y="901.429"/>
			<point x="153.429" y="855.571"/>
			<point x="153.429" y="776" type="curve" smooth="yes"/>
			<point x="153.429" y="-134.571" type="line" smooth="yes"/>
			<point x="153.429" y="-337.571"/>
			<point x="241.714" y="-492"/>
		</contour>
	</outline>
	<anchor name="bottom" x="309.143" y="-492"/>
	<anchor name="top" x="309.143" y="1118.14"/>
</glyph>
<glyph name="uni0289" format="2">
	<unicode hex="0289"/>
	<advance width="1315"/>
	<outline>
		<contour>
			<point x="5.71429" y="493.286" type="line"/>
			<point x="1314.86" y="493.286" type="line"/>
			<point x="1314.86" y="689.286" type="line"/>
			<point x="5.71429" y="689.286" type="line"/>
		</contour>
		<contour>
			<point x="1165" y="1118.14" type="line"/>
			<point x="870.571" y="1118.14" type="line"/>
			<point x="870.571" y="587.286" type="line" smooth="yes"/>
			<point x="870.571" y="342.286"/>
			<point x="797" y="215.286"/>
			<point x="624.143" y="215.286" type="curve" smooth="yes"/>
			<point x="497.571" y="215.286"/>
			<point x="437.429" y="301.857"/>
			<point x="437.429" y="476" type="curve" smooth="yes"/>
			<point x="437.429" y="1118.14" type="line"/>
			<point x="143" y="1118.14" type="line"/>
			<point x="143" y="388.714" type="line" smooth="yes"/>
			<point x="143" y="107.714"/>
			<point x="302.143" y="-20"/>
			<point x="530.571" y="-20" type="curve" smooth="yes"/>
			<point x="696" y="-20"/>
			<point x="823" y="48.4286"/>
			<point x="887.143" y="165.571" type="curve"/>
			<point x="904.714" y="165.571" type="line"/>
			<point x="942" y="0" type="line"/>
			<point x="1165" y="0" type="line"/>
		</contour>
	</outline>
	<anchor name="bottom" x="649.429" y="0"/>
	<anchor name="top" x="658" y="1118.14"/>
</glyph>
<glyph name="uni028A" format="2">
	<unicode hex="028A"/>
	<advance width="1319"/>
	<outline>
		<contour>
			<point x="660.286" y="-24.1429" type="curve" smooth="yes"/>
			<point x="1009.86" y="-24.1429"/>
			<point x="1226.71" y="175.714"/>
			<point x="1226.71" y="480.429" type="curve" smooth="yes"/>
			<point x="1226.71" y="691.714"/>
			<point x="1129.86" y="828.429"/>
			<point x="1021.57" y="897.143" type="curve"/>
			<point x="1265.86" y="897.143" type="line"/>
			<point x="1265.86" y="1119.57" type="line"/>
			<point x="734" y="1119.57" type="line"/>
			<point x="734" y="896.857" type="line"/>
			<point x="875" y="820.857"/>
			<point x="953.143" y="704.857"/>
			<point x="953.143" y="519.714" type="curve" smooth="yes"/>
			<point x="953.143" y="313.143"/>
			<point x="834.571" y="206.429"/>
			<point x="660.286" y="206.429" type="curve" smooth="yes"/>
			<point x="485.857" y="206.429"/>
			<point x="368.429" y="312.286"/>
			<point x="368.429" y="519.714" type="curve" smooth="yes"/>
			<point x="368.429" y="692.286"/>
			<point x="435.143" y="817.429"/>
			<point x="591" y="896.857" type="curve"/>
			<point x="591" y="1119.57" type="line"/>
			<point x="53" y="1119.57" type="line"/>
			<point x="53" y="897.143" type="line"/>
			<point x="307.286" y="897.143" type="line"/>
			<point x="197.857" y="827.571"/>
			<point x="94.8571" y="694.286"/>
			<point x="94.8571" y="470.429" type="curve" smooth="yes"/>
			<point x="94.8571" y="176.571"/>
			<point x="303.857" y="-24.1429"/>
		</contour>
	</outline>
	<anchor name="bottom" x="659.143" y="0"/>
	<anchor name="top" x="659.143" y="1118.14"/>
</glyph>
<glyph name="uni028B" format="2">
	<unicode hex="028B"/>
	<advance width="1336"/>
	<outline>
		<contour>
			<point x="891" y="1138.71" type="curve" smooth="yes"/>
			<point x="821.286" y="1138.71"/>
			<point x="740.714" y="1128.43"/>
			<point x="692.429" y="1107.43" type="curve"/>
			<point x="692.429" y="880.714" type="line"/>
			<point x="728" y="892.429"/>
			<point x="754.143" y="902"/>
			<point x="804.857" y="902" type="curve" smooth="yes"/>
			<point x="874.143" y="902"/>
			<point x="913.429" y="850.714"/>
			<point x="913.429" y="775.429" type="curve" smooth="yes"/>
			<point x="913.429" y="490.143" type="line" smooth="yes"/>
			<point x="913.429" y="302.714"/>
			<point x="845.857" y="219.571"/>
			<point x="693.714" y="219.571" type="curve" smooth="yes"/>
			<point x="523.714" y="219.571"/>
			<point x="452.429" y="303.286"/>
			<point x="452.429" y="490.143" type="curve" smooth="yes"/>
			<point x="452.429" y="1118.14" type="line"/>
			<point x="151.571" y="1118.14" type="line"/>
			<point x="151.571" y="498.429" type="line" smooth="yes"/>
			<point x="151.571" y="216.857"/>
			<point x="259.714" y="-20"/>
			<point x="680.143" y="-20" type="curve" smooth="yes"/>
			<point x="1093.71" y="-20"/>
			<point x="1212.14" y="219.429"/>
			<point x="1212.14" y="498.429" type="curve" smooth="yes"/>
			<point x="1212.14" y="784.571" type="line" smooth="yes"/>
			<point x="1212.14" y="981.286"/>
			<point x="1131.86" y="1138.71"/>
		</contour>
	</outline>
	<anchor name="bottom" x="686.714" y="0"/>
	<anchor name="top" x="686.714" y="1118.14"/>
</glyph>
<glyph name="uni0292" format="2">
	<unicode hex="0292"/>
	<advance width="1144"/>
	<outline>
		<contour>
			<point x="1033.14" y="1118.14" type="line"/>
			<point x="78" y="1118.14" type="line"/>
			<point x="78" y="890" type="line"/>
			<point x="649.857" y="890" type="line"/>
			<point x="234.857" y="480.857" type="line"/>
			<point x="234.857" y="289.429" type="line"/>
			<point x="353.571" y="289.429" type="line" smooth="yes"/>
			<point x="686.714" y="289.429"/>
			<point x="770.286" y="180.571"/>
			<point x="770.286" y="21" type="curve" smooth="yes"/>
			<point x="770.286" y="-137.429"/>
			<point x="672.571" y="-254.286"/>
			<point x="446.143" y="-254.286" type="curve" smooth="yes"/>
			<point x="294.143" y="-254.286"/>
			<point x="146" y="-215.571"/>
			<point x="23.7143" y="-160" type="curve"/>
			<point x="23.7143" y="-417.429" type="line"/>
			<point x="146.857" y="-464.143"/>
			<point x="268.143" y="-492"/>
			<point x="458.286" y="-492" type="curve" smooth="yes"/>
			<point x="878.429" y="-492"/>
			<point x="1069.57" y="-272.857"/>
			<point x="1069.57" y="43.1429" type="curve" smooth="yes"/>
			<point x="1069.57" y="296.143"/>
			<point x="910.857" y="469.714"/>
			<point x="573.286" y="488.286" type="curve"/>
			<point x="1033.14" y="933.571" type="line"/>
		</contour>
	</outline>
	<anchor name="bottom" x="573.286" y="-492"/>
	<anchor name="top" x="573.286" y="1118.14"/>
</glyph>
<glyph name="ezhcurl" format="2">
	<unicode hex="0293"/>
	<advance width="1184"/>
	<outline>
		<contour>
			<point x="430.429" y="-492" type="curve" smooth="yes"/>
			<point x="620.143" y="-492"/>
			<point x="757.143" y="-429.571"/>
			<point x="821.714" y="-385.714" type="curve"/>
			<point x="842" y="-410.571"/>
			<point x="883.571" y="-468"/>
			<point x="905.143" y="-499.714" type="curve"/>
			<point x="1050" y="-403" type="line"/>
			<point x="1022.14" y="-364.429"/>
			<point x="988.143" y="-324"/>
			<point x="956.857" y="-287.857" type="curve"/>
			<point x="1013.43" y="-239.429"/>
			<point x="1100.29" y="-120.714"/>
			<point x="1100.29" y="57.1429" type="curve" smooth="yes"/>
			<point x="1100.29" y="324.286"/>
			<point x="932.286" y="496.143"/>
			<point x="604" y="519" type="curve"/>
			<point x="1062.43" y="923.571" type="line"/>
			<point x="1062.43" y="1118.14" type="line"/>
			<point x="103" y="1118.14" type="line"/>
			<point x="103" y="890" type="line"/>
			<point x="677.714" y="890" type="line"/>
			<point x="280.571" y="520.143" type="line"/>
			<point x="280.571" y="323" type="line"/>
			<point x="367.429" y="323" type="line" smooth="yes"/>
			<point x="682.429" y="323"/>
			<point x="802.143" y="190.857"/>
			<point x="803.857" y="25.8571" type="curve" smooth="yes"/>
			<point x="804.429" y="-24.2857"/>
			<point x="793.286" y="-67.5714"/>
			<point x="784.143" y="-88.1429" type="curve"/>
			<point x="689.571" y="24.5714"/>
			<point x="553.429" y="111.714"/>
			<point x="353.571" y="111.714" type="curve" smooth="yes"/>
			<point x="136" y="111.714"/>
			<point x="4" y="1.28571"/>
			<point x="4" y="-173.857" type="curve" smooth="yes"/>
			<point x="4" y="-376.286"/>
			<point x="181.571" y="-492"/>
		</contour>
		<contour>
			<point x="436.714" y="-287.857" type="curve" smooth="yes"/>
			<point x="310.714" y="-287.857"/>
			<point x="216.429" y="-246.429"/>
			<point x="216.429" y="-161" type="curve" smooth="yes"/>
			<point x="216.429" y="-97.1429"/>
			<point x="265.143" y="-53.5714"/>
			<point x="367.857" y="-53.5714" type="curve" smooth="yes"/>
			<point x="482" y="-53.5714"/>
			<point x="578.571" y="-104"/>
			<point x="670.429" y="-209.571" type="curve"/>
			<point x="624.571" y="-249.857"/>
			<point x="541" y="-287.857"/>
		</contour>
	</outline>
	<anchor name="bottom" x="593.286" y="-509.143"/>
	<anchor name="top" x="593.286" y="1118.14"/>
</glyph>
<glyph name="uni0295" format="2">
	<unicode hex="0295"/>
	<advance width="980"/>
	<outline>
		<contour>
			<point x="530.286" y="1565.86" type="curve" smooth="yes"/>
			<point x="704.857" y="1565.86"/>
			<point x="843.429" y="1516.14"/>
			<point x="976.429" y="1444.86" type="curve"/>
			<point x="869.714" y="1229.29" type="line"/>
			<point x="811" y="1260.86"/>
			<point x="689.714" y="1323.86"/>
			<point x="560.143" y="1323.86" type="curve" smooth="yes"/>
			<point x="443.571" y="1323.86"/>
			<point x="349" y="1244"/>
			<point x="349" y="1124" type="curve" smooth="yes"/>
			<point x="349" y="991.429"/>
			<point x="434.571" y="851.857"/>
			<point x="721.571" y="748.286" type="curve"/>
			<point x="721.571" y="0" type="line"/>
			<point x="418.286" y="0" type="line"/>
			<point x="418.286" y="622" type="line"/>
			<point x="168.714" y="750.571"/>
			<point x="44.7143" y="897.429"/>
			<point x="44.7143" y="1136.57" type="curve" smooth="yes"/>
			<point x="44.7143" y="1379.43"/>
			<point x="229.714" y="1565.86"/>
		</contour>
	</outline>
	<anchor name="bottom" x="490.857" y="0"/>
	<anchor name="top" x="490.857" y="1565.86"/>
</glyph>
<glyph name="eopenclosed" format="2">
	<unicode hex="029A"/>
	<advance width="1280"/>
	<outline>
		<contour>
			<point x="582.571" y="1138.43" type="curve" smooth="yes"/>
			<point x="279.429" y="1138.43"/>
			<point x="105.143" y="1023.71"/>
			<point x="105.143" y="828" type="curve" smooth="yes"/>
			<point x="105.143" y="696.286"/>
			<point x="192.143" y="612.857"/>
			<point x="328.857" y="582.857" type="curve"/>
			<point x="328.857" y="575" type="line"/>
			<point x="192.714" y="552.143"/>
			<point x="76" y="468.714"/>
			<point x="76" y="312.286" type="curve" smooth="yes"/>
			<point x="76" y="108.429"/>
			<point x="228.143" y="-20"/>
			<point x="571.429" y="-20" type="curve" smooth="yes"/>
			<point x="935" y="-20"/>
			<point x="1173.43" y="172.571"/>
			<point x="1173.43" y="562.429" type="curve" smooth="yes"/>
			<point x="1173.43" y="918.571"/>
			<point x="980.286" y="1138.43"/>
		</contour>
		<contour>
			<point x="582.571" y="924.571" type="curve" smooth="yes"/>
			<point x="798.143" y="924.571"/>
			<point x="879.143" y="785.714"/>
			<point x="879.143" y="556.714" type="curve" smooth="yes"/>
			<point x="879.143" y="291.857"/>
			<point x="760" y="206"/>
			<point x="582.143" y="206" type="curve" smooth="yes"/>
			<point x="453.143" y="206"/>
			<point x="377" y="263.286"/>
			<point x="377" y="347.286" type="curve" smooth="yes"/>
			<point x="377" y="438.857"/>
			<point x="454" y="479.571"/>
			<point x="619" y="479.571" type="curve" smooth="yes"/>
			<point x="682.429" y="479.571" type="line"/>
			<point x="682.429" y="667.714" type="line"/>
			<point x="615.571" y="667.714" type="line" smooth="yes"/>
			<point x="451.143" y="667.714"/>
			<point x="381.571" y="703.571"/>
			<point x="381.571" y="792.286" type="curve" smooth="yes"/>
			<point x="381.571" y="873.143"/>
			<point x="453.143" y="924.571"/>
		</contour>
	</outline>
	<anchor name="bottom" x="640.857" y="0"/>
	<anchor name="top" x="640.857" y="1118.14"/>
</glyph>
<glyph name="uni029B" format="2">
	<unicode hex="029B"/>
	<advance width="1229"/>
	<outline>
		<contour>
			<point x="1173.14" y="1567.29" type="curve" smooth="yes"/>
			<point x="983.286" y="1567.29"/>
			<point x="849.571" y="1473.14"/>
			<point x="849.571" y="1235.14" type="curve" smooth="yes"/>
			<point x="849.571" y="1119.86" type="line"/>
			<point x="804" y="1129.86"/>
			<point x="753.857" y="1138.14"/>
			<point x="702.143" y="1138.14" type="curve" smooth="yes"/>
			<point x="292.429" y="1138.14"/>
			<point x="89.7143" y="874.429"/>
			<point x="89.7143" y="554.429" type="curve" smooth="yes"/>
			<point x="89.7143" y="201.571"/>
			<point x="285.714" y="-21"/>
			<point x="675.429" y="-21" type="curve" smooth="yes"/>
			<point x="865.857" y="-21"/>
			<point x="993.714" y="27"/>
			<point x="1105.86" y="70" type="curve"/>
			<point x="1105.86" y="628.571" type="line"/>
			<point x="590.857" y="628.571" type="line"/>
			<point x="590.857" y="431.143" type="line"/>
			<point x="818.571" y="431.143" type="line"/>
			<point x="818.571" y="241.571" type="line"/>
			<point x="771.571" y="228.143"/>
			<point x="735.286" y="219.286"/>
			<point x="680.286" y="219.286" type="curve" smooth="yes"/>
			<point x="482.714" y="219.286"/>
			<point x="393.571" y="351.857"/>
			<point x="393.571" y="560.714" type="curve" smooth="yes"/>
			<point x="393.571" y="791.714"/>
			<point x="555.286" y="898.571"/>
			<point x="717.571" y="898.571" type="curve" smooth="yes"/>
			<point x="831.429" y="898.571"/>
			<point x="916.571" y="866.714"/>
			<point x="999.714" y="820.286" type="curve"/>
			<point x="1088.57" y="1028.29" type="line"/>
			<point x="1088.57" y="1220.57" type="line" smooth="yes"/>
			<point x="1088.57" y="1307.29"/>
			<point x="1128.14" y="1353.43"/>
			<point x="1198.29" y="1353.43" type="curve" smooth="yes"/>
			<point x="1243.29" y="1353.43"/>
			<point x="1283.43" y="1341.71"/>
			<point x="1307.29" y="1332.57" type="curve"/>
			<point x="1307.29" y="1545.43" type="line"/>
			<point x="1278.57" y="1555.14"/>
			<point x="1233" y="1567.29"/>
		</contour>
	</outline>
	<anchor name="bottom" x="615" y="0"/>
	<anchor name="top" x="615" y="1567.29"/>
</glyph>
<glyph name="uni029D" format="2">
	<unicode hex="029D"/>
	<advance width="613"/>
	<outline>
		<contour>
			<point x="96.4286" y="-492" type="curve" smooth="yes"/>
			<point x="341.143" y="-492"/>
			<point x="431.714" y="-338.143"/>
			<point x="447.429" y="-160.571" type="curve"/>
			<point x="589.429" y="-160.571" type="line"/>
			<point x="589.429" y="-28.5714" type="line"/>
			<point x="451.571" y="-28.5714" type="line"/>
			<point x="451.571" y="1116" type="line"/>
			<point x="159.714" y="1116" type="line"/>
			<point x="159.714" y="-28.5714" type="line"/>
			<point x="104.714" y="-28.5714" type="line" smooth="yes"/>
			<point x="-82.5714" y="-28.5714"/>
			<point x="-175.429" y="-125.429"/>
			<point x="-175.429" y="-266.857" type="curve" smooth="yes"/>
			<point x="-175.429" y="-382.143"/>
			<point x="-93.1429" y="-492"/>
		</contour>
		<contour>
			<point x="60" y="-347.857" type="curve" smooth="yes"/>
			<point x="14.4286" y="-347.857"/>
			<point x="-22.5714" y="-314.714"/>
			<point x="-22.5714" y="-259.714" type="curve" smooth="yes"/>
			<point x="-22.5714" y="-202.143"/>
			<point x="14.1429" y="-160.571"/>
			<point x="108.714" y="-160.571" type="curve" smooth="yes"/>
			<point x="159.143" y="-160.571" type="line"/>
			<point x="159.143" y="-217" type="line" smooth="yes"/>
			<point x="159.143" y="-312.429"/>
			<point x="119.571" y="-347.857"/>
		</contour>
		<contour>
			<point x="306" y="1273.57" type="curve" smooth="yes"/>
			<point x="400.714" y="1273.57"/>
			<point x="468.143" y="1308"/>
			<point x="468.143" y="1414.43" type="curve" smooth="yes"/>
			<point x="468.143" y="1521.71"/>
			<point x="400.714" y="1555.57"/>
			<point x="306" y="1555.57" type="curve" smooth="yes"/>
			<point x="213.571" y="1555.57"/>
			<point x="145" y="1521.71"/>
			<point x="145" y="1414.43" type="curve" smooth="yes"/>
			<point x="145" y="1308"/>
			<point x="213.571" y="1273.57"/>
		</contour>
	</outline>
	<anchor name="bottom" x="306.571" y="-492"/>
	<anchor name="top" x="306.571" y="1555.57"/>
</glyph>
<glyph name="uni02A1" format="2">
	<unicode hex="02A1"/>
	<advance width="980"/>
	<outline>
		<contour>
			<point x="449.857" y="1565.86" type="curve" smooth="yes"/>
			<point x="275.286" y="1565.86"/>
			<point x="136.714" y="1516.14"/>
			<point x="3.71429" y="1444.86" type="curve"/>
			<point x="110.429" y="1229.29" type="line"/>
			<point x="169.143" y="1260.86"/>
			<point x="290.429" y="1323.86"/>
			<point x="420" y="1323.86" type="curve" smooth="yes"/>
			<point x="536.571" y="1323.86"/>
			<point x="631.143" y="1244"/>
			<point x="631.143" y="1124" type="curve" smooth="yes"/>
			<point x="631.143" y="991.429"/>
			<point x="545.571" y="851.857"/>
			<point x="258.571" y="748.286" type="curve"/>
			<point x="258.571" y="474.857" type="line"/>
			<point x="68.1429" y="474.857" type="line"/>
			<point x="68.1429" y="281.429" type="line"/>
			<point x="258.571" y="281.429" type="line"/>
			<point x="258.571" y="0" type="line"/>
			<point x="561.857" y="0" type="line"/>
			<point x="561.857" y="281.429" type="line"/>
			<point x="785.714" y="281.429" type="line"/>
			<point x="785.714" y="474.857" type="line"/>
			<point x="561.857" y="474.857" type="line"/>
			<point x="561.857" y="622" type="line"/>
			<point x="811.429" y="750.571"/>
			<point x="935.429" y="897.429"/>
			<point x="935.429" y="1136.57" type="curve" smooth="yes"/>
			<point x="935.429" y="1379.43"/>
			<point x="750.429" y="1565.86"/>
		</contour>
	</outline>
	<anchor name="bottom" x="414.571" y="0"/>
	<anchor name="top" x="490.857" y="1565.86"/>
	<anchor name="topright" x="906.714" y="1563.86"/>
</glyph>
<glyph name="dzlig" format="2">
	<unicode hex="02A3"/>
	<advance width="2059"/>
	<outline>
		<contour>
			<point x="513.571" y="-20" type="curve" smooth="yes"/>
			<point x="686.429" y="-20"/>
			<point x="783.286" y="64.7143"/>
			<point x="836.571" y="168.143" type="curve"/>
			<point x="848.714" y="168.143" type="line"/>
			<point x="909.857" y="0" type="line"/>
			<point x="1997" y="0" type="line"/>
			<point x="1997" y="228.143" type="line"/>
			<point x="1464.57" y="228.143" type="line"/>
			<point x="1983" y="936.714" type="line"/>
			<point x="1983" y="1118.14" type="line"/>
			<point x="1133.43" y="1118.14" type="line"/>
			<point x="1133.43" y="1556" type="line"/>
			<point x="836.571" y="1556" type="line"/>
			<point x="836.571" y="1212.71" type="line" smooth="yes"/>
			<point x="836.571" y="1113.86"/>
			<point x="845.857" y="1010"/>
			<point x="851.571" y="947.286" type="curve"/>
			<point x="844.429" y="947.286" type="line"/>
			<point x="788.714" y="1055.29"/>
			<point x="693" y="1138.43"/>
			<point x="528.857" y="1138.43" type="curve" smooth="yes"/>
			<point x="265.429" y="1138.43"/>
			<point x="96" y="935.714"/>
			<point x="96" y="552.143" type="curve" smooth="yes"/>
			<point x="96" y="178.571"/>
			<point x="258" y="-20"/>
		</contour>
		<contour>
			<point x="627.857" y="215.286" type="curve" smooth="yes"/>
			<point x="479.286" y="215.286"/>
			<point x="393.857" y="320.143"/>
			<point x="393.857" y="547.857" type="curve" smooth="yes"/>
			<point x="393.857" y="785.429"/>
			<point x="485.286" y="898.857"/>
			<point x="629.571" y="898.857" type="curve" smooth="yes"/>
			<point x="797.143" y="898.857"/>
			<point x="860.143" y="777"/>
			<point x="860.143" y="556.429" type="curve" smooth="yes"/>
			<point x="860.143" y="532.571" type="line"/>
			<point x="857.286" y="324.714"/>
			<point x="794.857" y="215.286"/>
		</contour>
		<contour>
			<point x="1133.43" y="200" type="line"/>
			<point x="1133.43" y="890" type="line"/>
			<point x="1641.71" y="890" type="line"/>
		</contour>
	</outline>
	<anchor name="bottom" x="1412.57" y="0"/>
	<anchor name="top" x="1412.57" y="1556"/>
</glyph>
<glyph name="uni02A4" format="2">
	<unicode hex="02A4"/>
	<advance width="2172"/>
	<outline>
		<contour>
			<point x="1486" y="-492" type="curve" smooth="yes"/>
			<point x="1906.14" y="-492"/>
			<point x="2098.29" y="-272.857"/>
			<point x="2098.29" y="43.1429" type="curve" smooth="yes"/>
			<point x="2098.29" y="296.143"/>
			<point x="1938.57" y="469.714"/>
			<point x="1601" y="488.286" type="curve"/>
			<point x="2061.57" y="933.571" type="line"/>
			<point x="2061.57" y="1118.14" type="line"/>
			<point x="1133.43" y="1118.14" type="line"/>
			<point x="1133.43" y="1556" type="line"/>
			<point x="836.571" y="1556" type="line"/>
			<point x="836.571" y="1212.71" type="line" smooth="yes"/>
			<point x="836.571" y="1125.29"/>
			<point x="844.429" y="1019.29"/>
			<point x="851.571" y="947.286" type="curve"/>
			<point x="844.429" y="947.286" type="line"/>
			<point x="788.714" y="1055.29"/>
			<point x="693" y="1138.43"/>
			<point x="528.857" y="1138.43" type="curve" smooth="yes"/>
			<point x="265.429" y="1138.43"/>
			<point x="96" y="935.714"/>
			<point x="96" y="552.143" type="curve" smooth="yes"/>
			<point x="96" y="178.571"/>
			<point x="258" y="-20"/>
			<point x="513.571" y="-20" type="curve" smooth="yes"/>
			<point x="686.429" y="-20"/>
			<point x="783.286" y="64.7143"/>
			<point x="836.571" y="168.143" type="curve"/>
			<point x="848.714" y="168.143" type="line"/>
			<point x="909.857" y="0" type="line"/>
			<point x="1133.43" y="0" type="line"/>
			<point x="1133.43" y="890" type="line"/>
			<point x="1677.57" y="890" type="line"/>
			<point x="1263.29" y="480.857" type="line"/>
			<point x="1263.29" y="289.429" type="line"/>
			<point x="1382" y="289.429" type="line" smooth="yes"/>
			<point x="1715.43" y="289.429"/>
			<point x="1799" y="180.571"/>
			<point x="1799" y="21" type="curve" smooth="yes"/>
			<point x="1799" y="-137.429"/>
			<point x="1701" y="-254.286"/>
			<point x="1474.57" y="-254.286" type="curve" smooth="yes"/>
			<point x="1322.57" y="-254.286"/>
			<point x="1173.71" y="-215.571"/>
			<point x="1052.14" y="-160" type="curve"/>
			<point x="1052.14" y="-417.429" type="line"/>
			<point x="1174.57" y="-464.143"/>
			<point x="1296.14" y="-492"/>
		</contour>
		<contour>
			<point x="627.857" y="215.286" type="curve" smooth="yes"/>
			<point x="479.286" y="215.286"/>
			<point x="393.857" y="320.143"/>
			<point x="393.857" y="547.857" type="curve" smooth="yes"/>
			<point x="393.857" y="785.429"/>
			<point x="485.286" y="898.857"/>
			<point x="629.571" y="898.857" type="curve" smooth="yes"/>
			<point x="797.143" y="898.857"/>
			<point x="860.143" y="777"/>
			<point x="860.143" y="556.429" type="curve" smooth="yes"/>
			<point x="860.143" y="532.571" type="line"/>
			<point x="857.286" y="324.714"/>
			<point x="794.857" y="215.286"/>
		</contour>
	</outline>
	<anchor name="bottom" x="1437.43" y="-492"/>
	<anchor name="top" x="1466.71" y="1556"/>
</glyph>
<glyph name="uni02A9" format="2">
	<unicode hex="02A9"/>
	<advance width="1955"/>
	<outline>
		<contour>
			<point x="1453.43" y="-492" type="curve" smooth="yes"/>
			<point x="1707.29" y="-492"/>
			<point x="1812" y="-329.857"/>
			<point x="1812" y="-127.429" type="curve" smooth="yes"/>
			<point x="1812" y="729" type="line" smooth="yes"/>
			<point x="1812" y="1017.71"/>
			<point x="1650.57" y="1138.43"/>
			<point x="1421.57" y="1138.43" type="curve" smooth="yes"/>
			<point x="1262.57" y="1138.43"/>
			<point x="1133.43" y="1069.71"/>
			<point x="1069.29" y="951.857" type="curve"/>
			<point x="1050.29" y="951.857" type="line"/>
			<point x="1011.57" y="1118.14" type="line"/>
			<point x="507.143" y="1118.14" type="line"/>
			<point x="507.143" y="1201.43" type="line" smooth="yes"/>
			<point x="507.143" y="1282.43"/>
			<point x="551.286" y="1329.57"/>
			<point x="636" y="1329.57" type="curve" smooth="yes"/>
			<point x="705.143" y="1329.57"/>
			<point x="759.857" y="1315.57"/>
			<point x="806" y="1300.43" type="curve"/>
			<point x="881.143" y="1518.43" type="line"/>
			<point x="823" y="1543.14"/>
			<point x="724" y="1567"/>
			<point x="601" y="1567" type="curve" smooth="yes"/>
			<point x="362.143" y="1567"/>
			<point x="208.143" y="1485.86"/>
			<point x="208.143" y="1215.71" type="curve" smooth="yes"/>
			<point x="208.143" y="1114.57" type="line"/>
			<point x="40.1429" y="1040" type="line"/>
			<point x="40.1429" y="892.857" type="line"/>
			<point x="208.143" y="892.857" type="line"/>
			<point x="208.143" y="0" type="line"/>
			<point x="507.143" y="0" type="line"/>
			<point x="507.143" y="892.857" type="line"/>
			<point x="784.286" y="892.857" type="line"/>
			<point x="784.286" y="0" type="line"/>
			<point x="1083" y="0" type="line"/>
			<point x="1083" y="529.429" type="line" smooth="yes"/>
			<point x="1083" y="765.857"/>
			<point x="1150.86" y="900.286"/>
			<point x="1330.86" y="900.286" type="curve" smooth="yes"/>
			<point x="1444.14" y="900.286"/>
			<point x="1511.86" y="823.143"/>
			<point x="1511.86" y="676.286" type="curve" smooth="yes"/>
			<point x="1511.86" y="-73.7143" type="line" smooth="yes"/>
			<point x="1511.86" y="-212.857"/>
			<point x="1455" y="-251.429"/>
			<point x="1387.71" y="-251.429" type="curve" smooth="yes"/>
			<point x="1342.43" y="-251.429"/>
			<point x="1309.43" y="-246"/>
			<point x="1269.86" y="-232.286" type="curve"/>
			<point x="1269.86" y="-468.143" type="line"/>
			<point x="1314.29" y="-481.571"/>
			<point x="1389.57" y="-492"/>
		</contour>
	</outline>
	<anchor name="bottom" x="1241.29" y="-492"/>
	<anchor name="top" x="1272" y="1567"/>
</glyph>
<glyph name="uni02AB" format="2">
	<unicode hex="02AB"/>
	<advance width="1380"/>
	<outline>
		<contour>
			<point x="149.571" y="0" type="line"/>
			<point x="1317.71" y="0" type="line"/>
			<point x="1317.71" y="228.143" type="line"/>
			<point x="785.286" y="228.143" type="line"/>
			<point x="1303" y="936.714" type="line"/>
			<point x="1303" y="1118.14" type="line"/>
			<point x="444.286" y="1118.14" type="line"/>
			<point x="444.286" y="1556" type="line"/>
			<point x="149.571" y="1556" type="line"/>
		</contour>
		<contour>
			<point x="444.286" y="188" type="line"/>
			<point x="444.286" y="890" type="line"/>
			<point x="962.143" y="890" type="line"/>
		</contour>
	</outline>
	<anchor name="bottom" x="851.571" y="0"/>
	<anchor name="top" x="851.571" y="1556"/>
</glyph>
<glyph name="uni02AC" format="2">
	<unicode hex="02AC"/>
	<advance width="1098"/>
	<outline>
		<contour>
			<point x="1096.14" y="1462" type="line"/>
			<point x="908.714" y="1462" type="line"/>
			<point x="771.429" y="986.286" type="line"/>
			<point x="653.143" y="1462" type="line"/>
			<point x="449.714" y="1462" type="line"/>
			<point x="318.571" y="988.429" type="line"/>
			<point x="185.571" y="1462" type="line"/>
			<point x="0.571429" y="1462" type="line"/>
			<point x="209.286" y="775.143" type="line"/>
			<point x="420.429" y="775.143" type="line"/>
			<point x="547.571" y="1276.43" type="line"/>
			<point x="669.286" y="775.143" type="line"/>
			<point x="883.714" y="775.143" type="line"/>
		</contour>
		<contour>
			<point x="1096.14" y="686.857" type="line"/>
			<point x="908.714" y="686.857" type="line"/>
			<point x="771.429" y="210.857" type="line"/>
			<point x="653.143" y="686.857" type="line"/>
			<point x="449.714" y="686.857" type="line"/>
			<point x="318.571" y="212.286" type="line"/>
			<point x="187" y="686.857" type="line"/>
			<point x="0.571429" y="686.857" type="line"/>
			<point x="209.286" y="0" type="line"/>
			<point x="420.429" y="0" type="line"/>
			<point x="547.571" y="505.286" type="line"/>
			<point x="669.286" y="0" type="line"/>
			<point x="883.714" y="0" type="line"/>
		</contour>
	</outline>
	<anchor name="bottom" x="548.429" y="0"/>
	<anchor name="top" x="548.429" y="1462"/>
</glyph>
<glyph name="uni02C8" format="2">
	<unicode hex="02C8"/>
	<advance width="343"/>
	<outline>
		<contour>
			<point x="261" y="1579.57" type="line"/>
			<point x="82" y="1579.57" type="line"/>
			<point x="82" y="1016" type="line"/>
			<point x="261" y="1016" type="line"/>
		</contour>
	</outline>
	<anchor name="_top" x="171" y="913.429"/>
	<anchor name="top" x="175.286" y="1579.57"/>
</glyph>
<glyph name="macron" format="2">
	<unicode hex="02C9"/>
	<advance width="832"/>
	<outline>
		<contour>
			<point x="750.429" y="1428.43" type="line"/>
			<point x="82" y="1428.43" type="line"/>
			<point x="82" y="1245.57" type="line"/>
			<point x="750.429" y="1245.57" type="line"/>
		</contour>
	</outline>
</glyph>
<glyph name="breve" format="2">
	<unicode hex="02D8"/>
	<advance width="885"/>
	<outline>
		<contour>
			<point x="803.286" y="1571.43" type="curve"/>
			<point x="632" y="1571.43" type="line"/>
			<point x="607.857" y="1464.14"/>
			<point x="540.714" y="1426.43"/>
			<point x="439.857" y="1426.43" type="curve" smooth="yes"/>
			<point x="324.143" y="1426.43"/>
			<point x="270.857" y="1458.43"/>
			<point x="247.286" y="1571.43" type="curve"/>
			<point x="82" y="1571.43" type="line"/>
			<point x="92.5714" y="1364.57"/>
			<point x="211.857" y="1241"/>
			<point x="439.857" y="1241" type="curve" smooth="yes"/>
			<point x="659" y="1241"/>
			<point x="787.857" y="1369.57"/>
		</contour>
	</outline>
</glyph>
<glyph name="ogonek" format="2">
	<unicode hex="02DB"/>
	<advance width="563"/>
	<outline>
		<contour>
			<point x="278.571" y="-218.714" type="curve" smooth="yes"/>
			<point x="278.571" y="-144.714"/>
			<point x="334.714" y="-84"/>
			<point x="427.571" y="0" type="curve"/>
			<point x="307" y="43" type="line"/>
			<point x="135.857" y="-75.4286"/>
			<point x="82" y="-170.857"/>
			<point x="82" y="-264.571" type="curve" smooth="yes"/>
			<point x="82" y="-399"/>
			<point x="189.571" y="-478.286"/>
			<point x="327.143" y="-478.286" type="curve" smooth="yes"/>
			<point x="392.286" y="-478.286"/>
			<point x="442.143" y="-466.714"/>
			<point x="480.571" y="-454.429" type="curve"/>
			<point x="480.571" y="-282.571" type="line"/>
			<point x="454.286" y="-293.429"/>
			<point x="404.429" y="-302.286"/>
			<point x="368.286" y="-302.286" type="curve" smooth="yes"/>
			<point x="311.857" y="-302.286"/>
			<point x="278.571" y="-276.571"/>
		</contour>
	</outline>
</glyph>
